solid OpenSCAD_Model
  facet normal 0.0995037 0 -0.995037
    outer loop
      vertex 0 6 -0
      vertex 0.2 6 0.02
      vertex 0 0 -0
    endloop
  endfacet
  facet normal 0.0499376 0 -0.998752
    outer loop
      vertex 0.2 6 0.02
      vertex 0.4 6 0.03
      vertex 0.2 0 0.02
    endloop
  endfacet
  facet normal 0.0499376 0 -0.998752
    outer loop
      vertex 0.4 6 0.03
      vertex 0.6 6 0.04
      vertex 0.4 0 0.03
    endloop
  endfacet
  facet normal 0.0499376 0 -0.998752
    outer loop
      vertex 0.6 6 0.04
      vertex 0.8 6 0.05
      vertex 0.6 0 0.04
    endloop
  endfacet
  facet normal 0.0499376 0 -0.998752
    outer loop
      vertex 0.8 6 0.05
      vertex 1 6 0.06
      vertex 0.8 0 0.05
    endloop
  endfacet
  facet normal 0.0499376 0 -0.998752
    outer loop
      vertex 1 6 0.06
      vertex 1.2 6 0.07
      vertex 1 0 0.06
    endloop
  endfacet
  facet normal 0 0 -1
    outer loop
      vertex 1.2 6 0.07
      vertex 1.4 6 0.07
      vertex 1.2 0 0.07
    endloop
  endfacet
  facet normal 0.0499376 0 -0.998752
    outer loop
      vertex 1.4 6 0.07
      vertex 1.6 6 0.08
      vertex 1.4 0 0.07
    endloop
  endfacet
  facet normal 0 0 -1
    outer loop
      vertex 1.6 6 0.08
      vertex 1.8 6 0.08
      vertex 1.6 0 0.08
    endloop
  endfacet
  facet normal 0 0 -1
    outer loop
      vertex 1.8 6 0.08
      vertex 2 6 0.08
      vertex 1.8 0 0.08
    endloop
  endfacet
  facet normal 0 0 -1
    outer loop
      vertex 2 6 0.08
      vertex 2.2 6 0.08
      vertex 2 0 0.08
    endloop
  endfacet
  facet normal 0 0 -1
    outer loop
      vertex 2.2 6 0.08
      vertex 2.4 6 0.08
      vertex 2.2 0 0.08
    endloop
  endfacet
  facet normal -0.0499376 -0 -0.998752
    outer loop
      vertex 2.4 6 0.08
      vertex 2.6 6 0.07
      vertex 2.4 0 0.08
    endloop
  endfacet
  facet normal 0 0 -1
    outer loop
      vertex 2.6 6 0.07
      vertex 2.8 6 0.07
      vertex 2.6 0 0.07
    endloop
  endfacet
  facet normal -0.0499376 -0 -0.998752
    outer loop
      vertex 2.8 6 0.07
      vertex 3 6 0.06
      vertex 2.8 0 0.07
    endloop
  endfacet
  facet normal -0.0499376 -0 -0.998752
    outer loop
      vertex 3 6 0.06
      vertex 3.2 6 0.05
      vertex 3 0 0.06
    endloop
  endfacet
  facet normal -0.0499376 -0 -0.998752
    outer loop
      vertex 3.2 6 0.05
      vertex 3.4 6 0.04
      vertex 3.2 0 0.05
    endloop
  endfacet
  facet normal -0.0499376 -0 -0.998752
    outer loop
      vertex 3.4 6 0.04
      vertex 3.6 6 0.03
      vertex 3.4 0 0.04
    endloop
  endfacet
  facet normal -0.0499376 -0 -0.998752
    outer loop
      vertex 3.6 6 0.03
      vertex 3.8 6 0.02
      vertex 3.6 0 0.03
    endloop
  endfacet
  facet normal -0.0995037 -0 -0.995037
    outer loop
      vertex 3.8 6 0.02
      vertex 4 6 -0
      vertex 3.8 0 0.02
    endloop
  endfacet
  facet normal 0.0995037 0 -0.995037
    outer loop
      vertex 0.2 6 0.02
      vertex 0.2 0 0.02
      vertex 0 0 -0
    endloop
  endfacet
  facet normal 0.0499376 0 -0.998752
    outer loop
      vertex 0.4 6 0.03
      vertex 0.4 0 0.03
      vertex 0.2 0 0.02
    endloop
  endfacet
  facet normal 0.0499376 0 -0.998752
    outer loop
      vertex 0.6 6 0.04
      vertex 0.6 0 0.04
      vertex 0.4 0 0.03
    endloop
  endfacet
  facet normal 0.0499376 0 -0.998752
    outer loop
      vertex 0.8 6 0.05
      vertex 0.8 0 0.05
      vertex 0.6 0 0.04
    endloop
  endfacet
  facet normal 0.0499376 0 -0.998752
    outer loop
      vertex 1 6 0.06
      vertex 1 0 0.06
      vertex 0.8 0 0.05
    endloop
  endfacet
  facet normal 0.0499376 0 -0.998752
    outer loop
      vertex 1.2 6 0.07
      vertex 1.2 0 0.07
      vertex 1 0 0.06
    endloop
  endfacet
  facet normal 0 -0 -1
    outer loop
      vertex 1.4 6 0.07
      vertex 1.4 0 0.07
      vertex 1.2 0 0.07
    endloop
  endfacet
  facet normal 0.0499376 0 -0.998752
    outer loop
      vertex 1.6 6 0.08
      vertex 1.6 0 0.08
      vertex 1.4 0 0.07
    endloop
  endfacet
  facet normal 0 -0 -1
    outer loop
      vertex 1.8 6 0.08
      vertex 1.8 0 0.08
      vertex 1.6 0 0.08
    endloop
  endfacet
  facet normal 0 -0 -1
    outer loop
      vertex 2 6 0.08
      vertex 2 0 0.08
      vertex 1.8 0 0.08
    endloop
  endfacet
  facet normal 0 -0 -1
    outer loop
      vertex 2.2 6 0.08
      vertex 2.2 0 0.08
      vertex 2 0 0.08
    endloop
  endfacet
  facet normal 0 -0 -1
    outer loop
      vertex 2.4 6 0.08
      vertex 2.4 0 0.08
      vertex 2.2 0 0.08
    endloop
  endfacet
  facet normal -0.0499376 -0 -0.998752
    outer loop
      vertex 2.6 6 0.07
      vertex 2.6 0 0.07
      vertex 2.4 0 0.08
    endloop
  endfacet
  facet normal 0 -0 -1
    outer loop
      vertex 2.8 6 0.07
      vertex 2.8 0 0.07
      vertex 2.6 0 0.07
    endloop
  endfacet
  facet normal -0.0499376 -0 -0.998752
    outer loop
      vertex 3 6 0.06
      vertex 3 0 0.06
      vertex 2.8 0 0.07
    endloop
  endfacet
  facet normal -0.0499376 -0 -0.998752
    outer loop
      vertex 3.2 6 0.05
      vertex 3.2 0 0.05
      vertex 3 0 0.06
    endloop
  endfacet
  facet normal -0.0499376 -0 -0.998752
    outer loop
      vertex 3.4 6 0.04
      vertex 3.4 0 0.04
      vertex 3.2 0 0.05
    endloop
  endfacet
  facet normal -0.0499376 -0 -0.998752
    outer loop
      vertex 3.6 6 0.03
      vertex 3.6 0 0.03
      vertex 3.4 0 0.04
    endloop
  endfacet
  facet normal -0.0499376 -0 -0.998752
    outer loop
      vertex 3.8 6 0.02
      vertex 3.8 0 0.02
      vertex 3.6 0 0.03
    endloop
  endfacet
  facet normal -0.0995037 -0 -0.995037
    outer loop
      vertex 4 6 -0
      vertex 4 0 -0
      vertex 3.8 0 0.02
    endloop
  endfacet
  facet normal -0.0995037 0 0.995037
    outer loop
      vertex 0 0 -0.001
      vertex 0.2 6 0.019
      vertex 0 6 -0.001
    endloop
  endfacet
  facet normal -0.0499376 0 0.998752
    outer loop
      vertex 0.2 0 0.019
      vertex 0.4 6 0.029
      vertex 0.2 6 0.019
    endloop
  endfacet
  facet normal -0.0499376 0 0.998752
    outer loop
      vertex 0.4 0 0.029
      vertex 0.6 6 0.039
      vertex 0.4 6 0.029
    endloop
  endfacet
  facet normal -0.0499376 0 0.998752
    outer loop
      vertex 0.6 0 0.039
      vertex 0.8 6 0.049
      vertex 0.6 6 0.039
    endloop
  endfacet
  facet normal -0.0499376 0 0.998752
    outer loop
      vertex 0.8 0 0.049
      vertex 1 6 0.059
      vertex 0.8 6 0.049
    endloop
  endfacet
  facet normal -0.0499376 0 0.998752
    outer loop
      vertex 1 0 0.059
      vertex 1.2 6 0.069
      vertex 1 6 0.059
    endloop
  endfacet
  facet normal 0 0 1
    outer loop
      vertex 1.2 0 0.069
      vertex 1.4 6 0.069
      vertex 1.2 6 0.069
    endloop
  endfacet
  facet normal -0.0499376 0 0.998752
    outer loop
      vertex 1.4 0 0.069
      vertex 1.6 6 0.079
      vertex 1.4 6 0.069
    endloop
  endfacet
  facet normal 0 0 1
    outer loop
      vertex 1.6 0 0.079
      vertex 1.8 6 0.079
      vertex 1.6 6 0.079
    endloop
  endfacet
  facet normal 0 0 1
    outer loop
      vertex 1.8 0 0.079
      vertex 2 6 0.079
      vertex 1.8 6 0.079
    endloop
  endfacet
  facet normal 0 0 1
    outer loop
      vertex 2 0 0.079
      vertex 2.2 6 0.079
      vertex 2 6 0.079
    endloop
  endfacet
  facet normal 0 0 1
    outer loop
      vertex 2.2 0 0.079
      vertex 2.4 6 0.079
      vertex 2.2 6 0.079
    endloop
  endfacet
  facet normal 0.0499376 -0 0.998752
    outer loop
      vertex 2.4 0 0.079
      vertex 2.6 6 0.069
      vertex 2.4 6 0.079
    endloop
  endfacet
  facet normal 0 0 1
    outer loop
      vertex 2.6 0 0.069
      vertex 2.8 6 0.069
      vertex 2.6 6 0.069
    endloop
  endfacet
  facet normal 0.0499376 -0 0.998752
    outer loop
      vertex 2.8 0 0.069
      vertex 3 6 0.059
      vertex 2.8 6 0.069
    endloop
  endfacet
  facet normal 0.0499376 -0 0.998752
    outer loop
      vertex 3 0 0.059
      vertex 3.2 6 0.049
      vertex 3 6 0.059
    endloop
  endfacet
  facet normal 0.0499376 -0 0.998752
    outer loop
      vertex 3.2 0 0.049
      vertex 3.4 6 0.039
      vertex 3.2 6 0.049
    endloop
  endfacet
  facet normal 0.0499376 -0 0.998752
    outer loop
      vertex 3.4 0 0.039
      vertex 3.6 6 0.029
      vertex 3.4 6 0.039
    endloop
  endfacet
  facet normal 0.0499376 -0 0.998752
    outer loop
      vertex 3.6 0 0.029
      vertex 3.8 6 0.019
      vertex 3.6 6 0.029
    endloop
  endfacet
  facet normal 0.0995037 -0 0.995037
    outer loop
      vertex 3.8 0 0.019
      vertex 4 6 -0.001
      vertex 3.8 6 0.019
    endloop
  endfacet
  facet normal -0.0995037 0 0.995037
    outer loop
      vertex 0 0 -0.001
      vertex 0.2 0 0.019
      vertex 0.2 6 0.019
    endloop
  endfacet
  facet normal -0.0499376 0 0.998752
    outer loop
      vertex 0.2 0 0.019
      vertex 0.4 0 0.029
      vertex 0.4 6 0.029
    endloop
  endfacet
  facet normal -0.0499376 0 0.998752
    outer loop
      vertex 0.4 0 0.029
      vertex 0.6 0 0.039
      vertex 0.6 6 0.039
    endloop
  endfacet
  facet normal -0.0499376 0 0.998752
    outer loop
      vertex 0.6 0 0.039
      vertex 0.8 0 0.049
      vertex 0.8 6 0.049
    endloop
  endfacet
  facet normal -0.0499376 0 0.998752
    outer loop
      vertex 0.8 0 0.049
      vertex 1 0 0.059
      vertex 1 6 0.059
    endloop
  endfacet
  facet normal -0.0499376 0 0.998752
    outer loop
      vertex 1 0 0.059
      vertex 1.2 0 0.069
      vertex 1.2 6 0.069
    endloop
  endfacet
  facet normal 0 0 1
    outer loop
      vertex 1.2 0 0.069
      vertex 1.4 0 0.069
      vertex 1.4 6 0.069
    endloop
  endfacet
  facet normal -0.0499376 0 0.998752
    outer loop
      vertex 1.4 0 0.069
      vertex 1.6 0 0.079
      vertex 1.6 6 0.079
    endloop
  endfacet
  facet normal 0 0 1
    outer loop
      vertex 1.6 0 0.079
      vertex 1.8 0 0.079
      vertex 1.8 6 0.079
    endloop
  endfacet
  facet normal 0 0 1
    outer loop
      vertex 1.8 0 0.079
      vertex 2 0 0.079
      vertex 2 6 0.079
    endloop
  endfacet
  facet normal 0 0 1
    outer loop
      vertex 2 0 0.079
      vertex 2.2 0 0.079
      vertex 2.2 6 0.079
    endloop
  endfacet
  facet normal 0 0 1
    outer loop
      vertex 2.2 0 0.079
      vertex 2.4 0 0.079
      vertex 2.4 6 0.079
    endloop
  endfacet
  facet normal 0.0499376 0 0.998752
    outer loop
      vertex 2.4 0 0.079
      vertex 2.6 0 0.069
      vertex 2.6 6 0.069
    endloop
  endfacet
  facet normal 0 0 1
    outer loop
      vertex 2.6 0 0.069
      vertex 2.8 0 0.069
      vertex 2.8 6 0.069
    endloop
  endfacet
  facet normal 0.0499376 0 0.998752
    outer loop
      vertex 2.8 0 0.069
      vertex 3 0 0.059
      vertex 3 6 0.059
    endloop
  endfacet
  facet normal 0.0499376 0 0.998752
    outer loop
      vertex 3 0 0.059
      vertex 3.2 0 0.049
      vertex 3.2 6 0.049
    endloop
  endfacet
  facet normal 0.0499376 0 0.998752
    outer loop
      vertex 3.2 0 0.049
      vertex 3.4 0 0.039
      vertex 3.4 6 0.039
    endloop
  endfacet
  facet normal 0.0499376 0 0.998752
    outer loop
      vertex 3.4 0 0.039
      vertex 3.6 0 0.029
      vertex 3.6 6 0.029
    endloop
  endfacet
  facet normal 0.0499376 0 0.998752
    outer loop
      vertex 3.6 0 0.029
      vertex 3.8 0 0.019
      vertex 3.8 6 0.019
    endloop
  endfacet
  facet normal 0.0995037 0 0.995037
    outer loop
      vertex 3.8 0 0.019
      vertex 4 0 -0.001
      vertex 4 6 -0.001
    endloop
  endfacet
  facet normal 1 -0 0
    outer loop
      vertex 0 0 -0
      vertex 0 6 -0.001
      vertex 0 6 -0
    endloop
  endfacet
  facet normal 1 0 0
    outer loop
      vertex 0 6 -0.001
      vertex 0 0 -0
      vertex 0 0 -0.001
    endloop
  endfacet
  facet normal 0 -1 0
    outer loop
      vertex 0 6 -0
      vertex 0.2 6 0.019
      vertex 0.2 6 0.02
    endloop
  endfacet
  facet normal 0 -1 0
    outer loop
      vertex 0.2 6 0.019
      vertex 0 6 -0
      vertex 0 6 -0.001
    endloop
  endfacet
  facet normal 0 -1 0
    outer loop
      vertex 0.2 6 0.02
      vertex 0.4 6 0.029
      vertex 0.4 6 0.03
    endloop
  endfacet
  facet normal 0 -1 0
    outer loop
      vertex 0.4 6 0.029
      vertex 0.2 6 0.02
      vertex 0.2 6 0.019
    endloop
  endfacet
  facet normal 0 -1 0
    outer loop
      vertex 0.4 6 0.03
      vertex 0.6 6 0.039
      vertex 0.6 6 0.04
    endloop
  endfacet
  facet normal 0 -1 0
    outer loop
      vertex 0.6 6 0.039
      vertex 0.4 6 0.03
      vertex 0.4 6 0.029
    endloop
  endfacet
  facet normal 0 -1 0
    outer loop
      vertex 0.6 6 0.04
      vertex 0.8 6 0.049
      vertex 0.8 6 0.05
    endloop
  endfacet
  facet normal 0 -1 0
    outer loop
      vertex 0.8 6 0.049
      vertex 0.6 6 0.04
      vertex 0.6 6 0.039
    endloop
  endfacet
  facet normal 0 -1 0
    outer loop
      vertex 0.8 6 0.05
      vertex 1 6 0.059
      vertex 1 6 0.06
    endloop
  endfacet
  facet normal 0 -1 0
    outer loop
      vertex 1 6 0.059
      vertex 0.8 6 0.05
      vertex 0.8 6 0.049
    endloop
  endfacet
  facet normal 0 -1 0
    outer loop
      vertex 1 6 0.06
      vertex 1.2 6 0.069
      vertex 1.2 6 0.07
    endloop
  endfacet
  facet normal 0 -1 0
    outer loop
      vertex 1.2 6 0.069
      vertex 1 6 0.06
      vertex 1 6 0.059
    endloop
  endfacet
  facet normal 0 -1 0
    outer loop
      vertex 1.2 6 0.069
      vertex 1.4 6 0.07
      vertex 1.2 6 0.07
    endloop
  endfacet
  facet normal 0 -1 -0
    outer loop
      vertex 1.4 6 0.07
      vertex 1.2 6 0.069
      vertex 1.4 6 0.069
    endloop
  endfacet
  facet normal 0 -1 0
    outer loop
      vertex 1.4 6 0.07
      vertex 1.6 6 0.079
      vertex 1.6 6 0.08
    endloop
  endfacet
  facet normal 0 -1 0
    outer loop
      vertex 1.6 6 0.079
      vertex 1.4 6 0.07
      vertex 1.4 6 0.069
    endloop
  endfacet
  facet normal 0 -1 0
    outer loop
      vertex 1.6 6 0.079
      vertex 1.8 6 0.08
      vertex 1.6 6 0.08
    endloop
  endfacet
  facet normal 0 -1 -0
    outer loop
      vertex 1.8 6 0.08
      vertex 1.6 6 0.079
      vertex 1.8 6 0.079
    endloop
  endfacet
  facet normal 0 -1 0
    outer loop
      vertex 1.8 6 0.079
      vertex 2 6 0.08
      vertex 1.8 6 0.08
    endloop
  endfacet
  facet normal 0 -1 -0
    outer loop
      vertex 2 6 0.08
      vertex 1.8 6 0.079
      vertex 2 6 0.079
    endloop
  endfacet
  facet normal 0 -1 0
    outer loop
      vertex 2 6 0.079
      vertex 2.2 6 0.08
      vertex 2 6 0.08
    endloop
  endfacet
  facet normal 0 -1 -0
    outer loop
      vertex 2.2 6 0.08
      vertex 2 6 0.079
      vertex 2.2 6 0.079
    endloop
  endfacet
  facet normal 0 -1 0
    outer loop
      vertex 2.2 6 0.079
      vertex 2.4 6 0.08
      vertex 2.2 6 0.08
    endloop
  endfacet
  facet normal 0 -1 -0
    outer loop
      vertex 2.4 6 0.08
      vertex 2.2 6 0.079
      vertex 2.4 6 0.079
    endloop
  endfacet
  facet normal 0 -1 0
    outer loop
      vertex 2.4 6 0.079
      vertex 2.6 6 0.07
      vertex 2.4 6 0.08
    endloop
  endfacet
  facet normal -0 -1 -0
    outer loop
      vertex 2.6 6 0.07
      vertex 2.4 6 0.079
      vertex 2.6 6 0.069
    endloop
  endfacet
  facet normal 0 -1 0
    outer loop
      vertex 2.6 6 0.069
      vertex 2.8 6 0.07
      vertex 2.6 6 0.07
    endloop
  endfacet
  facet normal 0 -1 -0
    outer loop
      vertex 2.8 6 0.07
      vertex 2.6 6 0.069
      vertex 2.8 6 0.069
    endloop
  endfacet
  facet normal 0 -1 0
    outer loop
      vertex 2.8 6 0.069
      vertex 3 6 0.06
      vertex 2.8 6 0.07
    endloop
  endfacet
  facet normal -0 -1 -0
    outer loop
      vertex 3 6 0.06
      vertex 2.8 6 0.069
      vertex 3 6 0.059
    endloop
  endfacet
  facet normal 0 -1 0
    outer loop
      vertex 3 6 0.059
      vertex 3.2 6 0.05
      vertex 3 6 0.06
    endloop
  endfacet
  facet normal -0 -1 -0
    outer loop
      vertex 3.2 6 0.05
      vertex 3 6 0.059
      vertex 3.2 6 0.049
    endloop
  endfacet
  facet normal 0 -1 0
    outer loop
      vertex 3.2 6 0.049
      vertex 3.4 6 0.04
      vertex 3.2 6 0.05
    endloop
  endfacet
  facet normal -0 -1 -0
    outer loop
      vertex 3.4 6 0.04
      vertex 3.2 6 0.049
      vertex 3.4 6 0.039
    endloop
  endfacet
  facet normal 0 -1 0
    outer loop
      vertex 3.4 6 0.039
      vertex 3.6 6 0.03
      vertex 3.4 6 0.04
    endloop
  endfacet
  facet normal -0 -1 -0
    outer loop
      vertex 3.6 6 0.03
      vertex 3.4 6 0.039
      vertex 3.6 6 0.029
    endloop
  endfacet
  facet normal 0 -1 0
    outer loop
      vertex 3.6 6 0.029
      vertex 3.8 6 0.02
      vertex 3.6 6 0.03
    endloop
  endfacet
  facet normal -0 -1 -0
    outer loop
      vertex 3.8 6 0.02
      vertex 3.6 6 0.029
      vertex 3.8 6 0.019
    endloop
  endfacet
  facet normal 0 -1 0
    outer loop
      vertex 3.8 6 0.019
      vertex 4 6 -0
      vertex 3.8 6 0.02
    endloop
  endfacet
  facet normal -0 -1 -0
    outer loop
      vertex 4 6 -0
      vertex 3.8 6 0.019
      vertex 4 6 -0.001
    endloop
  endfacet
  facet normal -1 0 0
    outer loop
      vertex 4 0 -0.001
      vertex 4 6 -0
      vertex 4 6 -0.001
    endloop
  endfacet
  facet normal -1 -0 0
    outer loop
      vertex 4 6 -0
      vertex 4 0 -0.001
      vertex 4 0 -0
    endloop
  endfacet
  facet normal 0 1 -0
    outer loop
      vertex 0.2 0 0.019
      vertex 0 0 -0
      vertex 0.2 0 0.02
    endloop
  endfacet
  facet normal -0 1 0
    outer loop
      vertex 0 0 -0
      vertex 0.2 0 0.019
      vertex 0 0 -0.001
    endloop
  endfacet
  facet normal 0 1 -0
    outer loop
      vertex 0.4 0 0.029
      vertex 0.2 0 0.02
      vertex 0.4 0 0.03
    endloop
  endfacet
  facet normal -0 1 0
    outer loop
      vertex 0.2 0 0.02
      vertex 0.4 0 0.029
      vertex 0.2 0 0.019
    endloop
  endfacet
  facet normal 0 1 -0
    outer loop
      vertex 0.6 0 0.039
      vertex 0.4 0 0.03
      vertex 0.6 0 0.04
    endloop
  endfacet
  facet normal -0 1 0
    outer loop
      vertex 0.4 0 0.03
      vertex 0.6 0 0.039
      vertex 0.4 0 0.029
    endloop
  endfacet
  facet normal 0 1 -0
    outer loop
      vertex 0.8 0 0.049
      vertex 0.6 0 0.04
      vertex 0.8 0 0.05
    endloop
  endfacet
  facet normal -0 1 0
    outer loop
      vertex 0.6 0 0.04
      vertex 0.8 0 0.049
      vertex 0.6 0 0.039
    endloop
  endfacet
  facet normal 0 1 -0
    outer loop
      vertex 1 0 0.059
      vertex 0.8 0 0.05
      vertex 1 0 0.06
    endloop
  endfacet
  facet normal -0 1 0
    outer loop
      vertex 0.8 0 0.05
      vertex 1 0 0.059
      vertex 0.8 0 0.049
    endloop
  endfacet
  facet normal 0 1 -0
    outer loop
      vertex 1.2 0 0.069
      vertex 1 0 0.06
      vertex 1.2 0 0.07
    endloop
  endfacet
  facet normal -0 1 0
    outer loop
      vertex 1 0 0.06
      vertex 1.2 0 0.069
      vertex 1 0 0.059
    endloop
  endfacet
  facet normal 0 1 -0
    outer loop
      vertex 1.4 0 0.069
      vertex 1.2 0 0.07
      vertex 1.4 0 0.07
    endloop
  endfacet
  facet normal 0 1 0
    outer loop
      vertex 1.2 0 0.07
      vertex 1.4 0 0.069
      vertex 1.2 0 0.069
    endloop
  endfacet
  facet normal 0 1 -0
    outer loop
      vertex 1.6 0 0.079
      vertex 1.4 0 0.07
      vertex 1.6 0 0.08
    endloop
  endfacet
  facet normal -0 1 0
    outer loop
      vertex 1.4 0 0.07
      vertex 1.6 0 0.079
      vertex 1.4 0 0.069
    endloop
  endfacet
  facet normal 0 1 -0
    outer loop
      vertex 1.8 0 0.079
      vertex 1.6 0 0.08
      vertex 1.8 0 0.08
    endloop
  endfacet
  facet normal 0 1 0
    outer loop
      vertex 1.6 0 0.08
      vertex 1.8 0 0.079
      vertex 1.6 0 0.079
    endloop
  endfacet
  facet normal 0 1 -0
    outer loop
      vertex 2 0 0.079
      vertex 1.8 0 0.08
      vertex 2 0 0.08
    endloop
  endfacet
  facet normal 0 1 0
    outer loop
      vertex 1.8 0 0.08
      vertex 2 0 0.079
      vertex 1.8 0 0.079
    endloop
  endfacet
  facet normal 0 1 -0
    outer loop
      vertex 2.2 0 0.079
      vertex 2 0 0.08
      vertex 2.2 0 0.08
    endloop
  endfacet
  facet normal 0 1 0
    outer loop
      vertex 2 0 0.08
      vertex 2.2 0 0.079
      vertex 2 0 0.079
    endloop
  endfacet
  facet normal 0 1 -0
    outer loop
      vertex 2.4 0 0.079
      vertex 2.2 0 0.08
      vertex 2.4 0 0.08
    endloop
  endfacet
  facet normal 0 1 0
    outer loop
      vertex 2.2 0 0.08
      vertex 2.4 0 0.079
      vertex 2.2 0 0.079
    endloop
  endfacet
  facet normal 0 1 0
    outer loop
      vertex 2.6 0 0.07
      vertex 2.4 0 0.079
      vertex 2.4 0 0.08
    endloop
  endfacet
  facet normal 0 1 0
    outer loop
      vertex 2.4 0 0.079
      vertex 2.6 0 0.07
      vertex 2.6 0 0.069
    endloop
  endfacet
  facet normal 0 1 -0
    outer loop
      vertex 2.8 0 0.069
      vertex 2.6 0 0.07
      vertex 2.8 0 0.07
    endloop
  endfacet
  facet normal 0 1 0
    outer loop
      vertex 2.6 0 0.07
      vertex 2.8 0 0.069
      vertex 2.6 0 0.069
    endloop
  endfacet
  facet normal 0 1 0
    outer loop
      vertex 3 0 0.06
      vertex 2.8 0 0.069
      vertex 2.8 0 0.07
    endloop
  endfacet
  facet normal 0 1 0
    outer loop
      vertex 2.8 0 0.069
      vertex 3 0 0.06
      vertex 3 0 0.059
    endloop
  endfacet
  facet normal 0 1 0
    outer loop
      vertex 3.2 0 0.05
      vertex 3 0 0.059
      vertex 3 0 0.06
    endloop
  endfacet
  facet normal 0 1 0
    outer loop
      vertex 3 0 0.059
      vertex 3.2 0 0.05
      vertex 3.2 0 0.049
    endloop
  endfacet
  facet normal 0 1 0
    outer loop
      vertex 3.4 0 0.04
      vertex 3.2 0 0.049
      vertex 3.2 0 0.05
    endloop
  endfacet
  facet normal 0 1 0
    outer loop
      vertex 3.2 0 0.049
      vertex 3.4 0 0.04
      vertex 3.4 0 0.039
    endloop
  endfacet
  facet normal 0 1 0
    outer loop
      vertex 3.6 0 0.03
      vertex 3.4 0 0.039
      vertex 3.4 0 0.04
    endloop
  endfacet
  facet normal 0 1 0
    outer loop
      vertex 3.4 0 0.039
      vertex 3.6 0 0.03
      vertex 3.6 0 0.029
    endloop
  endfacet
  facet normal 0 1 0
    outer loop
      vertex 3.8 0 0.02
      vertex 3.6 0 0.029
      vertex 3.6 0 0.03
    endloop
  endfacet
  facet normal 0 1 0
    outer loop
      vertex 3.6 0 0.029
      vertex 3.8 0 0.02
      vertex 3.8 0 0.019
    endloop
  endfacet
  facet normal 0 1 0
    outer loop
      vertex 4 0 -0
      vertex 3.8 0 0.019
      vertex 3.8 0 0.02
    endloop
  endfacet
  facet normal 0 1 0
    outer loop
      vertex 3.8 0 0.019
      vertex 4 0 -0
      vertex 4 0 -0.001
    endloop
  endfacet
endsolid OpenSCAD_Model
