solid OpenSCAD_Model
  facet normal 1 -0 0
    outer loop
      vertex 1.47311 0 0.0312498
      vertex 1.47311 0.0312498 0
      vertex 1.47311 0.0312498 0.0312498
    endloop
  endfacet
  facet normal 1 0 0
    outer loop
      vertex 1.47311 0.0312498 0
      vertex 1.47311 0 0.0312498
      vertex 1.47311 0 0
    endloop
  endfacet
  facet normal 0 0 -1
    outer loop
      vertex 0 0 0
      vertex 1.47311 0.0312498 0
      vertex 1.47311 0 0
    endloop
  endfacet
  facet normal -0 0 -1
    outer loop
      vertex 1.47311 0.0312498 0
      vertex 0 0 0
      vertex 0 0.0625 0
    endloop
  endfacet
  facet normal -1 0 0
    outer loop
      vertex 0 0 0
      vertex 0 0.0625 0.0625
      vertex 0 0.0625 0
    endloop
  endfacet
  facet normal -1 -0 0
    outer loop
      vertex 0 0.0625 0.0625
      vertex 0 0 0
      vertex 0 0 0.0625
    endloop
  endfacet
  facet normal 0 -1 0
    outer loop
      vertex 0 0 0
      vertex 1.47311 0 0.0312498
      vertex 0 0 0.0625
    endloop
  endfacet
  facet normal 0 -1 -0
    outer loop
      vertex 1.47311 0 0.0312498
      vertex 0 0 0
      vertex 1.47311 0 0
    endloop
  endfacet
  facet normal 0.021209 -0 0.999775
    outer loop
      vertex 0 0 0.0625
      vertex 1.47311 0.0312498 0.0312498
      vertex 0 0.0625 0.0625
    endloop
  endfacet
  facet normal 0.021209 0 0.999775
    outer loop
      vertex 1.47311 0.0312498 0.0312498
      vertex 0 0 0.0625
      vertex 1.47311 0 0.0312498
    endloop
  endfacet
  facet normal 0.021209 0.999775 0
    outer loop
      vertex 0 0.0625 0
      vertex 1.47311 0.0312498 0.0312498
      vertex 1.47311 0.0312498 0
    endloop
  endfacet
  facet normal 0.021209 0.999775 0
    outer loop
      vertex 1.47311 0.0312498 0.0312498
      vertex 0 0.0625 0
      vertex 0 0.0625 0.0625
    endloop
  endfacet
endsolid OpenSCAD_Model
