solid OpenSCAD_Model
  facet normal 0 -0 -1
    outer loop
      vertex 10 0.1875 0
      vertex 10 0 0
      vertex 9.625 0 0
    endloop
  endfacet
  facet normal -0 0 -1
    outer loop
      vertex 6.625 0.25 0
      vertex 0 0 0
      vertex 1.625 0.25 0
    endloop
  endfacet
  facet normal -0 0 -1
    outer loop
      vertex 10 0 0
      vertex 9.8125 -0.1875 0
      vertex 9.625 0 0
    endloop
  endfacet
  facet normal 0 0 -1
    outer loop
      vertex 1.625 0.25 0
      vertex 0 0 0
      vertex 0.108246 0.1875 0
    endloop
  endfacet
  facet normal -0 0 -1
    outer loop
      vertex 10 0.1875 0
      vertex 9.625 0 0
      vertex 6.625 0.25 0
    endloop
  endfacet
  facet normal 0 -0 -1
    outer loop
      vertex 6.625 0.25 0
      vertex 9.625 0 0
      vertex 0 0 0
    endloop
  endfacet
  facet normal 0 0 1
    outer loop
      vertex 9.625 0 0.125
      vertex 10 0 0.125
      vertex 10 0.1875 0.125
    endloop
  endfacet
  facet normal -0 0 1
    outer loop
      vertex 1.625 0.25 0.125
      vertex 0 0 0.125
      vertex 6.625 0.25 0.125
    endloop
  endfacet
  facet normal -0 0 1
    outer loop
      vertex 9.625 0 0.125
      vertex 9.8125 -0.1875 0.125
      vertex 10 0 0.125
    endloop
  endfacet
  facet normal -0 0 1
    outer loop
      vertex 0.108246 0.1875 0.125
      vertex 0 0 0.125
      vertex 1.625 0.25 0.125
    endloop
  endfacet
  facet normal 0 0 1
    outer loop
      vertex 6.625 0.25 0.125
      vertex 9.625 0 0.125
      vertex 10 0.1875 0.125
    endloop
  endfacet
  facet normal 0 0 1
    outer loop
      vertex 0 0 0.125
      vertex 9.625 0 0.125
      vertex 6.625 0.25 0.125
    endloop
  endfacet
  facet normal 1 0 0
    outer loop
      vertex 10 0.1875 0
      vertex 10 0 0.125
      vertex 10 0 0
    endloop
  endfacet
  facet normal 1 0 -0
    outer loop
      vertex 10 0.1875 0
      vertex 10 0.1875 0.125
      vertex 10 0 0.125
    endloop
  endfacet
  facet normal 0.0185153 0.999829 0
    outer loop
      vertex 6.625 0.25 0
      vertex 10 0.1875 0.125
      vertex 10 0.1875 0
    endloop
  endfacet
  facet normal 0.0185153 0.999829 -0
    outer loop
      vertex 6.625 0.25 0
      vertex 6.625 0.25 0.125
      vertex 10 0.1875 0.125
    endloop
  endfacet
  facet normal 0 1 0
    outer loop
      vertex 1.625 0.25 0
      vertex 6.625 0.25 0.125
      vertex 6.625 0.25 0
    endloop
  endfacet
  facet normal 0 1 0
    outer loop
      vertex 1.625 0.25 0
      vertex 1.625 0.25 0.125
      vertex 6.625 0.25 0.125
    endloop
  endfacet
  facet normal -0.0411715 0.999152 0
    outer loop
      vertex 0.108246 0.1875 0
      vertex 1.625 0.25 0.125
      vertex 1.625 0.25 0
    endloop
  endfacet
  facet normal -0.0411715 0.999152 0
    outer loop
      vertex 0.108246 0.1875 0
      vertex 0.108246 0.1875 0.125
      vertex 1.625 0.25 0.125
    endloop
  endfacet
  facet normal -0.86604 0.499975 0
    outer loop
      vertex 0 0 0
      vertex 0.108246 0.1875 0.125
      vertex 0.108246 0.1875 0
    endloop
  endfacet
  facet normal -0.86604 0.499975 0
    outer loop
      vertex 0 0 0
      vertex 0 0 0.125
      vertex 0.108246 0.1875 0.125
    endloop
  endfacet
  facet normal 0 -1 0
    outer loop
      vertex 9.625 0 0
      vertex 0 0 0.125
      vertex 0 0 0
    endloop
  endfacet
  facet normal 0 -1 0
    outer loop
      vertex 9.625 0 0
      vertex 9.625 0 0.125
      vertex 0 0 0.125
    endloop
  endfacet
  facet normal -0.707107 -0.707107 0
    outer loop
      vertex 9.8125 -0.1875 0
      vertex 9.625 0 0.125
      vertex 9.625 0 0
    endloop
  endfacet
  facet normal -0.707107 -0.707107 0
    outer loop
      vertex 9.8125 -0.1875 0
      vertex 9.8125 -0.1875 0.125
      vertex 9.625 0 0.125
    endloop
  endfacet
  facet normal 0.707107 -0.707107 0
    outer loop
      vertex 10 0 0
      vertex 9.8125 -0.1875 0.125
      vertex 9.8125 -0.1875 0
    endloop
  endfacet
  facet normal 0.707107 -0.707107 0
    outer loop
      vertex 10 0 0
      vertex 10 0 0.125
      vertex 9.8125 -0.1875 0.125
    endloop
  endfacet
endsolid OpenSCAD_Model
