solid OpenSCAD_Model
  facet normal 1 -0 0
    outer loop
      vertex 1.5 0 0.0312497
      vertex 1.5 0.0312497 0
      vertex 1.5 0.0312497 0.0312497
    endloop
  endfacet
  facet normal 1 0 0
    outer loop
      vertex 1.5 0.0312497 0
      vertex 1.5 0 0.0312497
      vertex 1.5 0 0
    endloop
  endfacet
  facet normal 0 0 -1
    outer loop
      vertex 0 0 0
      vertex 1.5 0.0312497 0
      vertex 1.5 0 0
    endloop
  endfacet
  facet normal -0 0 -1
    outer loop
      vertex 1.5 0.0312497 0
      vertex 0 0 0
      vertex 0 0.0625 0
    endloop
  endfacet
  facet normal -1 0 0
    outer loop
      vertex 0 0 0
      vertex 0 0.0625 0.0625
      vertex 0 0.0625 0
    endloop
  endfacet
  facet normal -1 -0 0
    outer loop
      vertex 0 0.0625 0.0625
      vertex 0 0 0
      vertex 0 0 0.0625
    endloop
  endfacet
  facet normal 0 -1 0
    outer loop
      vertex 0 0 0
      vertex 1.5 0 0.0312497
      vertex 0 0 0.0625
    endloop
  endfacet
  facet normal 0 -1 -0
    outer loop
      vertex 1.5 0 0.0312497
      vertex 0 0 0
      vertex 1.5 0 0
    endloop
  endfacet
  facet normal 0.020829 -0 0.999783
    outer loop
      vertex 0 0 0.0625
      vertex 1.5 0.0312497 0.0312497
      vertex 0 0.0625 0.0625
    endloop
  endfacet
  facet normal 0.020829 0 0.999783
    outer loop
      vertex 1.5 0.0312497 0.0312497
      vertex 0 0 0.0625
      vertex 1.5 0 0.0312497
    endloop
  endfacet
  facet normal 0.020829 0.999783 0
    outer loop
      vertex 0 0.0625 0
      vertex 1.5 0.0312497 0.0312497
      vertex 1.5 0.0312497 0
    endloop
  endfacet
  facet normal 0.020829 0.999783 0
    outer loop
      vertex 1.5 0.0312497 0.0312497
      vertex 0 0.0625 0
      vertex 0 0.0625 0.0625
    endloop
  endfacet
endsolid OpenSCAD_Model
