solid OpenSCAD_Model
  facet normal 1 -0 0
    outer loop
      vertex 3 0 0.0312495
      vertex 3 0.0312495 0
      vertex 3 0.0312495 0.0312495
    endloop
  endfacet
  facet normal 1 0 0
    outer loop
      vertex 3 0.0312495 0
      vertex 3 0 0.0312495
      vertex 3 0 0
    endloop
  endfacet
  facet normal 0 0 -1
    outer loop
      vertex 0 0 0
      vertex 3 0.0312495 0
      vertex 3 0 0
    endloop
  endfacet
  facet normal -0 0 -1
    outer loop
      vertex 3 0.0312495 0
      vertex 0 0 0
      vertex 0 0.0625 0
    endloop
  endfacet
  facet normal -1 0 0
    outer loop
      vertex 0 0 0
      vertex 0 0.0625 0.0625
      vertex 0 0.0625 0
    endloop
  endfacet
  facet normal -1 -0 0
    outer loop
      vertex 0 0.0625 0.0625
      vertex 0 0 0
      vertex 0 0 0.0625
    endloop
  endfacet
  facet normal 0 -1 0
    outer loop
      vertex 0 0 0
      vertex 3 0 0.0312495
      vertex 0 0 0.0625
    endloop
  endfacet
  facet normal 0 -1 -0
    outer loop
      vertex 3 0 0.0312495
      vertex 0 0 0
      vertex 3 0 0
    endloop
  endfacet
  facet normal 0.0104163 -0 0.999946
    outer loop
      vertex 0 0 0.0625
      vertex 3 0.0312495 0.0312495
      vertex 0 0.0625 0.0625
    endloop
  endfacet
  facet normal 0.0104163 0 0.999946
    outer loop
      vertex 3 0.0312495 0.0312495
      vertex 0 0 0.0625
      vertex 3 0 0.0312495
    endloop
  endfacet
  facet normal 0.0104163 0.999946 0
    outer loop
      vertex 0 0.0625 0
      vertex 3 0.0312495 0.0312495
      vertex 3 0.0312495 0
    endloop
  endfacet
  facet normal 0.0104163 0.999946 0
    outer loop
      vertex 3 0.0312495 0.0312495
      vertex 0 0.0625 0
      vertex 0 0.0625 0.0625
    endloop
  endfacet
endsolid OpenSCAD_Model
