solid OpenSCAD_Model
  facet normal 0 0 -1
    outer loop
      vertex 0 0.2 0
      vertex 0.4 0.2 0
      vertex 0 0 0
    endloop
  endfacet
  facet normal 0 0 -1
    outer loop
      vertex 0 0.4 0
      vertex 0.4 0.4 0
      vertex 0 0.2 0
    endloop
  endfacet
  facet normal 0 0 -1
    outer loop
      vertex 0 0.6 0
      vertex 0.4 0.6 0
      vertex 0 0.4 0
    endloop
  endfacet
  facet normal 0 -0 -1
    outer loop
      vertex 0.03 0.8 0
      vertex 0.43 0.8 0
      vertex 0 0.6 0
    endloop
  endfacet
  facet normal 0 -0 -1
    outer loop
      vertex 0.09 1 0
      vertex 0.48 1 0
      vertex 0.03 0.8 0
    endloop
  endfacet
  facet normal 0 -0 -1
    outer loop
      vertex 0.17 1.2 0
      vertex 0.56 1.2 0
      vertex 0.09 1 0
    endloop
  endfacet
  facet normal 0 -0 -1
    outer loop
      vertex 0.3 1.4 0
      vertex 0.67 1.4 0
      vertex 0.17 1.2 0
    endloop
  endfacet
  facet normal 0 -0 -1
    outer loop
      vertex 0.48 1.6 0
      vertex 0.83 1.6 0
      vertex 0.3 1.4 0
    endloop
  endfacet
  facet normal 0 -0 -1
    outer loop
      vertex 0.75 1.8 0
      vertex 1.08 1.8 0
      vertex 0.48 1.6 0
    endloop
  endfacet
  facet normal 0 -0 -1
    outer loop
      vertex 1.5 2 0
      vertex 1.75 2 0
      vertex 0.75 1.8 0
    endloop
  endfacet
  facet normal 0 0 -1
    outer loop
      vertex 0.4 0.2 0
      vertex 0.8 0.2 0
      vertex 0.4 0 0
    endloop
  endfacet
  facet normal 0 0 -1
    outer loop
      vertex 0.4 0.4 0
      vertex 0.8 0.4 0
      vertex 0.4 0.2 0
    endloop
  endfacet
  facet normal 0 0 -1
    outer loop
      vertex 0.4 0.6 0
      vertex 0.8 0.6 0
      vertex 0.4 0.4 0
    endloop
  endfacet
  facet normal 0 -0 -1
    outer loop
      vertex 0.43 0.8 0
      vertex 0.82 0.8 0
      vertex 0.4 0.6 0
    endloop
  endfacet
  facet normal 0 -0 -1
    outer loop
      vertex 0.48 1 0
      vertex 0.87 1 0
      vertex 0.43 0.8 0
    endloop
  endfacet
  facet normal 0 -0 -1
    outer loop
      vertex 0.56 1.2 0
      vertex 0.94 1.2 0
      vertex 0.48 1 0
    endloop
  endfacet
  facet normal 0 -0 -1
    outer loop
      vertex 0.67 1.4 0
      vertex 1.04 1.4 0
      vertex 0.56 1.2 0
    endloop
  endfacet
  facet normal 0 -0 -1
    outer loop
      vertex 0.83 1.6 0
      vertex 1.18 1.6 0
      vertex 0.67 1.4 0
    endloop
  endfacet
  facet normal 0 -0 -1
    outer loop
      vertex 1.08 1.8 0
      vertex 1.4 1.8 0
      vertex 0.83 1.6 0
    endloop
  endfacet
  facet normal 0 -0 -1
    outer loop
      vertex 1.75 2 0
      vertex 2 2 0
      vertex 1.08 1.8 0
    endloop
  endfacet
  facet normal 0 0 -1
    outer loop
      vertex 0.8 0.2 0
      vertex 1.2 0.2 0
      vertex 0.8 0 0
    endloop
  endfacet
  facet normal 0 0 -1
    outer loop
      vertex 0.8 0.4 0
      vertex 1.2 0.4 0
      vertex 0.8 0.2 0
    endloop
  endfacet
  facet normal 0 0 -1
    outer loop
      vertex 0.8 0.6 0
      vertex 1.2 0.6 0
      vertex 0.8 0.4 0
    endloop
  endfacet
  facet normal 0 -0 -1
    outer loop
      vertex 0.82 0.8 0
      vertex 1.22 0.8 0
      vertex 0.8 0.6 0
    endloop
  endfacet
  facet normal 0 -0 -1
    outer loop
      vertex 0.87 1 0
      vertex 1.26 1 0
      vertex 0.82 0.8 0
    endloop
  endfacet
  facet normal 0 -0 -1
    outer loop
      vertex 0.94 1.2 0
      vertex 1.32 1.2 0
      vertex 0.87 1 0
    endloop
  endfacet
  facet normal 0 -0 -1
    outer loop
      vertex 1.04 1.4 0
      vertex 1.41 1.4 0
      vertex 0.94 1.2 0
    endloop
  endfacet
  facet normal 0 -0 -1
    outer loop
      vertex 1.18 1.6 0
      vertex 1.54 1.6 0
      vertex 1.04 1.4 0
    endloop
  endfacet
  facet normal 0 -0 -1
    outer loop
      vertex 1.4 1.8 0
      vertex 1.73 1.8 0
      vertex 1.18 1.6 0
    endloop
  endfacet
  facet normal 0 -0 -1
    outer loop
      vertex 2 2 0
      vertex 2.25 2 0
      vertex 1.4 1.8 0
    endloop
  endfacet
  facet normal 0 0 -1
    outer loop
      vertex 1.2 0.2 0
      vertex 1.6 0.2 0
      vertex 1.2 0 0
    endloop
  endfacet
  facet normal 0 0 -1
    outer loop
      vertex 1.2 0.4 0
      vertex 1.6 0.4 0
      vertex 1.2 0.2 0
    endloop
  endfacet
  facet normal 0 0 -1
    outer loop
      vertex 1.2 0.6 0
      vertex 1.6 0.6 0
      vertex 1.2 0.4 0
    endloop
  endfacet
  facet normal 0 -0 -1
    outer loop
      vertex 1.22 0.8 0
      vertex 1.62 0.8 0
      vertex 1.2 0.6 0
    endloop
  endfacet
  facet normal 0 -0 -1
    outer loop
      vertex 1.26 1 0
      vertex 1.65 1 0
      vertex 1.22 0.8 0
    endloop
  endfacet
  facet normal 0 -0 -1
    outer loop
      vertex 1.32 1.2 0
      vertex 1.7 1.2 0
      vertex 1.26 1 0
    endloop
  endfacet
  facet normal 0 -0 -1
    outer loop
      vertex 1.41 1.4 0
      vertex 1.78 1.4 0
      vertex 1.32 1.2 0
    endloop
  endfacet
  facet normal 0 -0 -1
    outer loop
      vertex 1.54 1.6 0
      vertex 1.89 1.6 0
      vertex 1.41 1.4 0
    endloop
  endfacet
  facet normal 0 -0 -1
    outer loop
      vertex 1.73 1.8 0
      vertex 2.05 1.8 0
      vertex 1.54 1.6 0
    endloop
  endfacet
  facet normal 0 -0 -1
    outer loop
      vertex 2.25 2 0
      vertex 2.5 2 0
      vertex 1.73 1.8 0
    endloop
  endfacet
  facet normal 0 0 -1
    outer loop
      vertex 1.6 0.2 0
      vertex 2 0.2 0
      vertex 1.6 0 0
    endloop
  endfacet
  facet normal 0 0 -1
    outer loop
      vertex 1.6 0.4 0
      vertex 2 0.4 0
      vertex 1.6 0.2 0
    endloop
  endfacet
  facet normal 0 0 -1
    outer loop
      vertex 1.6 0.6 0
      vertex 2 0.6 0
      vertex 1.6 0.4 0
    endloop
  endfacet
  facet normal 0 -0 -1
    outer loop
      vertex 1.62 0.8 0
      vertex 2.02 0.8 0
      vertex 1.6 0.6 0
    endloop
  endfacet
  facet normal 0 -0 -1
    outer loop
      vertex 1.65 1 0
      vertex 2.04 1 0
      vertex 1.62 0.8 0
    endloop
  endfacet
  facet normal 0 -0 -1
    outer loop
      vertex 1.7 1.2 0
      vertex 2.09 1.2 0
      vertex 1.65 1 0
    endloop
  endfacet
  facet normal 0 -0 -1
    outer loop
      vertex 1.78 1.4 0
      vertex 2.15 1.4 0
      vertex 1.7 1.2 0
    endloop
  endfacet
  facet normal 0 -0 -1
    outer loop
      vertex 1.89 1.6 0
      vertex 2.24 1.6 0
      vertex 1.78 1.4 0
    endloop
  endfacet
  facet normal 0 -0 -1
    outer loop
      vertex 2.05 1.8 0
      vertex 2.38 1.8 0
      vertex 1.89 1.6 0
    endloop
  endfacet
  facet normal 0 -0 -1
    outer loop
      vertex 2.5 2 0
      vertex 2.75 2 0
      vertex 2.05 1.8 0
    endloop
  endfacet
  facet normal 0 0 -1
    outer loop
      vertex 2 0.2 0
      vertex 2.4 0.2 0
      vertex 2 0 0
    endloop
  endfacet
  facet normal 0 0 -1
    outer loop
      vertex 2 0.4 0
      vertex 2.4 0.4 0
      vertex 2 0.2 0
    endloop
  endfacet
  facet normal 0 0 -1
    outer loop
      vertex 2 0.6 0
      vertex 2.4 0.6 0
      vertex 2 0.4 0
    endloop
  endfacet
  facet normal 0 -0 -1
    outer loop
      vertex 2.02 0.8 0
      vertex 2.41 0.8 0
      vertex 2 0.6 0
    endloop
  endfacet
  facet normal 0 -0 -1
    outer loop
      vertex 2.04 1 0
      vertex 2.43 1 0
      vertex 2.02 0.8 0
    endloop
  endfacet
  facet normal 0 -0 -1
    outer loop
      vertex 2.09 1.2 0
      vertex 2.47 1.2 0
      vertex 2.04 1 0
    endloop
  endfacet
  facet normal 0 -0 -1
    outer loop
      vertex 2.15 1.4 0
      vertex 2.52 1.4 0
      vertex 2.09 1.2 0
    endloop
  endfacet
  facet normal 0 -0 -1
    outer loop
      vertex 2.24 1.6 0
      vertex 2.59 1.6 0
      vertex 2.15 1.4 0
    endloop
  endfacet
  facet normal 0 -0 -1
    outer loop
      vertex 2.38 1.8 0
      vertex 2.7 1.8 0
      vertex 2.24 1.6 0
    endloop
  endfacet
  facet normal 0 -0 -1
    outer loop
      vertex 2.75 2 0
      vertex 3 2 0
      vertex 2.38 1.8 0
    endloop
  endfacet
  facet normal 0 0 -1
    outer loop
      vertex 2.4 0.2 0
      vertex 2.8 0.2 0
      vertex 2.4 0 0
    endloop
  endfacet
  facet normal 0 0 -1
    outer loop
      vertex 2.4 0.4 0
      vertex 2.8 0.4 0
      vertex 2.4 0.2 0
    endloop
  endfacet
  facet normal 0 0 -1
    outer loop
      vertex 2.4 0.6 0
      vertex 2.8 0.6 0
      vertex 2.4 0.4 0
    endloop
  endfacet
  facet normal 0 -0 -1
    outer loop
      vertex 2.41 0.8 0
      vertex 2.81 0.8 0
      vertex 2.4 0.6 0
    endloop
  endfacet
  facet normal 0 -0 -1
    outer loop
      vertex 2.43 1 0
      vertex 2.83 1 0
      vertex 2.41 0.8 0
    endloop
  endfacet
  facet normal 0 -0 -1
    outer loop
      vertex 2.47 1.2 0
      vertex 2.85 1.2 0
      vertex 2.43 1 0
    endloop
  endfacet
  facet normal 0 -0 -1
    outer loop
      vertex 2.52 1.4 0
      vertex 2.89 1.4 0
      vertex 2.47 1.2 0
    endloop
  endfacet
  facet normal 0 -0 -1
    outer loop
      vertex 2.59 1.6 0
      vertex 2.94 1.6 0
      vertex 2.52 1.4 0
    endloop
  endfacet
  facet normal 0 -0 -1
    outer loop
      vertex 2.7 1.8 0
      vertex 3.03 1.8 0
      vertex 2.59 1.6 0
    endloop
  endfacet
  facet normal 0 -0 -1
    outer loop
      vertex 3 2 0
      vertex 3.25 2 0
      vertex 2.7 1.8 0
    endloop
  endfacet
  facet normal 0 0 -1
    outer loop
      vertex 2.8 0.2 0
      vertex 3.2 0.2 0
      vertex 2.8 0 0
    endloop
  endfacet
  facet normal 0 0 -1
    outer loop
      vertex 2.8 0.4 0
      vertex 3.2 0.4 0
      vertex 2.8 0.2 0
    endloop
  endfacet
  facet normal 0 0 -1
    outer loop
      vertex 2.8 0.6 0
      vertex 3.2 0.6 0
      vertex 2.8 0.4 0
    endloop
  endfacet
  facet normal 0 -0 -1
    outer loop
      vertex 2.81 0.8 0
      vertex 3.21 0.8 0
      vertex 2.8 0.6 0
    endloop
  endfacet
  facet normal 0 -0 -1
    outer loop
      vertex 2.83 1 0
      vertex 3.22 1 0
      vertex 2.81 0.8 0
    endloop
  endfacet
  facet normal 0 -0 -1
    outer loop
      vertex 2.85 1.2 0
      vertex 3.23 1.2 0
      vertex 2.83 1 0
    endloop
  endfacet
  facet normal 0 -0 -1
    outer loop
      vertex 2.89 1.4 0
      vertex 3.26 1.4 0
      vertex 2.85 1.2 0
    endloop
  endfacet
  facet normal 0 -0 -1
    outer loop
      vertex 2.94 1.6 0
      vertex 3.3 1.6 0
      vertex 2.89 1.4 0
    endloop
  endfacet
  facet normal 0 -0 -1
    outer loop
      vertex 3.03 1.8 0
      vertex 3.35 1.8 0
      vertex 2.94 1.6 0
    endloop
  endfacet
  facet normal 0 -0 -1
    outer loop
      vertex 3.25 2 0
      vertex 3.5 2 0
      vertex 3.03 1.8 0
    endloop
  endfacet
  facet normal 0 0 -1
    outer loop
      vertex 3.2 0.2 0
      vertex 3.6 0.2 0
      vertex 3.2 0 0
    endloop
  endfacet
  facet normal 0 0 -1
    outer loop
      vertex 3.2 0.4 0
      vertex 3.6 0.4 0
      vertex 3.2 0.2 0
    endloop
  endfacet
  facet normal 0 0 -1
    outer loop
      vertex 3.2 0.6 0
      vertex 3.6 0.6 0
      vertex 3.2 0.4 0
    endloop
  endfacet
  facet normal 0 -0 -1
    outer loop
      vertex 3.21 0.8 0
      vertex 3.6 0.8 0
      vertex 3.2 0.6 0
    endloop
  endfacet
  facet normal 0 -0 -1
    outer loop
      vertex 3.22 1 0
      vertex 3.61 1 0
      vertex 3.21 0.8 0
    endloop
  endfacet
  facet normal 0 -0 -1
    outer loop
      vertex 3.23 1.2 0
      vertex 3.62 1.2 0
      vertex 3.22 1 0
    endloop
  endfacet
  facet normal 0 -0 -1
    outer loop
      vertex 3.26 1.4 0
      vertex 3.63 1.4 0
      vertex 3.23 1.2 0
    endloop
  endfacet
  facet normal 0 -0 -1
    outer loop
      vertex 3.3 1.6 0
      vertex 3.65 1.6 0
      vertex 3.26 1.4 0
    endloop
  endfacet
  facet normal 0 -0 -1
    outer loop
      vertex 3.35 1.8 0
      vertex 3.68 1.8 0
      vertex 3.3 1.6 0
    endloop
  endfacet
  facet normal 0 -0 -1
    outer loop
      vertex 3.5 2 0
      vertex 3.75 2 0
      vertex 3.35 1.8 0
    endloop
  endfacet
  facet normal 0 0 -1
    outer loop
      vertex 3.6 0.2 0
      vertex 4 0.2 0
      vertex 3.6 0 0
    endloop
  endfacet
  facet normal 0 0 -1
    outer loop
      vertex 3.6 0.4 0
      vertex 4 0.4 0
      vertex 3.6 0.2 0
    endloop
  endfacet
  facet normal 0 0 -1
    outer loop
      vertex 3.6 0.6 0
      vertex 4 0.6 0
      vertex 3.6 0.4 0
    endloop
  endfacet
  facet normal 0 0 -1
    outer loop
      vertex 3.6 0.8 0
      vertex 4 0.8 0
      vertex 3.6 0.6 0
    endloop
  endfacet
  facet normal 0 -0 -1
    outer loop
      vertex 3.61 1 0
      vertex 4 1 0
      vertex 3.6 0.8 0
    endloop
  endfacet
  facet normal 0 -0 -1
    outer loop
      vertex 3.62 1.2 0
      vertex 4 1.2 0
      vertex 3.61 1 0
    endloop
  endfacet
  facet normal 0 -0 -1
    outer loop
      vertex 3.63 1.4 0
      vertex 4 1.4 0
      vertex 3.62 1.2 0
    endloop
  endfacet
  facet normal 0 -0 -1
    outer loop
      vertex 3.65 1.6 0
      vertex 4 1.6 0
      vertex 3.63 1.4 0
    endloop
  endfacet
  facet normal 0 -0 -1
    outer loop
      vertex 3.68 1.8 0
      vertex 4 1.8 0
      vertex 3.65 1.6 0
    endloop
  endfacet
  facet normal 0 -0 -1
    outer loop
      vertex 3.75 2 0
      vertex 4 2 0
      vertex 3.68 1.8 0
    endloop
  endfacet
  facet normal 0 -0 -1
    outer loop
      vertex 0.4 0.2 0
      vertex 0.4 0 0
      vertex 0 0 0
    endloop
  endfacet
  facet normal 0 -0 -1
    outer loop
      vertex 0.4 0.4 0
      vertex 0.4 0.2 0
      vertex 0 0.2 0
    endloop
  endfacet
  facet normal 0 -0 -1
    outer loop
      vertex 0.4 0.6 0
      vertex 0.4 0.4 0
      vertex 0 0.4 0
    endloop
  endfacet
  facet normal 0 0 -1
    outer loop
      vertex 0.43 0.8 0
      vertex 0.4 0.6 0
      vertex 0 0.6 0
    endloop
  endfacet
  facet normal 0 0 -1
    outer loop
      vertex 0.48 1 0
      vertex 0.43 0.8 0
      vertex 0.03 0.8 0
    endloop
  endfacet
  facet normal 0 0 -1
    outer loop
      vertex 0.56 1.2 0
      vertex 0.48 1 0
      vertex 0.09 1 0
    endloop
  endfacet
  facet normal 0 0 -1
    outer loop
      vertex 0.67 1.4 0
      vertex 0.56 1.2 0
      vertex 0.17 1.2 0
    endloop
  endfacet
  facet normal 0 0 -1
    outer loop
      vertex 0.83 1.6 0
      vertex 0.67 1.4 0
      vertex 0.3 1.4 0
    endloop
  endfacet
  facet normal 0 0 -1
    outer loop
      vertex 1.08 1.8 0
      vertex 0.83 1.6 0
      vertex 0.48 1.6 0
    endloop
  endfacet
  facet normal 0 0 -1
    outer loop
      vertex 1.75 2 0
      vertex 1.08 1.8 0
      vertex 0.75 1.8 0
    endloop
  endfacet
  facet normal 0 -0 -1
    outer loop
      vertex 0.8 0.2 0
      vertex 0.8 0 0
      vertex 0.4 0 0
    endloop
  endfacet
  facet normal 0 -0 -1
    outer loop
      vertex 0.8 0.4 0
      vertex 0.8 0.2 0
      vertex 0.4 0.2 0
    endloop
  endfacet
  facet normal 0 -0 -1
    outer loop
      vertex 0.8 0.6 0
      vertex 0.8 0.4 0
      vertex 0.4 0.4 0
    endloop
  endfacet
  facet normal 0 0 -1
    outer loop
      vertex 0.82 0.8 0
      vertex 0.8 0.6 0
      vertex 0.4 0.6 0
    endloop
  endfacet
  facet normal 0 0 -1
    outer loop
      vertex 0.87 1 0
      vertex 0.82 0.8 0
      vertex 0.43 0.8 0
    endloop
  endfacet
  facet normal 0 0 -1
    outer loop
      vertex 0.94 1.2 0
      vertex 0.87 1 0
      vertex 0.48 1 0
    endloop
  endfacet
  facet normal 0 0 -1
    outer loop
      vertex 1.04 1.4 0
      vertex 0.94 1.2 0
      vertex 0.56 1.2 0
    endloop
  endfacet
  facet normal 0 0 -1
    outer loop
      vertex 1.18 1.6 0
      vertex 1.04 1.4 0
      vertex 0.67 1.4 0
    endloop
  endfacet
  facet normal 0 0 -1
    outer loop
      vertex 1.4 1.8 0
      vertex 1.18 1.6 0
      vertex 0.83 1.6 0
    endloop
  endfacet
  facet normal 0 0 -1
    outer loop
      vertex 2 2 0
      vertex 1.4 1.8 0
      vertex 1.08 1.8 0
    endloop
  endfacet
  facet normal 0 -0 -1
    outer loop
      vertex 1.2 0.2 0
      vertex 1.2 0 0
      vertex 0.8 0 0
    endloop
  endfacet
  facet normal 0 -0 -1
    outer loop
      vertex 1.2 0.4 0
      vertex 1.2 0.2 0
      vertex 0.8 0.2 0
    endloop
  endfacet
  facet normal 0 -0 -1
    outer loop
      vertex 1.2 0.6 0
      vertex 1.2 0.4 0
      vertex 0.8 0.4 0
    endloop
  endfacet
  facet normal 0 0 -1
    outer loop
      vertex 1.22 0.8 0
      vertex 1.2 0.6 0
      vertex 0.8 0.6 0
    endloop
  endfacet
  facet normal 0 0 -1
    outer loop
      vertex 1.26 1 0
      vertex 1.22 0.8 0
      vertex 0.82 0.8 0
    endloop
  endfacet
  facet normal 0 0 -1
    outer loop
      vertex 1.32 1.2 0
      vertex 1.26 1 0
      vertex 0.87 1 0
    endloop
  endfacet
  facet normal 0 0 -1
    outer loop
      vertex 1.41 1.4 0
      vertex 1.32 1.2 0
      vertex 0.94 1.2 0
    endloop
  endfacet
  facet normal 0 0 -1
    outer loop
      vertex 1.54 1.6 0
      vertex 1.41 1.4 0
      vertex 1.04 1.4 0
    endloop
  endfacet
  facet normal 0 0 -1
    outer loop
      vertex 1.73 1.8 0
      vertex 1.54 1.6 0
      vertex 1.18 1.6 0
    endloop
  endfacet
  facet normal 0 0 -1
    outer loop
      vertex 2.25 2 0
      vertex 1.73 1.8 0
      vertex 1.4 1.8 0
    endloop
  endfacet
  facet normal 0 -0 -1
    outer loop
      vertex 1.6 0.2 0
      vertex 1.6 0 0
      vertex 1.2 0 0
    endloop
  endfacet
  facet normal 0 -0 -1
    outer loop
      vertex 1.6 0.4 0
      vertex 1.6 0.2 0
      vertex 1.2 0.2 0
    endloop
  endfacet
  facet normal 0 -0 -1
    outer loop
      vertex 1.6 0.6 0
      vertex 1.6 0.4 0
      vertex 1.2 0.4 0
    endloop
  endfacet
  facet normal 0 0 -1
    outer loop
      vertex 1.62 0.8 0
      vertex 1.6 0.6 0
      vertex 1.2 0.6 0
    endloop
  endfacet
  facet normal 0 0 -1
    outer loop
      vertex 1.65 1 0
      vertex 1.62 0.8 0
      vertex 1.22 0.8 0
    endloop
  endfacet
  facet normal 0 0 -1
    outer loop
      vertex 1.7 1.2 0
      vertex 1.65 1 0
      vertex 1.26 1 0
    endloop
  endfacet
  facet normal 0 0 -1
    outer loop
      vertex 1.78 1.4 0
      vertex 1.7 1.2 0
      vertex 1.32 1.2 0
    endloop
  endfacet
  facet normal 0 0 -1
    outer loop
      vertex 1.89 1.6 0
      vertex 1.78 1.4 0
      vertex 1.41 1.4 0
    endloop
  endfacet
  facet normal 0 0 -1
    outer loop
      vertex 2.05 1.8 0
      vertex 1.89 1.6 0
      vertex 1.54 1.6 0
    endloop
  endfacet
  facet normal 0 0 -1
    outer loop
      vertex 2.5 2 0
      vertex 2.05 1.8 0
      vertex 1.73 1.8 0
    endloop
  endfacet
  facet normal 0 -0 -1
    outer loop
      vertex 2 0.2 0
      vertex 2 0 0
      vertex 1.6 0 0
    endloop
  endfacet
  facet normal 0 -0 -1
    outer loop
      vertex 2 0.4 0
      vertex 2 0.2 0
      vertex 1.6 0.2 0
    endloop
  endfacet
  facet normal 0 -0 -1
    outer loop
      vertex 2 0.6 0
      vertex 2 0.4 0
      vertex 1.6 0.4 0
    endloop
  endfacet
  facet normal 0 0 -1
    outer loop
      vertex 2.02 0.8 0
      vertex 2 0.6 0
      vertex 1.6 0.6 0
    endloop
  endfacet
  facet normal 0 0 -1
    outer loop
      vertex 2.04 1 0
      vertex 2.02 0.8 0
      vertex 1.62 0.8 0
    endloop
  endfacet
  facet normal 0 0 -1
    outer loop
      vertex 2.09 1.2 0
      vertex 2.04 1 0
      vertex 1.65 1 0
    endloop
  endfacet
  facet normal 0 0 -1
    outer loop
      vertex 2.15 1.4 0
      vertex 2.09 1.2 0
      vertex 1.7 1.2 0
    endloop
  endfacet
  facet normal 0 0 -1
    outer loop
      vertex 2.24 1.6 0
      vertex 2.15 1.4 0
      vertex 1.78 1.4 0
    endloop
  endfacet
  facet normal 0 0 -1
    outer loop
      vertex 2.38 1.8 0
      vertex 2.24 1.6 0
      vertex 1.89 1.6 0
    endloop
  endfacet
  facet normal 0 0 -1
    outer loop
      vertex 2.75 2 0
      vertex 2.38 1.8 0
      vertex 2.05 1.8 0
    endloop
  endfacet
  facet normal 0 -0 -1
    outer loop
      vertex 2.4 0.2 0
      vertex 2.4 0 0
      vertex 2 0 0
    endloop
  endfacet
  facet normal 0 -0 -1
    outer loop
      vertex 2.4 0.4 0
      vertex 2.4 0.2 0
      vertex 2 0.2 0
    endloop
  endfacet
  facet normal 0 -0 -1
    outer loop
      vertex 2.4 0.6 0
      vertex 2.4 0.4 0
      vertex 2 0.4 0
    endloop
  endfacet
  facet normal 0 0 -1
    outer loop
      vertex 2.41 0.8 0
      vertex 2.4 0.6 0
      vertex 2 0.6 0
    endloop
  endfacet
  facet normal 0 0 -1
    outer loop
      vertex 2.43 1 0
      vertex 2.41 0.8 0
      vertex 2.02 0.8 0
    endloop
  endfacet
  facet normal 0 0 -1
    outer loop
      vertex 2.47 1.2 0
      vertex 2.43 1 0
      vertex 2.04 1 0
    endloop
  endfacet
  facet normal 0 0 -1
    outer loop
      vertex 2.52 1.4 0
      vertex 2.47 1.2 0
      vertex 2.09 1.2 0
    endloop
  endfacet
  facet normal 0 0 -1
    outer loop
      vertex 2.59 1.6 0
      vertex 2.52 1.4 0
      vertex 2.15 1.4 0
    endloop
  endfacet
  facet normal 0 0 -1
    outer loop
      vertex 2.7 1.8 0
      vertex 2.59 1.6 0
      vertex 2.24 1.6 0
    endloop
  endfacet
  facet normal 0 0 -1
    outer loop
      vertex 3 2 0
      vertex 2.7 1.8 0
      vertex 2.38 1.8 0
    endloop
  endfacet
  facet normal 0 -0 -1
    outer loop
      vertex 2.8 0.2 0
      vertex 2.8 0 0
      vertex 2.4 0 0
    endloop
  endfacet
  facet normal 0 -0 -1
    outer loop
      vertex 2.8 0.4 0
      vertex 2.8 0.2 0
      vertex 2.4 0.2 0
    endloop
  endfacet
  facet normal 0 -0 -1
    outer loop
      vertex 2.8 0.6 0
      vertex 2.8 0.4 0
      vertex 2.4 0.4 0
    endloop
  endfacet
  facet normal 0 0 -1
    outer loop
      vertex 2.81 0.8 0
      vertex 2.8 0.6 0
      vertex 2.4 0.6 0
    endloop
  endfacet
  facet normal 0 0 -1
    outer loop
      vertex 2.83 1 0
      vertex 2.81 0.8 0
      vertex 2.41 0.8 0
    endloop
  endfacet
  facet normal 0 0 -1
    outer loop
      vertex 2.85 1.2 0
      vertex 2.83 1 0
      vertex 2.43 1 0
    endloop
  endfacet
  facet normal 0 0 -1
    outer loop
      vertex 2.89 1.4 0
      vertex 2.85 1.2 0
      vertex 2.47 1.2 0
    endloop
  endfacet
  facet normal 0 0 -1
    outer loop
      vertex 2.94 1.6 0
      vertex 2.89 1.4 0
      vertex 2.52 1.4 0
    endloop
  endfacet
  facet normal 0 0 -1
    outer loop
      vertex 3.03 1.8 0
      vertex 2.94 1.6 0
      vertex 2.59 1.6 0
    endloop
  endfacet
  facet normal 0 0 -1
    outer loop
      vertex 3.25 2 0
      vertex 3.03 1.8 0
      vertex 2.7 1.8 0
    endloop
  endfacet
  facet normal 0 -0 -1
    outer loop
      vertex 3.2 0.2 0
      vertex 3.2 0 0
      vertex 2.8 0 0
    endloop
  endfacet
  facet normal 0 -0 -1
    outer loop
      vertex 3.2 0.4 0
      vertex 3.2 0.2 0
      vertex 2.8 0.2 0
    endloop
  endfacet
  facet normal 0 -0 -1
    outer loop
      vertex 3.2 0.6 0
      vertex 3.2 0.4 0
      vertex 2.8 0.4 0
    endloop
  endfacet
  facet normal 0 0 -1
    outer loop
      vertex 3.21 0.8 0
      vertex 3.2 0.6 0
      vertex 2.8 0.6 0
    endloop
  endfacet
  facet normal 0 0 -1
    outer loop
      vertex 3.22 1 0
      vertex 3.21 0.8 0
      vertex 2.81 0.8 0
    endloop
  endfacet
  facet normal 0 0 -1
    outer loop
      vertex 3.23 1.2 0
      vertex 3.22 1 0
      vertex 2.83 1 0
    endloop
  endfacet
  facet normal 0 0 -1
    outer loop
      vertex 3.26 1.4 0
      vertex 3.23 1.2 0
      vertex 2.85 1.2 0
    endloop
  endfacet
  facet normal 0 0 -1
    outer loop
      vertex 3.3 1.6 0
      vertex 3.26 1.4 0
      vertex 2.89 1.4 0
    endloop
  endfacet
  facet normal 0 0 -1
    outer loop
      vertex 3.35 1.8 0
      vertex 3.3 1.6 0
      vertex 2.94 1.6 0
    endloop
  endfacet
  facet normal 0 0 -1
    outer loop
      vertex 3.5 2 0
      vertex 3.35 1.8 0
      vertex 3.03 1.8 0
    endloop
  endfacet
  facet normal 0 -0 -1
    outer loop
      vertex 3.6 0.2 0
      vertex 3.6 0 0
      vertex 3.2 0 0
    endloop
  endfacet
  facet normal 0 -0 -1
    outer loop
      vertex 3.6 0.4 0
      vertex 3.6 0.2 0
      vertex 3.2 0.2 0
    endloop
  endfacet
  facet normal 0 -0 -1
    outer loop
      vertex 3.6 0.6 0
      vertex 3.6 0.4 0
      vertex 3.2 0.4 0
    endloop
  endfacet
  facet normal 0 -0 -1
    outer loop
      vertex 3.6 0.8 0
      vertex 3.6 0.6 0
      vertex 3.2 0.6 0
    endloop
  endfacet
  facet normal 0 0 -1
    outer loop
      vertex 3.61 1 0
      vertex 3.6 0.8 0
      vertex 3.21 0.8 0
    endloop
  endfacet
  facet normal 0 0 -1
    outer loop
      vertex 3.62 1.2 0
      vertex 3.61 1 0
      vertex 3.22 1 0
    endloop
  endfacet
  facet normal 0 0 -1
    outer loop
      vertex 3.63 1.4 0
      vertex 3.62 1.2 0
      vertex 3.23 1.2 0
    endloop
  endfacet
  facet normal 0 0 -1
    outer loop
      vertex 3.65 1.6 0
      vertex 3.63 1.4 0
      vertex 3.26 1.4 0
    endloop
  endfacet
  facet normal 0 0 -1
    outer loop
      vertex 3.68 1.8 0
      vertex 3.65 1.6 0
      vertex 3.3 1.6 0
    endloop
  endfacet
  facet normal 0 0 -1
    outer loop
      vertex 3.75 2 0
      vertex 3.68 1.8 0
      vertex 3.35 1.8 0
    endloop
  endfacet
  facet normal 0 -0 -1
    outer loop
      vertex 4 0.2 0
      vertex 4 0 0
      vertex 3.6 0 0
    endloop
  endfacet
  facet normal 0 -0 -1
    outer loop
      vertex 4 0.4 0
      vertex 4 0.2 0
      vertex 3.6 0.2 0
    endloop
  endfacet
  facet normal 0 -0 -1
    outer loop
      vertex 4 0.6 0
      vertex 4 0.4 0
      vertex 3.6 0.4 0
    endloop
  endfacet
  facet normal 0 -0 -1
    outer loop
      vertex 4 0.8 0
      vertex 4 0.6 0
      vertex 3.6 0.6 0
    endloop
  endfacet
  facet normal 0 -0 -1
    outer loop
      vertex 4 1 0
      vertex 4 0.8 0
      vertex 3.6 0.8 0
    endloop
  endfacet
  facet normal 0 -0 -1
    outer loop
      vertex 4 1.2 0
      vertex 4 1 0
      vertex 3.61 1 0
    endloop
  endfacet
  facet normal 0 -0 -1
    outer loop
      vertex 4 1.4 0
      vertex 4 1.2 0
      vertex 3.62 1.2 0
    endloop
  endfacet
  facet normal 0 -0 -1
    outer loop
      vertex 4 1.6 0
      vertex 4 1.4 0
      vertex 3.63 1.4 0
    endloop
  endfacet
  facet normal 0 -0 -1
    outer loop
      vertex 4 1.8 0
      vertex 4 1.6 0
      vertex 3.65 1.6 0
    endloop
  endfacet
  facet normal 0 -0 -1
    outer loop
      vertex 4 2 0
      vertex 4 1.8 0
      vertex 3.68 1.8 0
    endloop
  endfacet
  facet normal 0 0 1
    outer loop
      vertex 0 0 -0.001
      vertex 0.4 0.2 -0.001
      vertex 0 0.2 -0.001
    endloop
  endfacet
  facet normal 0 0 1
    outer loop
      vertex 0 0.2 -0.001
      vertex 0.4 0.4 -0.001
      vertex 0 0.4 -0.001
    endloop
  endfacet
  facet normal 0 0 1
    outer loop
      vertex 0 0.4 -0.001
      vertex 0.4 0.6 -0.001
      vertex 0 0.6 -0.001
    endloop
  endfacet
  facet normal 0 0 1
    outer loop
      vertex 0 0.6 -0.001
      vertex 0.43 0.8 -0.001
      vertex 0.03 0.8 -0.001
    endloop
  endfacet
  facet normal 0 0 1
    outer loop
      vertex 0.03 0.8 -0.001
      vertex 0.48 1 -0.001
      vertex 0.09 1 -0.001
    endloop
  endfacet
  facet normal 0 0 1
    outer loop
      vertex 0.09 1 -0.001
      vertex 0.56 1.2 -0.001
      vertex 0.17 1.2 -0.001
    endloop
  endfacet
  facet normal 0 0 1
    outer loop
      vertex 0.17 1.2 -0.001
      vertex 0.67 1.4 -0.001
      vertex 0.3 1.4 -0.001
    endloop
  endfacet
  facet normal 0 0 1
    outer loop
      vertex 0.3 1.4 -0.001
      vertex 0.83 1.6 -0.001
      vertex 0.48 1.6 -0.001
    endloop
  endfacet
  facet normal 0 0 1
    outer loop
      vertex 0.48 1.6 -0.001
      vertex 1.08 1.8 -0.001
      vertex 0.75 1.8 -0.001
    endloop
  endfacet
  facet normal 0 0 1
    outer loop
      vertex 0.75 1.8 -0.001
      vertex 1.75 2 -0.001
      vertex 1.5 2 -0.001
    endloop
  endfacet
  facet normal 0 0 1
    outer loop
      vertex 0.4 0 -0.001
      vertex 0.8 0.2 -0.001
      vertex 0.4 0.2 -0.001
    endloop
  endfacet
  facet normal 0 0 1
    outer loop
      vertex 0.4 0.2 -0.001
      vertex 0.8 0.4 -0.001
      vertex 0.4 0.4 -0.001
    endloop
  endfacet
  facet normal 0 0 1
    outer loop
      vertex 0.4 0.4 -0.001
      vertex 0.8 0.6 -0.001
      vertex 0.4 0.6 -0.001
    endloop
  endfacet
  facet normal 0 0 1
    outer loop
      vertex 0.4 0.6 -0.001
      vertex 0.82 0.8 -0.001
      vertex 0.43 0.8 -0.001
    endloop
  endfacet
  facet normal 0 0 1
    outer loop
      vertex 0.43 0.8 -0.001
      vertex 0.87 1 -0.001
      vertex 0.48 1 -0.001
    endloop
  endfacet
  facet normal 0 0 1
    outer loop
      vertex 0.48 1 -0.001
      vertex 0.94 1.2 -0.001
      vertex 0.56 1.2 -0.001
    endloop
  endfacet
  facet normal 0 0 1
    outer loop
      vertex 0.56 1.2 -0.001
      vertex 1.04 1.4 -0.001
      vertex 0.67 1.4 -0.001
    endloop
  endfacet
  facet normal 0 0 1
    outer loop
      vertex 0.67 1.4 -0.001
      vertex 1.18 1.6 -0.001
      vertex 0.83 1.6 -0.001
    endloop
  endfacet
  facet normal 0 0 1
    outer loop
      vertex 0.83 1.6 -0.001
      vertex 1.4 1.8 -0.001
      vertex 1.08 1.8 -0.001
    endloop
  endfacet
  facet normal 0 0 1
    outer loop
      vertex 1.08 1.8 -0.001
      vertex 2 2 -0.001
      vertex 1.75 2 -0.001
    endloop
  endfacet
  facet normal 0 0 1
    outer loop
      vertex 0.8 0 -0.001
      vertex 1.2 0.2 -0.001
      vertex 0.8 0.2 -0.001
    endloop
  endfacet
  facet normal 0 0 1
    outer loop
      vertex 0.8 0.2 -0.001
      vertex 1.2 0.4 -0.001
      vertex 0.8 0.4 -0.001
    endloop
  endfacet
  facet normal 0 0 1
    outer loop
      vertex 0.8 0.4 -0.001
      vertex 1.2 0.6 -0.001
      vertex 0.8 0.6 -0.001
    endloop
  endfacet
  facet normal 0 0 1
    outer loop
      vertex 0.8 0.6 -0.001
      vertex 1.22 0.8 -0.001
      vertex 0.82 0.8 -0.001
    endloop
  endfacet
  facet normal 0 0 1
    outer loop
      vertex 0.82 0.8 -0.001
      vertex 1.26 1 -0.001
      vertex 0.87 1 -0.001
    endloop
  endfacet
  facet normal 0 0 1
    outer loop
      vertex 0.87 1 -0.001
      vertex 1.32 1.2 -0.001
      vertex 0.94 1.2 -0.001
    endloop
  endfacet
  facet normal 0 0 1
    outer loop
      vertex 0.94 1.2 -0.001
      vertex 1.41 1.4 -0.001
      vertex 1.04 1.4 -0.001
    endloop
  endfacet
  facet normal 0 0 1
    outer loop
      vertex 1.04 1.4 -0.001
      vertex 1.54 1.6 -0.001
      vertex 1.18 1.6 -0.001
    endloop
  endfacet
  facet normal 0 0 1
    outer loop
      vertex 1.18 1.6 -0.001
      vertex 1.73 1.8 -0.001
      vertex 1.4 1.8 -0.001
    endloop
  endfacet
  facet normal 0 0 1
    outer loop
      vertex 1.4 1.8 -0.001
      vertex 2.25 2 -0.001
      vertex 2 2 -0.001
    endloop
  endfacet
  facet normal 0 0 1
    outer loop
      vertex 1.2 0 -0.001
      vertex 1.6 0.2 -0.001
      vertex 1.2 0.2 -0.001
    endloop
  endfacet
  facet normal 0 0 1
    outer loop
      vertex 1.2 0.2 -0.001
      vertex 1.6 0.4 -0.001
      vertex 1.2 0.4 -0.001
    endloop
  endfacet
  facet normal 0 0 1
    outer loop
      vertex 1.2 0.4 -0.001
      vertex 1.6 0.6 -0.001
      vertex 1.2 0.6 -0.001
    endloop
  endfacet
  facet normal 0 0 1
    outer loop
      vertex 1.2 0.6 -0.001
      vertex 1.62 0.8 -0.001
      vertex 1.22 0.8 -0.001
    endloop
  endfacet
  facet normal 0 0 1
    outer loop
      vertex 1.22 0.8 -0.001
      vertex 1.65 1 -0.001
      vertex 1.26 1 -0.001
    endloop
  endfacet
  facet normal 0 0 1
    outer loop
      vertex 1.26 1 -0.001
      vertex 1.7 1.2 -0.001
      vertex 1.32 1.2 -0.001
    endloop
  endfacet
  facet normal 0 0 1
    outer loop
      vertex 1.32 1.2 -0.001
      vertex 1.78 1.4 -0.001
      vertex 1.41 1.4 -0.001
    endloop
  endfacet
  facet normal 0 0 1
    outer loop
      vertex 1.41 1.4 -0.001
      vertex 1.89 1.6 -0.001
      vertex 1.54 1.6 -0.001
    endloop
  endfacet
  facet normal 0 0 1
    outer loop
      vertex 1.54 1.6 -0.001
      vertex 2.05 1.8 -0.001
      vertex 1.73 1.8 -0.001
    endloop
  endfacet
  facet normal 0 0 1
    outer loop
      vertex 1.73 1.8 -0.001
      vertex 2.5 2 -0.001
      vertex 2.25 2 -0.001
    endloop
  endfacet
  facet normal 0 0 1
    outer loop
      vertex 1.6 0 -0.001
      vertex 2 0.2 -0.001
      vertex 1.6 0.2 -0.001
    endloop
  endfacet
  facet normal 0 0 1
    outer loop
      vertex 1.6 0.2 -0.001
      vertex 2 0.4 -0.001
      vertex 1.6 0.4 -0.001
    endloop
  endfacet
  facet normal 0 0 1
    outer loop
      vertex 1.6 0.4 -0.001
      vertex 2 0.6 -0.001
      vertex 1.6 0.6 -0.001
    endloop
  endfacet
  facet normal 0 0 1
    outer loop
      vertex 1.6 0.6 -0.001
      vertex 2.02 0.8 -0.001
      vertex 1.62 0.8 -0.001
    endloop
  endfacet
  facet normal 0 0 1
    outer loop
      vertex 1.62 0.8 -0.001
      vertex 2.04 1 -0.001
      vertex 1.65 1 -0.001
    endloop
  endfacet
  facet normal 0 0 1
    outer loop
      vertex 1.65 1 -0.001
      vertex 2.09 1.2 -0.001
      vertex 1.7 1.2 -0.001
    endloop
  endfacet
  facet normal 0 0 1
    outer loop
      vertex 1.7 1.2 -0.001
      vertex 2.15 1.4 -0.001
      vertex 1.78 1.4 -0.001
    endloop
  endfacet
  facet normal 0 0 1
    outer loop
      vertex 1.78 1.4 -0.001
      vertex 2.24 1.6 -0.001
      vertex 1.89 1.6 -0.001
    endloop
  endfacet
  facet normal 0 0 1
    outer loop
      vertex 1.89 1.6 -0.001
      vertex 2.38 1.8 -0.001
      vertex 2.05 1.8 -0.001
    endloop
  endfacet
  facet normal 0 0 1
    outer loop
      vertex 2.05 1.8 -0.001
      vertex 2.75 2 -0.001
      vertex 2.5 2 -0.001
    endloop
  endfacet
  facet normal 0 0 1
    outer loop
      vertex 2 0 -0.001
      vertex 2.4 0.2 -0.001
      vertex 2 0.2 -0.001
    endloop
  endfacet
  facet normal 0 0 1
    outer loop
      vertex 2 0.2 -0.001
      vertex 2.4 0.4 -0.001
      vertex 2 0.4 -0.001
    endloop
  endfacet
  facet normal 0 0 1
    outer loop
      vertex 2 0.4 -0.001
      vertex 2.4 0.6 -0.001
      vertex 2 0.6 -0.001
    endloop
  endfacet
  facet normal 0 0 1
    outer loop
      vertex 2 0.6 -0.001
      vertex 2.41 0.8 -0.001
      vertex 2.02 0.8 -0.001
    endloop
  endfacet
  facet normal 0 0 1
    outer loop
      vertex 2.02 0.8 -0.001
      vertex 2.43 1 -0.001
      vertex 2.04 1 -0.001
    endloop
  endfacet
  facet normal 0 0 1
    outer loop
      vertex 2.04 1 -0.001
      vertex 2.47 1.2 -0.001
      vertex 2.09 1.2 -0.001
    endloop
  endfacet
  facet normal 0 0 1
    outer loop
      vertex 2.09 1.2 -0.001
      vertex 2.52 1.4 -0.001
      vertex 2.15 1.4 -0.001
    endloop
  endfacet
  facet normal 0 0 1
    outer loop
      vertex 2.15 1.4 -0.001
      vertex 2.59 1.6 -0.001
      vertex 2.24 1.6 -0.001
    endloop
  endfacet
  facet normal 0 0 1
    outer loop
      vertex 2.24 1.6 -0.001
      vertex 2.7 1.8 -0.001
      vertex 2.38 1.8 -0.001
    endloop
  endfacet
  facet normal 0 0 1
    outer loop
      vertex 2.38 1.8 -0.001
      vertex 3 2 -0.001
      vertex 2.75 2 -0.001
    endloop
  endfacet
  facet normal 0 0 1
    outer loop
      vertex 2.4 0 -0.001
      vertex 2.8 0.2 -0.001
      vertex 2.4 0.2 -0.001
    endloop
  endfacet
  facet normal 0 0 1
    outer loop
      vertex 2.4 0.2 -0.001
      vertex 2.8 0.4 -0.001
      vertex 2.4 0.4 -0.001
    endloop
  endfacet
  facet normal 0 0 1
    outer loop
      vertex 2.4 0.4 -0.001
      vertex 2.8 0.6 -0.001
      vertex 2.4 0.6 -0.001
    endloop
  endfacet
  facet normal 0 0 1
    outer loop
      vertex 2.4 0.6 -0.001
      vertex 2.81 0.8 -0.001
      vertex 2.41 0.8 -0.001
    endloop
  endfacet
  facet normal 0 0 1
    outer loop
      vertex 2.41 0.8 -0.001
      vertex 2.83 1 -0.001
      vertex 2.43 1 -0.001
    endloop
  endfacet
  facet normal 0 0 1
    outer loop
      vertex 2.43 1 -0.001
      vertex 2.85 1.2 -0.001
      vertex 2.47 1.2 -0.001
    endloop
  endfacet
  facet normal 0 0 1
    outer loop
      vertex 2.47 1.2 -0.001
      vertex 2.89 1.4 -0.001
      vertex 2.52 1.4 -0.001
    endloop
  endfacet
  facet normal 0 0 1
    outer loop
      vertex 2.52 1.4 -0.001
      vertex 2.94 1.6 -0.001
      vertex 2.59 1.6 -0.001
    endloop
  endfacet
  facet normal 0 0 1
    outer loop
      vertex 2.59 1.6 -0.001
      vertex 3.03 1.8 -0.001
      vertex 2.7 1.8 -0.001
    endloop
  endfacet
  facet normal 0 0 1
    outer loop
      vertex 2.7 1.8 -0.001
      vertex 3.25 2 -0.001
      vertex 3 2 -0.001
    endloop
  endfacet
  facet normal 0 0 1
    outer loop
      vertex 2.8 0 -0.001
      vertex 3.2 0.2 -0.001
      vertex 2.8 0.2 -0.001
    endloop
  endfacet
  facet normal 0 0 1
    outer loop
      vertex 2.8 0.2 -0.001
      vertex 3.2 0.4 -0.001
      vertex 2.8 0.4 -0.001
    endloop
  endfacet
  facet normal 0 0 1
    outer loop
      vertex 2.8 0.4 -0.001
      vertex 3.2 0.6 -0.001
      vertex 2.8 0.6 -0.001
    endloop
  endfacet
  facet normal 0 0 1
    outer loop
      vertex 2.8 0.6 -0.001
      vertex 3.21 0.8 -0.001
      vertex 2.81 0.8 -0.001
    endloop
  endfacet
  facet normal 0 0 1
    outer loop
      vertex 2.81 0.8 -0.001
      vertex 3.22 1 -0.001
      vertex 2.83 1 -0.001
    endloop
  endfacet
  facet normal 0 0 1
    outer loop
      vertex 2.83 1 -0.001
      vertex 3.23 1.2 -0.001
      vertex 2.85 1.2 -0.001
    endloop
  endfacet
  facet normal 0 0 1
    outer loop
      vertex 2.85 1.2 -0.001
      vertex 3.26 1.4 -0.001
      vertex 2.89 1.4 -0.001
    endloop
  endfacet
  facet normal 0 0 1
    outer loop
      vertex 2.89 1.4 -0.001
      vertex 3.3 1.6 -0.001
      vertex 2.94 1.6 -0.001
    endloop
  endfacet
  facet normal 0 0 1
    outer loop
      vertex 2.94 1.6 -0.001
      vertex 3.35 1.8 -0.001
      vertex 3.03 1.8 -0.001
    endloop
  endfacet
  facet normal 0 0 1
    outer loop
      vertex 3.03 1.8 -0.001
      vertex 3.5 2 -0.001
      vertex 3.25 2 -0.001
    endloop
  endfacet
  facet normal 0 0 1
    outer loop
      vertex 3.2 0 -0.001
      vertex 3.6 0.2 -0.001
      vertex 3.2 0.2 -0.001
    endloop
  endfacet
  facet normal 0 0 1
    outer loop
      vertex 3.2 0.2 -0.001
      vertex 3.6 0.4 -0.001
      vertex 3.2 0.4 -0.001
    endloop
  endfacet
  facet normal 0 0 1
    outer loop
      vertex 3.2 0.4 -0.001
      vertex 3.6 0.6 -0.001
      vertex 3.2 0.6 -0.001
    endloop
  endfacet
  facet normal 0 0 1
    outer loop
      vertex 3.2 0.6 -0.001
      vertex 3.6 0.8 -0.001
      vertex 3.21 0.8 -0.001
    endloop
  endfacet
  facet normal 0 0 1
    outer loop
      vertex 3.21 0.8 -0.001
      vertex 3.61 1 -0.001
      vertex 3.22 1 -0.001
    endloop
  endfacet
  facet normal 0 0 1
    outer loop
      vertex 3.22 1 -0.001
      vertex 3.62 1.2 -0.001
      vertex 3.23 1.2 -0.001
    endloop
  endfacet
  facet normal 0 0 1
    outer loop
      vertex 3.23 1.2 -0.001
      vertex 3.63 1.4 -0.001
      vertex 3.26 1.4 -0.001
    endloop
  endfacet
  facet normal 0 0 1
    outer loop
      vertex 3.26 1.4 -0.001
      vertex 3.65 1.6 -0.001
      vertex 3.3 1.6 -0.001
    endloop
  endfacet
  facet normal 0 0 1
    outer loop
      vertex 3.3 1.6 -0.001
      vertex 3.68 1.8 -0.001
      vertex 3.35 1.8 -0.001
    endloop
  endfacet
  facet normal 0 0 1
    outer loop
      vertex 3.35 1.8 -0.001
      vertex 3.75 2 -0.001
      vertex 3.5 2 -0.001
    endloop
  endfacet
  facet normal 0 0 1
    outer loop
      vertex 3.6 0 -0.001
      vertex 4 0.2 -0.001
      vertex 3.6 0.2 -0.001
    endloop
  endfacet
  facet normal 0 0 1
    outer loop
      vertex 3.6 0.2 -0.001
      vertex 4 0.4 -0.001
      vertex 3.6 0.4 -0.001
    endloop
  endfacet
  facet normal 0 0 1
    outer loop
      vertex 3.6 0.4 -0.001
      vertex 4 0.6 -0.001
      vertex 3.6 0.6 -0.001
    endloop
  endfacet
  facet normal 0 0 1
    outer loop
      vertex 3.6 0.6 -0.001
      vertex 4 0.8 -0.001
      vertex 3.6 0.8 -0.001
    endloop
  endfacet
  facet normal 0 0 1
    outer loop
      vertex 3.6 0.8 -0.001
      vertex 4 1 -0.001
      vertex 3.61 1 -0.001
    endloop
  endfacet
  facet normal 0 0 1
    outer loop
      vertex 3.61 1 -0.001
      vertex 4 1.2 -0.001
      vertex 3.62 1.2 -0.001
    endloop
  endfacet
  facet normal 0 0 1
    outer loop
      vertex 3.62 1.2 -0.001
      vertex 4 1.4 -0.001
      vertex 3.63 1.4 -0.001
    endloop
  endfacet
  facet normal 0 0 1
    outer loop
      vertex 3.63 1.4 -0.001
      vertex 4 1.6 -0.001
      vertex 3.65 1.6 -0.001
    endloop
  endfacet
  facet normal 0 0 1
    outer loop
      vertex 3.65 1.6 -0.001
      vertex 4 1.8 -0.001
      vertex 3.68 1.8 -0.001
    endloop
  endfacet
  facet normal 0 0 1
    outer loop
      vertex 3.68 1.8 -0.001
      vertex 4 2 -0.001
      vertex 3.75 2 -0.001
    endloop
  endfacet
  facet normal 0 0 1
    outer loop
      vertex 0 0 -0.001
      vertex 0.4 0 -0.001
      vertex 0.4 0.2 -0.001
    endloop
  endfacet
  facet normal 0 0 1
    outer loop
      vertex 0 0.2 -0.001
      vertex 0.4 0.2 -0.001
      vertex 0.4 0.4 -0.001
    endloop
  endfacet
  facet normal 0 0 1
    outer loop
      vertex 0 0.4 -0.001
      vertex 0.4 0.4 -0.001
      vertex 0.4 0.6 -0.001
    endloop
  endfacet
  facet normal 0 0 1
    outer loop
      vertex 0 0.6 -0.001
      vertex 0.4 0.6 -0.001
      vertex 0.43 0.8 -0.001
    endloop
  endfacet
  facet normal 0 0 1
    outer loop
      vertex 0.03 0.8 -0.001
      vertex 0.43 0.8 -0.001
      vertex 0.48 1 -0.001
    endloop
  endfacet
  facet normal 0 0 1
    outer loop
      vertex 0.09 1 -0.001
      vertex 0.48 1 -0.001
      vertex 0.56 1.2 -0.001
    endloop
  endfacet
  facet normal 0 0 1
    outer loop
      vertex 0.17 1.2 -0.001
      vertex 0.56 1.2 -0.001
      vertex 0.67 1.4 -0.001
    endloop
  endfacet
  facet normal 0 0 1
    outer loop
      vertex 0.3 1.4 -0.001
      vertex 0.67 1.4 -0.001
      vertex 0.83 1.6 -0.001
    endloop
  endfacet
  facet normal 0 0 1
    outer loop
      vertex 0.48 1.6 -0.001
      vertex 0.83 1.6 -0.001
      vertex 1.08 1.8 -0.001
    endloop
  endfacet
  facet normal 0 0 1
    outer loop
      vertex 0.75 1.8 -0.001
      vertex 1.08 1.8 -0.001
      vertex 1.75 2 -0.001
    endloop
  endfacet
  facet normal 0 0 1
    outer loop
      vertex 0.4 0 -0.001
      vertex 0.8 0 -0.001
      vertex 0.8 0.2 -0.001
    endloop
  endfacet
  facet normal 0 0 1
    outer loop
      vertex 0.4 0.2 -0.001
      vertex 0.8 0.2 -0.001
      vertex 0.8 0.4 -0.001
    endloop
  endfacet
  facet normal 0 0 1
    outer loop
      vertex 0.4 0.4 -0.001
      vertex 0.8 0.4 -0.001
      vertex 0.8 0.6 -0.001
    endloop
  endfacet
  facet normal 0 0 1
    outer loop
      vertex 0.4 0.6 -0.001
      vertex 0.8 0.6 -0.001
      vertex 0.82 0.8 -0.001
    endloop
  endfacet
  facet normal 0 0 1
    outer loop
      vertex 0.43 0.8 -0.001
      vertex 0.82 0.8 -0.001
      vertex 0.87 1 -0.001
    endloop
  endfacet
  facet normal 0 0 1
    outer loop
      vertex 0.48 1 -0.001
      vertex 0.87 1 -0.001
      vertex 0.94 1.2 -0.001
    endloop
  endfacet
  facet normal 0 0 1
    outer loop
      vertex 0.56 1.2 -0.001
      vertex 0.94 1.2 -0.001
      vertex 1.04 1.4 -0.001
    endloop
  endfacet
  facet normal 0 0 1
    outer loop
      vertex 0.67 1.4 -0.001
      vertex 1.04 1.4 -0.001
      vertex 1.18 1.6 -0.001
    endloop
  endfacet
  facet normal 0 0 1
    outer loop
      vertex 0.83 1.6 -0.001
      vertex 1.18 1.6 -0.001
      vertex 1.4 1.8 -0.001
    endloop
  endfacet
  facet normal 0 0 1
    outer loop
      vertex 1.08 1.8 -0.001
      vertex 1.4 1.8 -0.001
      vertex 2 2 -0.001
    endloop
  endfacet
  facet normal 0 0 1
    outer loop
      vertex 0.8 0 -0.001
      vertex 1.2 0 -0.001
      vertex 1.2 0.2 -0.001
    endloop
  endfacet
  facet normal 0 0 1
    outer loop
      vertex 0.8 0.2 -0.001
      vertex 1.2 0.2 -0.001
      vertex 1.2 0.4 -0.001
    endloop
  endfacet
  facet normal 0 0 1
    outer loop
      vertex 0.8 0.4 -0.001
      vertex 1.2 0.4 -0.001
      vertex 1.2 0.6 -0.001
    endloop
  endfacet
  facet normal 0 0 1
    outer loop
      vertex 0.8 0.6 -0.001
      vertex 1.2 0.6 -0.001
      vertex 1.22 0.8 -0.001
    endloop
  endfacet
  facet normal 0 0 1
    outer loop
      vertex 0.82 0.8 -0.001
      vertex 1.22 0.8 -0.001
      vertex 1.26 1 -0.001
    endloop
  endfacet
  facet normal 0 0 1
    outer loop
      vertex 0.87 1 -0.001
      vertex 1.26 1 -0.001
      vertex 1.32 1.2 -0.001
    endloop
  endfacet
  facet normal 0 0 1
    outer loop
      vertex 0.94 1.2 -0.001
      vertex 1.32 1.2 -0.001
      vertex 1.41 1.4 -0.001
    endloop
  endfacet
  facet normal 0 0 1
    outer loop
      vertex 1.04 1.4 -0.001
      vertex 1.41 1.4 -0.001
      vertex 1.54 1.6 -0.001
    endloop
  endfacet
  facet normal 0 0 1
    outer loop
      vertex 1.18 1.6 -0.001
      vertex 1.54 1.6 -0.001
      vertex 1.73 1.8 -0.001
    endloop
  endfacet
  facet normal 0 0 1
    outer loop
      vertex 1.4 1.8 -0.001
      vertex 1.73 1.8 -0.001
      vertex 2.25 2 -0.001
    endloop
  endfacet
  facet normal 0 0 1
    outer loop
      vertex 1.2 0 -0.001
      vertex 1.6 0 -0.001
      vertex 1.6 0.2 -0.001
    endloop
  endfacet
  facet normal 0 0 1
    outer loop
      vertex 1.2 0.2 -0.001
      vertex 1.6 0.2 -0.001
      vertex 1.6 0.4 -0.001
    endloop
  endfacet
  facet normal 0 0 1
    outer loop
      vertex 1.2 0.4 -0.001
      vertex 1.6 0.4 -0.001
      vertex 1.6 0.6 -0.001
    endloop
  endfacet
  facet normal 0 0 1
    outer loop
      vertex 1.2 0.6 -0.001
      vertex 1.6 0.6 -0.001
      vertex 1.62 0.8 -0.001
    endloop
  endfacet
  facet normal 0 0 1
    outer loop
      vertex 1.22 0.8 -0.001
      vertex 1.62 0.8 -0.001
      vertex 1.65 1 -0.001
    endloop
  endfacet
  facet normal 0 0 1
    outer loop
      vertex 1.26 1 -0.001
      vertex 1.65 1 -0.001
      vertex 1.7 1.2 -0.001
    endloop
  endfacet
  facet normal 0 0 1
    outer loop
      vertex 1.32 1.2 -0.001
      vertex 1.7 1.2 -0.001
      vertex 1.78 1.4 -0.001
    endloop
  endfacet
  facet normal 0 0 1
    outer loop
      vertex 1.41 1.4 -0.001
      vertex 1.78 1.4 -0.001
      vertex 1.89 1.6 -0.001
    endloop
  endfacet
  facet normal 0 0 1
    outer loop
      vertex 1.54 1.6 -0.001
      vertex 1.89 1.6 -0.001
      vertex 2.05 1.8 -0.001
    endloop
  endfacet
  facet normal 0 0 1
    outer loop
      vertex 1.73 1.8 -0.001
      vertex 2.05 1.8 -0.001
      vertex 2.5 2 -0.001
    endloop
  endfacet
  facet normal 0 0 1
    outer loop
      vertex 1.6 0 -0.001
      vertex 2 0 -0.001
      vertex 2 0.2 -0.001
    endloop
  endfacet
  facet normal 0 0 1
    outer loop
      vertex 1.6 0.2 -0.001
      vertex 2 0.2 -0.001
      vertex 2 0.4 -0.001
    endloop
  endfacet
  facet normal 0 0 1
    outer loop
      vertex 1.6 0.4 -0.001
      vertex 2 0.4 -0.001
      vertex 2 0.6 -0.001
    endloop
  endfacet
  facet normal 0 0 1
    outer loop
      vertex 1.6 0.6 -0.001
      vertex 2 0.6 -0.001
      vertex 2.02 0.8 -0.001
    endloop
  endfacet
  facet normal 0 0 1
    outer loop
      vertex 1.62 0.8 -0.001
      vertex 2.02 0.8 -0.001
      vertex 2.04 1 -0.001
    endloop
  endfacet
  facet normal 0 0 1
    outer loop
      vertex 1.65 1 -0.001
      vertex 2.04 1 -0.001
      vertex 2.09 1.2 -0.001
    endloop
  endfacet
  facet normal 0 0 1
    outer loop
      vertex 1.7 1.2 -0.001
      vertex 2.09 1.2 -0.001
      vertex 2.15 1.4 -0.001
    endloop
  endfacet
  facet normal 0 0 1
    outer loop
      vertex 1.78 1.4 -0.001
      vertex 2.15 1.4 -0.001
      vertex 2.24 1.6 -0.001
    endloop
  endfacet
  facet normal 0 0 1
    outer loop
      vertex 1.89 1.6 -0.001
      vertex 2.24 1.6 -0.001
      vertex 2.38 1.8 -0.001
    endloop
  endfacet
  facet normal 0 0 1
    outer loop
      vertex 2.05 1.8 -0.001
      vertex 2.38 1.8 -0.001
      vertex 2.75 2 -0.001
    endloop
  endfacet
  facet normal 0 0 1
    outer loop
      vertex 2 0 -0.001
      vertex 2.4 0 -0.001
      vertex 2.4 0.2 -0.001
    endloop
  endfacet
  facet normal 0 0 1
    outer loop
      vertex 2 0.2 -0.001
      vertex 2.4 0.2 -0.001
      vertex 2.4 0.4 -0.001
    endloop
  endfacet
  facet normal 0 0 1
    outer loop
      vertex 2 0.4 -0.001
      vertex 2.4 0.4 -0.001
      vertex 2.4 0.6 -0.001
    endloop
  endfacet
  facet normal 0 0 1
    outer loop
      vertex 2 0.6 -0.001
      vertex 2.4 0.6 -0.001
      vertex 2.41 0.8 -0.001
    endloop
  endfacet
  facet normal 0 0 1
    outer loop
      vertex 2.02 0.8 -0.001
      vertex 2.41 0.8 -0.001
      vertex 2.43 1 -0.001
    endloop
  endfacet
  facet normal 0 0 1
    outer loop
      vertex 2.04 1 -0.001
      vertex 2.43 1 -0.001
      vertex 2.47 1.2 -0.001
    endloop
  endfacet
  facet normal 0 0 1
    outer loop
      vertex 2.09 1.2 -0.001
      vertex 2.47 1.2 -0.001
      vertex 2.52 1.4 -0.001
    endloop
  endfacet
  facet normal 0 0 1
    outer loop
      vertex 2.15 1.4 -0.001
      vertex 2.52 1.4 -0.001
      vertex 2.59 1.6 -0.001
    endloop
  endfacet
  facet normal 0 0 1
    outer loop
      vertex 2.24 1.6 -0.001
      vertex 2.59 1.6 -0.001
      vertex 2.7 1.8 -0.001
    endloop
  endfacet
  facet normal 0 0 1
    outer loop
      vertex 2.38 1.8 -0.001
      vertex 2.7 1.8 -0.001
      vertex 3 2 -0.001
    endloop
  endfacet
  facet normal 0 0 1
    outer loop
      vertex 2.4 0 -0.001
      vertex 2.8 0 -0.001
      vertex 2.8 0.2 -0.001
    endloop
  endfacet
  facet normal 0 0 1
    outer loop
      vertex 2.4 0.2 -0.001
      vertex 2.8 0.2 -0.001
      vertex 2.8 0.4 -0.001
    endloop
  endfacet
  facet normal 0 0 1
    outer loop
      vertex 2.4 0.4 -0.001
      vertex 2.8 0.4 -0.001
      vertex 2.8 0.6 -0.001
    endloop
  endfacet
  facet normal 0 0 1
    outer loop
      vertex 2.4 0.6 -0.001
      vertex 2.8 0.6 -0.001
      vertex 2.81 0.8 -0.001
    endloop
  endfacet
  facet normal 0 0 1
    outer loop
      vertex 2.41 0.8 -0.001
      vertex 2.81 0.8 -0.001
      vertex 2.83 1 -0.001
    endloop
  endfacet
  facet normal 0 0 1
    outer loop
      vertex 2.43 1 -0.001
      vertex 2.83 1 -0.001
      vertex 2.85 1.2 -0.001
    endloop
  endfacet
  facet normal 0 0 1
    outer loop
      vertex 2.47 1.2 -0.001
      vertex 2.85 1.2 -0.001
      vertex 2.89 1.4 -0.001
    endloop
  endfacet
  facet normal 0 0 1
    outer loop
      vertex 2.52 1.4 -0.001
      vertex 2.89 1.4 -0.001
      vertex 2.94 1.6 -0.001
    endloop
  endfacet
  facet normal 0 0 1
    outer loop
      vertex 2.59 1.6 -0.001
      vertex 2.94 1.6 -0.001
      vertex 3.03 1.8 -0.001
    endloop
  endfacet
  facet normal 0 0 1
    outer loop
      vertex 2.7 1.8 -0.001
      vertex 3.03 1.8 -0.001
      vertex 3.25 2 -0.001
    endloop
  endfacet
  facet normal 0 0 1
    outer loop
      vertex 2.8 0 -0.001
      vertex 3.2 0 -0.001
      vertex 3.2 0.2 -0.001
    endloop
  endfacet
  facet normal 0 0 1
    outer loop
      vertex 2.8 0.2 -0.001
      vertex 3.2 0.2 -0.001
      vertex 3.2 0.4 -0.001
    endloop
  endfacet
  facet normal 0 0 1
    outer loop
      vertex 2.8 0.4 -0.001
      vertex 3.2 0.4 -0.001
      vertex 3.2 0.6 -0.001
    endloop
  endfacet
  facet normal 0 0 1
    outer loop
      vertex 2.8 0.6 -0.001
      vertex 3.2 0.6 -0.001
      vertex 3.21 0.8 -0.001
    endloop
  endfacet
  facet normal 0 0 1
    outer loop
      vertex 2.81 0.8 -0.001
      vertex 3.21 0.8 -0.001
      vertex 3.22 1 -0.001
    endloop
  endfacet
  facet normal 0 0 1
    outer loop
      vertex 2.83 1 -0.001
      vertex 3.22 1 -0.001
      vertex 3.23 1.2 -0.001
    endloop
  endfacet
  facet normal 0 0 1
    outer loop
      vertex 2.85 1.2 -0.001
      vertex 3.23 1.2 -0.001
      vertex 3.26 1.4 -0.001
    endloop
  endfacet
  facet normal 0 0 1
    outer loop
      vertex 2.89 1.4 -0.001
      vertex 3.26 1.4 -0.001
      vertex 3.3 1.6 -0.001
    endloop
  endfacet
  facet normal 0 0 1
    outer loop
      vertex 2.94 1.6 -0.001
      vertex 3.3 1.6 -0.001
      vertex 3.35 1.8 -0.001
    endloop
  endfacet
  facet normal 0 0 1
    outer loop
      vertex 3.03 1.8 -0.001
      vertex 3.35 1.8 -0.001
      vertex 3.5 2 -0.001
    endloop
  endfacet
  facet normal 0 0 1
    outer loop
      vertex 3.2 0 -0.001
      vertex 3.6 0 -0.001
      vertex 3.6 0.2 -0.001
    endloop
  endfacet
  facet normal 0 0 1
    outer loop
      vertex 3.2 0.2 -0.001
      vertex 3.6 0.2 -0.001
      vertex 3.6 0.4 -0.001
    endloop
  endfacet
  facet normal 0 0 1
    outer loop
      vertex 3.2 0.4 -0.001
      vertex 3.6 0.4 -0.001
      vertex 3.6 0.6 -0.001
    endloop
  endfacet
  facet normal 0 0 1
    outer loop
      vertex 3.2 0.6 -0.001
      vertex 3.6 0.6 -0.001
      vertex 3.6 0.8 -0.001
    endloop
  endfacet
  facet normal 0 0 1
    outer loop
      vertex 3.21 0.8 -0.001
      vertex 3.6 0.8 -0.001
      vertex 3.61 1 -0.001
    endloop
  endfacet
  facet normal 0 0 1
    outer loop
      vertex 3.22 1 -0.001
      vertex 3.61 1 -0.001
      vertex 3.62 1.2 -0.001
    endloop
  endfacet
  facet normal 0 0 1
    outer loop
      vertex 3.23 1.2 -0.001
      vertex 3.62 1.2 -0.001
      vertex 3.63 1.4 -0.001
    endloop
  endfacet
  facet normal 0 0 1
    outer loop
      vertex 3.26 1.4 -0.001
      vertex 3.63 1.4 -0.001
      vertex 3.65 1.6 -0.001
    endloop
  endfacet
  facet normal 0 0 1
    outer loop
      vertex 3.3 1.6 -0.001
      vertex 3.65 1.6 -0.001
      vertex 3.68 1.8 -0.001
    endloop
  endfacet
  facet normal 0 0 1
    outer loop
      vertex 3.35 1.8 -0.001
      vertex 3.68 1.8 -0.001
      vertex 3.75 2 -0.001
    endloop
  endfacet
  facet normal 0 0 1
    outer loop
      vertex 3.6 0 -0.001
      vertex 4 0 -0.001
      vertex 4 0.2 -0.001
    endloop
  endfacet
  facet normal 0 0 1
    outer loop
      vertex 3.6 0.2 -0.001
      vertex 4 0.2 -0.001
      vertex 4 0.4 -0.001
    endloop
  endfacet
  facet normal 0 0 1
    outer loop
      vertex 3.6 0.4 -0.001
      vertex 4 0.4 -0.001
      vertex 4 0.6 -0.001
    endloop
  endfacet
  facet normal 0 0 1
    outer loop
      vertex 3.6 0.6 -0.001
      vertex 4 0.6 -0.001
      vertex 4 0.8 -0.001
    endloop
  endfacet
  facet normal 0 0 1
    outer loop
      vertex 3.6 0.8 -0.001
      vertex 4 0.8 -0.001
      vertex 4 1 -0.001
    endloop
  endfacet
  facet normal 0 0 1
    outer loop
      vertex 3.61 1 -0.001
      vertex 4 1 -0.001
      vertex 4 1.2 -0.001
    endloop
  endfacet
  facet normal 0 0 1
    outer loop
      vertex 3.62 1.2 -0.001
      vertex 4 1.2 -0.001
      vertex 4 1.4 -0.001
    endloop
  endfacet
  facet normal 0 0 1
    outer loop
      vertex 3.63 1.4 -0.001
      vertex 4 1.4 -0.001
      vertex 4 1.6 -0.001
    endloop
  endfacet
  facet normal 0 0 1
    outer loop
      vertex 3.65 1.6 -0.001
      vertex 4 1.6 -0.001
      vertex 4 1.8 -0.001
    endloop
  endfacet
  facet normal 0 0 1
    outer loop
      vertex 3.68 1.8 -0.001
      vertex 4 1.8 -0.001
      vertex 4 2 -0.001
    endloop
  endfacet
  facet normal 1 -0 0
    outer loop
      vertex 0 0 0
      vertex 0 0.2 -0.001
      vertex 0 0.2 0
    endloop
  endfacet
  facet normal 1 0 0
    outer loop
      vertex 0 0.2 -0.001
      vertex 0 0 0
      vertex 0 0 -0.001
    endloop
  endfacet
  facet normal 1 -0 0
    outer loop
      vertex 0 0.2 0
      vertex 0 0.4 -0.001
      vertex 0 0.4 0
    endloop
  endfacet
  facet normal 1 0 0
    outer loop
      vertex 0 0.4 -0.001
      vertex 0 0.2 0
      vertex 0 0.2 -0.001
    endloop
  endfacet
  facet normal 1 -0 0
    outer loop
      vertex 0 0.4 0
      vertex 0 0.6 -0.001
      vertex 0 0.6 0
    endloop
  endfacet
  facet normal 1 0 0
    outer loop
      vertex 0 0.6 -0.001
      vertex 0 0.4 0
      vertex 0 0.4 -0.001
    endloop
  endfacet
  facet normal 0.988936 -0.14834 0
    outer loop
      vertex 0 0.6 0
      vertex 0.03 0.8 -0.001
      vertex 0.03 0.8 0
    endloop
  endfacet
  facet normal 0.988936 -0.14834 0
    outer loop
      vertex 0.03 0.8 -0.001
      vertex 0 0.6 0
      vertex 0 0.6 -0.001
    endloop
  endfacet
  facet normal 0.957826 -0.287348 0
    outer loop
      vertex 0.03 0.8 0
      vertex 0.09 1 -0.001
      vertex 0.09 1 0
    endloop
  endfacet
  facet normal 0.957826 -0.287348 0
    outer loop
      vertex 0.09 1 -0.001
      vertex 0.03 0.8 0
      vertex 0.03 0.8 -0.001
    endloop
  endfacet
  facet normal 0.928477 -0.371391 0
    outer loop
      vertex 0.09 1 0
      vertex 0.17 1.2 -0.001
      vertex 0.17 1.2 0
    endloop
  endfacet
  facet normal 0.928477 -0.371391 0
    outer loop
      vertex 0.17 1.2 -0.001
      vertex 0.09 1 0
      vertex 0.09 1 -0.001
    endloop
  endfacet
  facet normal 0.838444 -0.544988 0
    outer loop
      vertex 0.17 1.2 0
      vertex 0.3 1.4 -0.001
      vertex 0.3 1.4 0
    endloop
  endfacet
  facet normal 0.838444 -0.544988 0
    outer loop
      vertex 0.3 1.4 -0.001
      vertex 0.17 1.2 0
      vertex 0.17 1.2 -0.001
    endloop
  endfacet
  facet normal 0.743294 -0.668965 0
    outer loop
      vertex 0.3 1.4 0
      vertex 0.48 1.6 -0.001
      vertex 0.48 1.6 0
    endloop
  endfacet
  facet normal 0.743294 -0.668965 0
    outer loop
      vertex 0.48 1.6 -0.001
      vertex 0.3 1.4 0
      vertex 0.3 1.4 -0.001
    endloop
  endfacet
  facet normal 0.595228 -0.803557 0
    outer loop
      vertex 0.48 1.6 -0.001
      vertex 0.75 1.8 0
      vertex 0.48 1.6 0
    endloop
  endfacet
  facet normal 0.595228 -0.803557 0
    outer loop
      vertex 0.75 1.8 0
      vertex 0.48 1.6 -0.001
      vertex 0.75 1.8 -0.001
    endloop
  endfacet
  facet normal 0.257663 -0.966235 0
    outer loop
      vertex 0.75 1.8 -0.001
      vertex 1.5 2 0
      vertex 0.75 1.8 0
    endloop
  endfacet
  facet normal 0.257663 -0.966235 0
    outer loop
      vertex 1.5 2 0
      vertex 0.75 1.8 -0.001
      vertex 1.5 2 -0.001
    endloop
  endfacet
  facet normal 0 -1 0
    outer loop
      vertex 1.5 2 -0.001
      vertex 1.75 2 0
      vertex 1.5 2 0
    endloop
  endfacet
  facet normal 0 -1 -0
    outer loop
      vertex 1.75 2 0
      vertex 1.5 2 -0.001
      vertex 1.75 2 -0.001
    endloop
  endfacet
  facet normal 0 -1 0
    outer loop
      vertex 1.75 2 -0.001
      vertex 2 2 0
      vertex 1.75 2 0
    endloop
  endfacet
  facet normal 0 -1 -0
    outer loop
      vertex 2 2 0
      vertex 1.75 2 -0.001
      vertex 2 2 -0.001
    endloop
  endfacet
  facet normal 0 -1 0
    outer loop
      vertex 2 2 -0.001
      vertex 2.25 2 0
      vertex 2 2 0
    endloop
  endfacet
  facet normal 0 -1 -0
    outer loop
      vertex 2.25 2 0
      vertex 2 2 -0.001
      vertex 2.25 2 -0.001
    endloop
  endfacet
  facet normal 0 -1 0
    outer loop
      vertex 2.25 2 -0.001
      vertex 2.5 2 0
      vertex 2.25 2 0
    endloop
  endfacet
  facet normal 0 -1 -0
    outer loop
      vertex 2.5 2 0
      vertex 2.25 2 -0.001
      vertex 2.5 2 -0.001
    endloop
  endfacet
  facet normal 0 -1 0
    outer loop
      vertex 2.5 2 -0.001
      vertex 2.75 2 0
      vertex 2.5 2 0
    endloop
  endfacet
  facet normal 0 -1 -0
    outer loop
      vertex 2.75 2 0
      vertex 2.5 2 -0.001
      vertex 2.75 2 -0.001
    endloop
  endfacet
  facet normal 0 -1 0
    outer loop
      vertex 2.75 2 -0.001
      vertex 3 2 0
      vertex 2.75 2 0
    endloop
  endfacet
  facet normal 0 -1 -0
    outer loop
      vertex 3 2 0
      vertex 2.75 2 -0.001
      vertex 3 2 -0.001
    endloop
  endfacet
  facet normal 0 -1 0
    outer loop
      vertex 3 2 -0.001
      vertex 3.25 2 0
      vertex 3 2 0
    endloop
  endfacet
  facet normal 0 -1 -0
    outer loop
      vertex 3.25 2 0
      vertex 3 2 -0.001
      vertex 3.25 2 -0.001
    endloop
  endfacet
  facet normal 0 -1 0
    outer loop
      vertex 3.25 2 -0.001
      vertex 3.5 2 0
      vertex 3.25 2 0
    endloop
  endfacet
  facet normal 0 -1 -0
    outer loop
      vertex 3.5 2 0
      vertex 3.25 2 -0.001
      vertex 3.5 2 -0.001
    endloop
  endfacet
  facet normal 0 -1 0
    outer loop
      vertex 3.5 2 -0.001
      vertex 3.75 2 0
      vertex 3.5 2 0
    endloop
  endfacet
  facet normal 0 -1 -0
    outer loop
      vertex 3.75 2 0
      vertex 3.5 2 -0.001
      vertex 3.75 2 -0.001
    endloop
  endfacet
  facet normal 0 -1 0
    outer loop
      vertex 3.75 2 -0.001
      vertex 4 2 0
      vertex 3.75 2 0
    endloop
  endfacet
  facet normal 0 -1 -0
    outer loop
      vertex 4 2 0
      vertex 3.75 2 -0.001
      vertex 4 2 -0.001
    endloop
  endfacet
  facet normal -1 0 0
    outer loop
      vertex 4 0 -0.001
      vertex 4 0.2 0
      vertex 4 0.2 -0.001
    endloop
  endfacet
  facet normal -1 -0 0
    outer loop
      vertex 4 0.2 0
      vertex 4 0 -0.001
      vertex 4 0 0
    endloop
  endfacet
  facet normal -1 0 0
    outer loop
      vertex 4 0.2 -0.001
      vertex 4 0.4 0
      vertex 4 0.4 -0.001
    endloop
  endfacet
  facet normal -1 -0 0
    outer loop
      vertex 4 0.4 0
      vertex 4 0.2 -0.001
      vertex 4 0.2 0
    endloop
  endfacet
  facet normal -1 0 0
    outer loop
      vertex 4 0.4 -0.001
      vertex 4 0.6 0
      vertex 4 0.6 -0.001
    endloop
  endfacet
  facet normal -1 -0 0
    outer loop
      vertex 4 0.6 0
      vertex 4 0.4 -0.001
      vertex 4 0.4 0
    endloop
  endfacet
  facet normal -1 0 0
    outer loop
      vertex 4 0.6 -0.001
      vertex 4 0.8 0
      vertex 4 0.8 -0.001
    endloop
  endfacet
  facet normal -1 -0 0
    outer loop
      vertex 4 0.8 0
      vertex 4 0.6 -0.001
      vertex 4 0.6 0
    endloop
  endfacet
  facet normal -1 0 0
    outer loop
      vertex 4 0.8 -0.001
      vertex 4 1 0
      vertex 4 1 -0.001
    endloop
  endfacet
  facet normal -1 -0 0
    outer loop
      vertex 4 1 0
      vertex 4 0.8 -0.001
      vertex 4 0.8 0
    endloop
  endfacet
  facet normal -1 0 0
    outer loop
      vertex 4 1 -0.001
      vertex 4 1.2 0
      vertex 4 1.2 -0.001
    endloop
  endfacet
  facet normal -1 -0 0
    outer loop
      vertex 4 1.2 0
      vertex 4 1 -0.001
      vertex 4 1 0
    endloop
  endfacet
  facet normal -1 0 0
    outer loop
      vertex 4 1.2 -0.001
      vertex 4 1.4 0
      vertex 4 1.4 -0.001
    endloop
  endfacet
  facet normal -1 -0 0
    outer loop
      vertex 4 1.4 0
      vertex 4 1.2 -0.001
      vertex 4 1.2 0
    endloop
  endfacet
  facet normal -1 0 0
    outer loop
      vertex 4 1.4 -0.001
      vertex 4 1.6 0
      vertex 4 1.6 -0.001
    endloop
  endfacet
  facet normal -1 -0 0
    outer loop
      vertex 4 1.6 0
      vertex 4 1.4 -0.001
      vertex 4 1.4 0
    endloop
  endfacet
  facet normal -1 0 0
    outer loop
      vertex 4 1.6 -0.001
      vertex 4 1.8 0
      vertex 4 1.8 -0.001
    endloop
  endfacet
  facet normal -1 -0 0
    outer loop
      vertex 4 1.8 0
      vertex 4 1.6 -0.001
      vertex 4 1.6 0
    endloop
  endfacet
  facet normal -1 0 0
    outer loop
      vertex 4 1.8 -0.001
      vertex 4 2 0
      vertex 4 2 -0.001
    endloop
  endfacet
  facet normal -1 -0 0
    outer loop
      vertex 4 2 0
      vertex 4 1.8 -0.001
      vertex 4 1.8 0
    endloop
  endfacet
  facet normal 0 1 -0
    outer loop
      vertex 0.4 0 -0.001
      vertex 0 0 0
      vertex 0.4 0 0
    endloop
  endfacet
  facet normal 0 1 0
    outer loop
      vertex 0 0 0
      vertex 0.4 0 -0.001
      vertex 0 0 -0.001
    endloop
  endfacet
  facet normal 0 1 -0
    outer loop
      vertex 0.8 0 -0.001
      vertex 0.4 0 0
      vertex 0.8 0 0
    endloop
  endfacet
  facet normal 0 1 0
    outer loop
      vertex 0.4 0 0
      vertex 0.8 0 -0.001
      vertex 0.4 0 -0.001
    endloop
  endfacet
  facet normal 0 1 -0
    outer loop
      vertex 1.2 0 -0.001
      vertex 0.8 0 0
      vertex 1.2 0 0
    endloop
  endfacet
  facet normal 0 1 0
    outer loop
      vertex 0.8 0 0
      vertex 1.2 0 -0.001
      vertex 0.8 0 -0.001
    endloop
  endfacet
  facet normal 0 1 -0
    outer loop
      vertex 1.6 0 -0.001
      vertex 1.2 0 0
      vertex 1.6 0 0
    endloop
  endfacet
  facet normal 0 1 0
    outer loop
      vertex 1.2 0 0
      vertex 1.6 0 -0.001
      vertex 1.2 0 -0.001
    endloop
  endfacet
  facet normal 0 1 -0
    outer loop
      vertex 2 0 -0.001
      vertex 1.6 0 0
      vertex 2 0 0
    endloop
  endfacet
  facet normal 0 1 0
    outer loop
      vertex 1.6 0 0
      vertex 2 0 -0.001
      vertex 1.6 0 -0.001
    endloop
  endfacet
  facet normal 0 1 -0
    outer loop
      vertex 2.4 0 -0.001
      vertex 2 0 0
      vertex 2.4 0 0
    endloop
  endfacet
  facet normal 0 1 0
    outer loop
      vertex 2 0 0
      vertex 2.4 0 -0.001
      vertex 2 0 -0.001
    endloop
  endfacet
  facet normal 0 1 -0
    outer loop
      vertex 2.8 0 -0.001
      vertex 2.4 0 0
      vertex 2.8 0 0
    endloop
  endfacet
  facet normal 0 1 0
    outer loop
      vertex 2.4 0 0
      vertex 2.8 0 -0.001
      vertex 2.4 0 -0.001
    endloop
  endfacet
  facet normal 0 1 -0
    outer loop
      vertex 3.2 0 -0.001
      vertex 2.8 0 0
      vertex 3.2 0 0
    endloop
  endfacet
  facet normal 0 1 0
    outer loop
      vertex 2.8 0 0
      vertex 3.2 0 -0.001
      vertex 2.8 0 -0.001
    endloop
  endfacet
  facet normal 0 1 -0
    outer loop
      vertex 3.6 0 -0.001
      vertex 3.2 0 0
      vertex 3.6 0 0
    endloop
  endfacet
  facet normal 0 1 0
    outer loop
      vertex 3.2 0 0
      vertex 3.6 0 -0.001
      vertex 3.2 0 -0.001
    endloop
  endfacet
  facet normal 0 1 -0
    outer loop
      vertex 4 0 -0.001
      vertex 3.6 0 0
      vertex 4 0 0
    endloop
  endfacet
  facet normal 0 1 0
    outer loop
      vertex 3.6 0 0
      vertex 4 0 -0.001
      vertex 3.6 0 -0.001
    endloop
  endfacet
endsolid OpenSCAD_Model
