solid OpenSCAD_Model
  facet normal 0 0.0314541 -0.999505
    outer loop
      vertex 0 0 -0.125
      vertex 10 0.00784882 -0.124753
      vertex 10 0 -0.125
    endloop
  endfacet
  facet normal 0 0.0314541 -0.999505
    outer loop
      vertex 10 0.00784882 -0.124753
      vertex 0 0 -0.125
      vertex 0 0.00784882 -0.124753
    endloop
  endfacet
  facet normal 0 0.0941074 -0.995562
    outer loop
      vertex 0 0.00784882 -0.124753
      vertex 10 0.0156667 -0.124014
      vertex 10 0.00784882 -0.124753
    endloop
  endfacet
  facet normal 0 0.0941074 -0.995562
    outer loop
      vertex 10 0.0156667 -0.124014
      vertex 0 0.00784882 -0.124753
      vertex 0 0.0156667 -0.124014
    endloop
  endfacet
  facet normal 0 0.156381 -0.987697
    outer loop
      vertex 0 0.0156667 -0.124014
      vertex 10 0.0234227 -0.122786
      vertex 10 0.0156667 -0.124014
    endloop
  endfacet
  facet normal 0 0.156381 -0.987697
    outer loop
      vertex 10 0.0234227 -0.122786
      vertex 0 0.0156667 -0.124014
      vertex 0 0.0234227 -0.122786
    endloop
  endfacet
  facet normal 0 0.218144 -0.975917
    outer loop
      vertex 0 0.0234227 -0.122786
      vertex 10 0.0310862 -0.121073
      vertex 10 0.0234227 -0.122786
    endloop
  endfacet
  facet normal 0 0.218144 -0.975917
    outer loop
      vertex 10 0.0310862 -0.121073
      vertex 0 0.0234227 -0.122786
      vertex 0 0.0310862 -0.121073
    endloop
  endfacet
  facet normal 0 0.279011 -0.960288
    outer loop
      vertex 0 0.0310862 -0.121073
      vertex 10 0.0386271 -0.118882
      vertex 10 0.0310862 -0.121073
    endloop
  endfacet
  facet normal 0 0.279011 -0.960288
    outer loop
      vertex 10 0.0386271 -0.118882
      vertex 0 0.0310862 -0.121073
      vertex 0 0.0386271 -0.118882
    endloop
  endfacet
  facet normal 0 0.338735 -0.940882
    outer loop
      vertex 0 0.0386271 -0.118882
      vertex 10 0.0460156 -0.116222
      vertex 10 0.0386271 -0.118882
    endloop
  endfacet
  facet normal 0 0.338735 -0.940882
    outer loop
      vertex 10 0.0460156 -0.116222
      vertex 0 0.0386271 -0.118882
      vertex 0 0.0460156 -0.116222
    endloop
  endfacet
  facet normal 0 0.397184 -0.917739
    outer loop
      vertex 0 0.0460156 -0.116222
      vertex 10 0.0532224 -0.113103
      vertex 10 0.0460156 -0.116222
    endloop
  endfacet
  facet normal 0 0.397184 -0.917739
    outer loop
      vertex 10 0.0532224 -0.113103
      vertex 0 0.0460156 -0.116222
      vertex 0 0.0532224 -0.113103
    endloop
  endfacet
  facet normal 0 0.453986 -0.891009
    outer loop
      vertex 0 0.0532224 -0.113103
      vertex 10 0.0602192 -0.109538
      vertex 10 0.0532224 -0.113103
    endloop
  endfacet
  facet normal 0 0.453986 -0.891009
    outer loop
      vertex 10 0.0602192 -0.109538
      vertex 0 0.0532224 -0.113103
      vertex 0 0.0602192 -0.109538
    endloop
  endfacet
  facet normal 0 0.509006 -0.860763
    outer loop
      vertex 0 0.0602192 -0.109538
      vertex 10 0.0669784 -0.105541
      vertex 10 0.0602192 -0.109538
    endloop
  endfacet
  facet normal 0 0.509006 -0.860763
    outer loop
      vertex 10 0.0669784 -0.105541
      vertex 0 0.0602192 -0.109538
      vertex 0 0.0669784 -0.105541
    endloop
  endfacet
  facet normal 0 0.562095 -0.827072
    outer loop
      vertex 0 0.0669784 -0.105541
      vertex 10 0.0734732 -0.101127
      vertex 10 0.0669784 -0.105541
    endloop
  endfacet
  facet normal 0 0.562095 -0.827072
    outer loop
      vertex 10 0.0734732 -0.101127
      vertex 0 0.0669784 -0.105541
      vertex 0 0.0734732 -0.101127
    endloop
  endfacet
  facet normal 0 0.612896 -0.790163
    outer loop
      vertex 0 0.0734732 -0.101127
      vertex 10 0.079678 -0.0963142
      vertex 10 0.0734732 -0.101127
    endloop
  endfacet
  facet normal 0 0.612896 -0.790163
    outer loop
      vertex 10 0.079678 -0.0963142
      vertex 0 0.0734732 -0.101127
      vertex 0 0.079678 -0.0963142
    endloop
  endfacet
  facet normal 0 0.661313 -0.75011
    outer loop
      vertex 0 0.079678 -0.0963142
      vertex 10 0.0855684 -0.0911211
      vertex 10 0.079678 -0.0963142
    endloop
  endfacet
  facet normal 0 0.661313 -0.75011
    outer loop
      vertex 10 0.0855684 -0.0911211
      vertex 0 0.079678 -0.0963142
      vertex 0 0.0855684 -0.0911211
    endloop
  endfacet
  facet normal 0 0.707107 -0.707107
    outer loop
      vertex 10 0.0855684 -0.0911211
      vertex 0 0.0911211 -0.0855684
      vertex 10 0.0911211 -0.0855684
    endloop
  endfacet
  facet normal 0 0.707107 -0.707107
    outer loop
      vertex 0 0.0911211 -0.0855684
      vertex 10 0.0855684 -0.0911211
      vertex 0 0.0855684 -0.0911211
    endloop
  endfacet
  facet normal 0 0.75011 -0.661313
    outer loop
      vertex 10 0.0911211 -0.0855684
      vertex 0 0.0963142 -0.079678
      vertex 10 0.0963142 -0.079678
    endloop
  endfacet
  facet normal 0 0.75011 -0.661313
    outer loop
      vertex 0 0.0963142 -0.079678
      vertex 10 0.0911211 -0.0855684
      vertex 0 0.0911211 -0.0855684
    endloop
  endfacet
  facet normal 0 0.790163 -0.612896
    outer loop
      vertex 10 0.0963142 -0.079678
      vertex 0 0.101127 -0.0734732
      vertex 10 0.101127 -0.0734732
    endloop
  endfacet
  facet normal 0 0.790163 -0.612896
    outer loop
      vertex 0 0.101127 -0.0734732
      vertex 10 0.0963142 -0.079678
      vertex 0 0.0963142 -0.079678
    endloop
  endfacet
  facet normal 0 0.827072 -0.562095
    outer loop
      vertex 10 0.101127 -0.0734732
      vertex 0 0.105541 -0.0669784
      vertex 10 0.105541 -0.0669784
    endloop
  endfacet
  facet normal 0 0.827072 -0.562095
    outer loop
      vertex 0 0.105541 -0.0669784
      vertex 10 0.101127 -0.0734732
      vertex 0 0.101127 -0.0734732
    endloop
  endfacet
  facet normal 0 0.860763 -0.509006
    outer loop
      vertex 10 0.105541 -0.0669784
      vertex 0 0.109538 -0.0602192
      vertex 10 0.109538 -0.0602192
    endloop
  endfacet
  facet normal 0 0.860763 -0.509006
    outer loop
      vertex 0 0.109538 -0.0602192
      vertex 10 0.105541 -0.0669784
      vertex 0 0.105541 -0.0669784
    endloop
  endfacet
  facet normal 0 0.891009 -0.453986
    outer loop
      vertex 10 0.109538 -0.0602192
      vertex 0 0.113103 -0.0532224
      vertex 10 0.113103 -0.0532224
    endloop
  endfacet
  facet normal 0 0.891009 -0.453986
    outer loop
      vertex 0 0.113103 -0.0532224
      vertex 10 0.109538 -0.0602192
      vertex 0 0.109538 -0.0602192
    endloop
  endfacet
  facet normal 0 0.917739 -0.397184
    outer loop
      vertex 10 0.113103 -0.0532224
      vertex 0 0.116222 -0.0460156
      vertex 10 0.116222 -0.0460156
    endloop
  endfacet
  facet normal 0 0.917739 -0.397184
    outer loop
      vertex 0 0.116222 -0.0460156
      vertex 10 0.113103 -0.0532224
      vertex 0 0.113103 -0.0532224
    endloop
  endfacet
  facet normal 0 0.940882 -0.338735
    outer loop
      vertex 10 0.116222 -0.0460156
      vertex 0 0.118882 -0.0386271
      vertex 10 0.118882 -0.0386271
    endloop
  endfacet
  facet normal 0 0.940882 -0.338735
    outer loop
      vertex 0 0.118882 -0.0386271
      vertex 10 0.116222 -0.0460156
      vertex 0 0.116222 -0.0460156
    endloop
  endfacet
  facet normal 0 0.960288 -0.279011
    outer loop
      vertex 10 0.118882 -0.0386271
      vertex 0 0.121073 -0.0310862
      vertex 10 0.121073 -0.0310862
    endloop
  endfacet
  facet normal 0 0.960288 -0.279011
    outer loop
      vertex 0 0.121073 -0.0310862
      vertex 10 0.118882 -0.0386271
      vertex 0 0.118882 -0.0386271
    endloop
  endfacet
  facet normal 0 0.975917 -0.218144
    outer loop
      vertex 10 0.121073 -0.0310862
      vertex 0 0.122786 -0.0234227
      vertex 10 0.122786 -0.0234227
    endloop
  endfacet
  facet normal 0 0.975917 -0.218144
    outer loop
      vertex 0 0.122786 -0.0234227
      vertex 10 0.121073 -0.0310862
      vertex 0 0.121073 -0.0310862
    endloop
  endfacet
  facet normal 0 0.987697 -0.156381
    outer loop
      vertex 10 0.122786 -0.0234227
      vertex 0 0.124014 -0.0156667
      vertex 10 0.124014 -0.0156667
    endloop
  endfacet
  facet normal 0 0.987697 -0.156381
    outer loop
      vertex 0 0.124014 -0.0156667
      vertex 10 0.122786 -0.0234227
      vertex 0 0.122786 -0.0234227
    endloop
  endfacet
  facet normal 0 0.995562 -0.0941074
    outer loop
      vertex 10 0.124014 -0.0156667
      vertex 0 0.124753 -0.00784882
      vertex 10 0.124753 -0.00784882
    endloop
  endfacet
  facet normal 0 0.995562 -0.0941074
    outer loop
      vertex 0 0.124753 -0.00784882
      vertex 10 0.124014 -0.0156667
      vertex 0 0.124014 -0.0156667
    endloop
  endfacet
  facet normal 0 0.999505 -0.0314541
    outer loop
      vertex 10 0.124753 -0.00784882
      vertex 0 0.125 0
      vertex 10 0.125 0
    endloop
  endfacet
  facet normal 0 0.999505 -0.0314541
    outer loop
      vertex 0 0.125 0
      vertex 10 0.124753 -0.00784882
      vertex 0 0.124753 -0.00784882
    endloop
  endfacet
  facet normal 0 0.999505 0.0314541
    outer loop
      vertex 10 0.125 0
      vertex 0 0.124753 0.00784882
      vertex 10 0.124753 0.00784882
    endloop
  endfacet
  facet normal 0 0.999505 0.0314541
    outer loop
      vertex 0 0.124753 0.00784882
      vertex 10 0.125 0
      vertex 0 0.125 0
    endloop
  endfacet
  facet normal 0 0.995562 0.0941074
    outer loop
      vertex 10 0.124753 0.00784882
      vertex 0 0.124014 0.0156667
      vertex 10 0.124014 0.0156667
    endloop
  endfacet
  facet normal 0 0.995562 0.0941074
    outer loop
      vertex 0 0.124014 0.0156667
      vertex 10 0.124753 0.00784882
      vertex 0 0.124753 0.00784882
    endloop
  endfacet
  facet normal 0 0.987697 0.156381
    outer loop
      vertex 10 0.124014 0.0156667
      vertex 0 0.122786 0.0234227
      vertex 10 0.122786 0.0234227
    endloop
  endfacet
  facet normal 0 0.987697 0.156381
    outer loop
      vertex 0 0.122786 0.0234227
      vertex 10 0.124014 0.0156667
      vertex 0 0.124014 0.0156667
    endloop
  endfacet
  facet normal 0 0.975917 0.218144
    outer loop
      vertex 10 0.122786 0.0234227
      vertex 0 0.121073 0.0310862
      vertex 10 0.121073 0.0310862
    endloop
  endfacet
  facet normal 0 0.975917 0.218144
    outer loop
      vertex 0 0.121073 0.0310862
      vertex 10 0.122786 0.0234227
      vertex 0 0.122786 0.0234227
    endloop
  endfacet
  facet normal 0 0.960288 0.279011
    outer loop
      vertex 10 0.121073 0.0310862
      vertex 0 0.118882 0.0386271
      vertex 10 0.118882 0.0386271
    endloop
  endfacet
  facet normal 0 0.960288 0.279011
    outer loop
      vertex 0 0.118882 0.0386271
      vertex 10 0.121073 0.0310862
      vertex 0 0.121073 0.0310862
    endloop
  endfacet
  facet normal 0 0.940882 0.338735
    outer loop
      vertex 10 0.118882 0.0386271
      vertex 0 0.116222 0.0460156
      vertex 10 0.116222 0.0460156
    endloop
  endfacet
  facet normal 0 0.940882 0.338735
    outer loop
      vertex 0 0.116222 0.0460156
      vertex 10 0.118882 0.0386271
      vertex 0 0.118882 0.0386271
    endloop
  endfacet
  facet normal 0 0.917739 0.397184
    outer loop
      vertex 10 0.116222 0.0460156
      vertex 0 0.113103 0.0532224
      vertex 10 0.113103 0.0532224
    endloop
  endfacet
  facet normal 0 0.917739 0.397184
    outer loop
      vertex 0 0.113103 0.0532224
      vertex 10 0.116222 0.0460156
      vertex 0 0.116222 0.0460156
    endloop
  endfacet
  facet normal 0 0.891009 0.453986
    outer loop
      vertex 10 0.113103 0.0532224
      vertex 0 0.109538 0.0602192
      vertex 10 0.109538 0.0602192
    endloop
  endfacet
  facet normal 0 0.891009 0.453986
    outer loop
      vertex 0 0.109538 0.0602192
      vertex 10 0.113103 0.0532224
      vertex 0 0.113103 0.0532224
    endloop
  endfacet
  facet normal 0 0.860763 0.509006
    outer loop
      vertex 10 0.109538 0.0602192
      vertex 0 0.105541 0.0669784
      vertex 10 0.105541 0.0669784
    endloop
  endfacet
  facet normal 0 0.860763 0.509006
    outer loop
      vertex 0 0.105541 0.0669784
      vertex 10 0.109538 0.0602192
      vertex 0 0.109538 0.0602192
    endloop
  endfacet
  facet normal 0 0.827072 0.562095
    outer loop
      vertex 10 0.105541 0.0669784
      vertex 0 0.101127 0.0734732
      vertex 10 0.101127 0.0734732
    endloop
  endfacet
  facet normal 0 0.827072 0.562095
    outer loop
      vertex 0 0.101127 0.0734732
      vertex 10 0.105541 0.0669784
      vertex 0 0.105541 0.0669784
    endloop
  endfacet
  facet normal 0 0.790163 0.612896
    outer loop
      vertex 10 0.101127 0.0734732
      vertex 0 0.0963142 0.079678
      vertex 10 0.0963142 0.079678
    endloop
  endfacet
  facet normal 0 0.790163 0.612896
    outer loop
      vertex 0 0.0963142 0.079678
      vertex 10 0.101127 0.0734732
      vertex 0 0.101127 0.0734732
    endloop
  endfacet
  facet normal 0 0.75011 0.661313
    outer loop
      vertex 10 0.0963142 0.079678
      vertex 0 0.0911211 0.0855684
      vertex 10 0.0911211 0.0855684
    endloop
  endfacet
  facet normal 0 0.75011 0.661313
    outer loop
      vertex 0 0.0911211 0.0855684
      vertex 10 0.0963142 0.079678
      vertex 0 0.0963142 0.079678
    endloop
  endfacet
  facet normal 0 0.707107 0.707107
    outer loop
      vertex 10 0.0911211 0.0855684
      vertex 0 0.0855684 0.0911211
      vertex 10 0.0855684 0.0911211
    endloop
  endfacet
  facet normal 0 0.707107 0.707107
    outer loop
      vertex 0 0.0855684 0.0911211
      vertex 10 0.0911211 0.0855684
      vertex 0 0.0911211 0.0855684
    endloop
  endfacet
  facet normal -0 0.661313 0.75011
    outer loop
      vertex 0 0.0855684 0.0911211
      vertex 10 0.079678 0.0963142
      vertex 10 0.0855684 0.0911211
    endloop
  endfacet
  facet normal 0 0.661313 0.75011
    outer loop
      vertex 10 0.079678 0.0963142
      vertex 0 0.0855684 0.0911211
      vertex 0 0.079678 0.0963142
    endloop
  endfacet
  facet normal -0 0.612896 0.790163
    outer loop
      vertex 0 0.079678 0.0963142
      vertex 10 0.0734732 0.101127
      vertex 10 0.079678 0.0963142
    endloop
  endfacet
  facet normal 0 0.612896 0.790163
    outer loop
      vertex 10 0.0734732 0.101127
      vertex 0 0.079678 0.0963142
      vertex 0 0.0734732 0.101127
    endloop
  endfacet
  facet normal -0 0.562095 0.827072
    outer loop
      vertex 0 0.0734732 0.101127
      vertex 10 0.0669784 0.105541
      vertex 10 0.0734732 0.101127
    endloop
  endfacet
  facet normal 0 0.562095 0.827072
    outer loop
      vertex 10 0.0669784 0.105541
      vertex 0 0.0734732 0.101127
      vertex 0 0.0669784 0.105541
    endloop
  endfacet
  facet normal -0 0.509006 0.860763
    outer loop
      vertex 0 0.0669784 0.105541
      vertex 10 0.0602192 0.109538
      vertex 10 0.0669784 0.105541
    endloop
  endfacet
  facet normal 0 0.509006 0.860763
    outer loop
      vertex 10 0.0602192 0.109538
      vertex 0 0.0669784 0.105541
      vertex 0 0.0602192 0.109538
    endloop
  endfacet
  facet normal -0 0.453986 0.891009
    outer loop
      vertex 0 0.0602192 0.109538
      vertex 10 0.0532224 0.113103
      vertex 10 0.0602192 0.109538
    endloop
  endfacet
  facet normal 0 0.453986 0.891009
    outer loop
      vertex 10 0.0532224 0.113103
      vertex 0 0.0602192 0.109538
      vertex 0 0.0532224 0.113103
    endloop
  endfacet
  facet normal -0 0.397184 0.917739
    outer loop
      vertex 0 0.0532224 0.113103
      vertex 10 0.0460156 0.116222
      vertex 10 0.0532224 0.113103
    endloop
  endfacet
  facet normal 0 0.397184 0.917739
    outer loop
      vertex 10 0.0460156 0.116222
      vertex 0 0.0532224 0.113103
      vertex 0 0.0460156 0.116222
    endloop
  endfacet
  facet normal -0 0.338735 0.940882
    outer loop
      vertex 0 0.0460156 0.116222
      vertex 10 0.0386271 0.118882
      vertex 10 0.0460156 0.116222
    endloop
  endfacet
  facet normal 0 0.338735 0.940882
    outer loop
      vertex 10 0.0386271 0.118882
      vertex 0 0.0460156 0.116222
      vertex 0 0.0386271 0.118882
    endloop
  endfacet
  facet normal -0 0.279011 0.960288
    outer loop
      vertex 0 0.0386271 0.118882
      vertex 10 0.0310862 0.121073
      vertex 10 0.0386271 0.118882
    endloop
  endfacet
  facet normal 0 0.279011 0.960288
    outer loop
      vertex 10 0.0310862 0.121073
      vertex 0 0.0386271 0.118882
      vertex 0 0.0310862 0.121073
    endloop
  endfacet
  facet normal -0 0.218144 0.975917
    outer loop
      vertex 0 0.0310862 0.121073
      vertex 10 0.0234227 0.122786
      vertex 10 0.0310862 0.121073
    endloop
  endfacet
  facet normal 0 0.218144 0.975917
    outer loop
      vertex 10 0.0234227 0.122786
      vertex 0 0.0310862 0.121073
      vertex 0 0.0234227 0.122786
    endloop
  endfacet
  facet normal -0 0.156381 0.987697
    outer loop
      vertex 0 0.0234227 0.122786
      vertex 10 0.0156667 0.124014
      vertex 10 0.0234227 0.122786
    endloop
  endfacet
  facet normal 0 0.156381 0.987697
    outer loop
      vertex 10 0.0156667 0.124014
      vertex 0 0.0234227 0.122786
      vertex 0 0.0156667 0.124014
    endloop
  endfacet
  facet normal -0 0.0941074 0.995562
    outer loop
      vertex 0 0.0156667 0.124014
      vertex 10 0.00784882 0.124753
      vertex 10 0.0156667 0.124014
    endloop
  endfacet
  facet normal 0 0.0941074 0.995562
    outer loop
      vertex 10 0.00784882 0.124753
      vertex 0 0.0156667 0.124014
      vertex 0 0.00784882 0.124753
    endloop
  endfacet
  facet normal -0 0.0314541 0.999505
    outer loop
      vertex 0 0.00784882 0.124753
      vertex 10 0 0.125
      vertex 10 0.00784882 0.124753
    endloop
  endfacet
  facet normal 0 0.0314541 0.999505
    outer loop
      vertex 10 0 0.125
      vertex 0 0.00784882 0.124753
      vertex 0 0 0.125
    endloop
  endfacet
  facet normal 0 -0.0314541 0.999505
    outer loop
      vertex 0 0 0.125
      vertex 10 -0.00784882 0.124753
      vertex 10 0 0.125
    endloop
  endfacet
  facet normal 0 -0.0314541 0.999505
    outer loop
      vertex 10 -0.00784882 0.124753
      vertex 0 0 0.125
      vertex 0 -0.00784882 0.124753
    endloop
  endfacet
  facet normal 0 -0.0941074 0.995562
    outer loop
      vertex 0 -0.00784882 0.124753
      vertex 10 -0.0156667 0.124014
      vertex 10 -0.00784882 0.124753
    endloop
  endfacet
  facet normal 0 -0.0941074 0.995562
    outer loop
      vertex 10 -0.0156667 0.124014
      vertex 0 -0.00784882 0.124753
      vertex 0 -0.0156667 0.124014
    endloop
  endfacet
  facet normal 0 -0.156381 0.987697
    outer loop
      vertex 0 -0.0156667 0.124014
      vertex 10 -0.0234227 0.122786
      vertex 10 -0.0156667 0.124014
    endloop
  endfacet
  facet normal 0 -0.156381 0.987697
    outer loop
      vertex 10 -0.0234227 0.122786
      vertex 0 -0.0156667 0.124014
      vertex 0 -0.0234227 0.122786
    endloop
  endfacet
  facet normal 0 -0.218144 0.975917
    outer loop
      vertex 0 -0.0234227 0.122786
      vertex 10 -0.0310862 0.121073
      vertex 10 -0.0234227 0.122786
    endloop
  endfacet
  facet normal 0 -0.218144 0.975917
    outer loop
      vertex 10 -0.0310862 0.121073
      vertex 0 -0.0234227 0.122786
      vertex 0 -0.0310862 0.121073
    endloop
  endfacet
  facet normal 0 -0.279011 0.960288
    outer loop
      vertex 0 -0.0310862 0.121073
      vertex 10 -0.0386271 0.118882
      vertex 10 -0.0310862 0.121073
    endloop
  endfacet
  facet normal 0 -0.279011 0.960288
    outer loop
      vertex 10 -0.0386271 0.118882
      vertex 0 -0.0310862 0.121073
      vertex 0 -0.0386271 0.118882
    endloop
  endfacet
  facet normal 0 -0.338735 0.940882
    outer loop
      vertex 0 -0.0386271 0.118882
      vertex 10 -0.0460156 0.116222
      vertex 10 -0.0386271 0.118882
    endloop
  endfacet
  facet normal 0 -0.338735 0.940882
    outer loop
      vertex 10 -0.0460156 0.116222
      vertex 0 -0.0386271 0.118882
      vertex 0 -0.0460156 0.116222
    endloop
  endfacet
  facet normal 0 -0.397184 0.917739
    outer loop
      vertex 0 -0.0460156 0.116222
      vertex 10 -0.0532224 0.113103
      vertex 10 -0.0460156 0.116222
    endloop
  endfacet
  facet normal 0 -0.397184 0.917739
    outer loop
      vertex 10 -0.0532224 0.113103
      vertex 0 -0.0460156 0.116222
      vertex 0 -0.0532224 0.113103
    endloop
  endfacet
  facet normal 0 -0.453986 0.891009
    outer loop
      vertex 0 -0.0532224 0.113103
      vertex 10 -0.0602192 0.109538
      vertex 10 -0.0532224 0.113103
    endloop
  endfacet
  facet normal 0 -0.453986 0.891009
    outer loop
      vertex 10 -0.0602192 0.109538
      vertex 0 -0.0532224 0.113103
      vertex 0 -0.0602192 0.109538
    endloop
  endfacet
  facet normal 0 -0.509006 0.860763
    outer loop
      vertex 0 -0.0602192 0.109538
      vertex 10 -0.0669784 0.105541
      vertex 10 -0.0602192 0.109538
    endloop
  endfacet
  facet normal 0 -0.509006 0.860763
    outer loop
      vertex 10 -0.0669784 0.105541
      vertex 0 -0.0602192 0.109538
      vertex 0 -0.0669784 0.105541
    endloop
  endfacet
  facet normal 0 -0.562095 0.827072
    outer loop
      vertex 0 -0.0669784 0.105541
      vertex 10 -0.0734732 0.101127
      vertex 10 -0.0669784 0.105541
    endloop
  endfacet
  facet normal 0 -0.562095 0.827072
    outer loop
      vertex 10 -0.0734732 0.101127
      vertex 0 -0.0669784 0.105541
      vertex 0 -0.0734732 0.101127
    endloop
  endfacet
  facet normal 0 -0.612896 0.790163
    outer loop
      vertex 0 -0.0734732 0.101127
      vertex 10 -0.079678 0.0963142
      vertex 10 -0.0734732 0.101127
    endloop
  endfacet
  facet normal 0 -0.612896 0.790163
    outer loop
      vertex 10 -0.079678 0.0963142
      vertex 0 -0.0734732 0.101127
      vertex 0 -0.079678 0.0963142
    endloop
  endfacet
  facet normal 0 -0.661313 0.75011
    outer loop
      vertex 0 -0.079678 0.0963142
      vertex 10 -0.0855684 0.0911211
      vertex 10 -0.079678 0.0963142
    endloop
  endfacet
  facet normal 0 -0.661313 0.75011
    outer loop
      vertex 10 -0.0855684 0.0911211
      vertex 0 -0.079678 0.0963142
      vertex 0 -0.0855684 0.0911211
    endloop
  endfacet
  facet normal 0 -0.707107 0.707107
    outer loop
      vertex 0 -0.0911211 0.0855684
      vertex 10 -0.0855684 0.0911211
      vertex 0 -0.0855684 0.0911211
    endloop
  endfacet
  facet normal 0 -0.707107 0.707107
    outer loop
      vertex 10 -0.0855684 0.0911211
      vertex 0 -0.0911211 0.0855684
      vertex 10 -0.0911211 0.0855684
    endloop
  endfacet
  facet normal 0 -0.75011 0.661313
    outer loop
      vertex 0 -0.0963142 0.079678
      vertex 10 -0.0911211 0.0855684
      vertex 0 -0.0911211 0.0855684
    endloop
  endfacet
  facet normal 0 -0.75011 0.661313
    outer loop
      vertex 10 -0.0911211 0.0855684
      vertex 0 -0.0963142 0.079678
      vertex 10 -0.0963142 0.079678
    endloop
  endfacet
  facet normal 0 -0.790163 0.612896
    outer loop
      vertex 0 -0.101127 0.0734732
      vertex 10 -0.0963142 0.079678
      vertex 0 -0.0963142 0.079678
    endloop
  endfacet
  facet normal 0 -0.790163 0.612896
    outer loop
      vertex 10 -0.0963142 0.079678
      vertex 0 -0.101127 0.0734732
      vertex 10 -0.101127 0.0734732
    endloop
  endfacet
  facet normal 0 -0.827072 0.562095
    outer loop
      vertex 0 -0.105541 0.0669784
      vertex 10 -0.101127 0.0734732
      vertex 0 -0.101127 0.0734732
    endloop
  endfacet
  facet normal 0 -0.827072 0.562095
    outer loop
      vertex 10 -0.101127 0.0734732
      vertex 0 -0.105541 0.0669784
      vertex 10 -0.105541 0.0669784
    endloop
  endfacet
  facet normal 0 -0.860763 0.509006
    outer loop
      vertex 0 -0.109538 0.0602192
      vertex 10 -0.105541 0.0669784
      vertex 0 -0.105541 0.0669784
    endloop
  endfacet
  facet normal 0 -0.860763 0.509006
    outer loop
      vertex 10 -0.105541 0.0669784
      vertex 0 -0.109538 0.0602192
      vertex 10 -0.109538 0.0602192
    endloop
  endfacet
  facet normal 0 -0.891009 0.453986
    outer loop
      vertex 0 -0.113103 0.0532224
      vertex 10 -0.109538 0.0602192
      vertex 0 -0.109538 0.0602192
    endloop
  endfacet
  facet normal 0 -0.891009 0.453986
    outer loop
      vertex 10 -0.109538 0.0602192
      vertex 0 -0.113103 0.0532224
      vertex 10 -0.113103 0.0532224
    endloop
  endfacet
  facet normal 0 -0.917739 0.397184
    outer loop
      vertex 0 -0.116222 0.0460156
      vertex 10 -0.113103 0.0532224
      vertex 0 -0.113103 0.0532224
    endloop
  endfacet
  facet normal 0 -0.917739 0.397184
    outer loop
      vertex 10 -0.113103 0.0532224
      vertex 0 -0.116222 0.0460156
      vertex 10 -0.116222 0.0460156
    endloop
  endfacet
  facet normal 0 -0.940882 0.338735
    outer loop
      vertex 0 -0.118882 0.0386271
      vertex 10 -0.116222 0.0460156
      vertex 0 -0.116222 0.0460156
    endloop
  endfacet
  facet normal 0 -0.940882 0.338735
    outer loop
      vertex 10 -0.116222 0.0460156
      vertex 0 -0.118882 0.0386271
      vertex 10 -0.118882 0.0386271
    endloop
  endfacet
  facet normal 0 -0.960288 0.279011
    outer loop
      vertex 0 -0.121073 0.0310862
      vertex 10 -0.118882 0.0386271
      vertex 0 -0.118882 0.0386271
    endloop
  endfacet
  facet normal 0 -0.960288 0.279011
    outer loop
      vertex 10 -0.118882 0.0386271
      vertex 0 -0.121073 0.0310862
      vertex 10 -0.121073 0.0310862
    endloop
  endfacet
  facet normal 0 -0.975917 0.218144
    outer loop
      vertex 0 -0.122786 0.0234227
      vertex 10 -0.121073 0.0310862
      vertex 0 -0.121073 0.0310862
    endloop
  endfacet
  facet normal 0 -0.975917 0.218144
    outer loop
      vertex 10 -0.121073 0.0310862
      vertex 0 -0.122786 0.0234227
      vertex 10 -0.122786 0.0234227
    endloop
  endfacet
  facet normal 0 -0.987697 0.156381
    outer loop
      vertex 0 -0.124014 0.0156667
      vertex 10 -0.122786 0.0234227
      vertex 0 -0.122786 0.0234227
    endloop
  endfacet
  facet normal 0 -0.987697 0.156381
    outer loop
      vertex 10 -0.122786 0.0234227
      vertex 0 -0.124014 0.0156667
      vertex 10 -0.124014 0.0156667
    endloop
  endfacet
  facet normal 0 -0.995562 0.0941074
    outer loop
      vertex 0 -0.124753 0.00784882
      vertex 10 -0.124014 0.0156667
      vertex 0 -0.124014 0.0156667
    endloop
  endfacet
  facet normal 0 -0.995562 0.0941074
    outer loop
      vertex 10 -0.124014 0.0156667
      vertex 0 -0.124753 0.00784882
      vertex 10 -0.124753 0.00784882
    endloop
  endfacet
  facet normal 0 -0.999505 0.0314541
    outer loop
      vertex 0 -0.125 0
      vertex 10 -0.124753 0.00784882
      vertex 0 -0.124753 0.00784882
    endloop
  endfacet
  facet normal 0 -0.999505 0.0314541
    outer loop
      vertex 10 -0.124753 0.00784882
      vertex 0 -0.125 0
      vertex 10 -0.125 0
    endloop
  endfacet
  facet normal 0 -0.999505 -0.0314541
    outer loop
      vertex 0 -0.124753 -0.00784882
      vertex 10 -0.125 0
      vertex 0 -0.125 0
    endloop
  endfacet
  facet normal 0 -0.999505 -0.0314541
    outer loop
      vertex 10 -0.125 0
      vertex 0 -0.124753 -0.00784882
      vertex 10 -0.124753 -0.00784882
    endloop
  endfacet
  facet normal 0 -0.995562 -0.0941074
    outer loop
      vertex 0 -0.124014 -0.0156667
      vertex 10 -0.124753 -0.00784882
      vertex 0 -0.124753 -0.00784882
    endloop
  endfacet
  facet normal 0 -0.995562 -0.0941074
    outer loop
      vertex 10 -0.124753 -0.00784882
      vertex 0 -0.124014 -0.0156667
      vertex 10 -0.124014 -0.0156667
    endloop
  endfacet
  facet normal 0 -0.987697 -0.156381
    outer loop
      vertex 0 -0.122786 -0.0234227
      vertex 10 -0.124014 -0.0156667
      vertex 0 -0.124014 -0.0156667
    endloop
  endfacet
  facet normal 0 -0.987697 -0.156381
    outer loop
      vertex 10 -0.124014 -0.0156667
      vertex 0 -0.122786 -0.0234227
      vertex 10 -0.122786 -0.0234227
    endloop
  endfacet
  facet normal 0 -0.975917 -0.218144
    outer loop
      vertex 0 -0.121073 -0.0310862
      vertex 10 -0.122786 -0.0234227
      vertex 0 -0.122786 -0.0234227
    endloop
  endfacet
  facet normal 0 -0.975917 -0.218144
    outer loop
      vertex 10 -0.122786 -0.0234227
      vertex 0 -0.121073 -0.0310862
      vertex 10 -0.121073 -0.0310862
    endloop
  endfacet
  facet normal 0 -0.960288 -0.279011
    outer loop
      vertex 0 -0.118882 -0.0386271
      vertex 10 -0.121073 -0.0310862
      vertex 0 -0.121073 -0.0310862
    endloop
  endfacet
  facet normal 0 -0.960288 -0.279011
    outer loop
      vertex 10 -0.121073 -0.0310862
      vertex 0 -0.118882 -0.0386271
      vertex 10 -0.118882 -0.0386271
    endloop
  endfacet
  facet normal 0 -0.940882 -0.338735
    outer loop
      vertex 0 -0.116222 -0.0460156
      vertex 10 -0.118882 -0.0386271
      vertex 0 -0.118882 -0.0386271
    endloop
  endfacet
  facet normal 0 -0.940882 -0.338735
    outer loop
      vertex 10 -0.118882 -0.0386271
      vertex 0 -0.116222 -0.0460156
      vertex 10 -0.116222 -0.0460156
    endloop
  endfacet
  facet normal 0 -0.917739 -0.397184
    outer loop
      vertex 0 -0.113103 -0.0532224
      vertex 10 -0.116222 -0.0460156
      vertex 0 -0.116222 -0.0460156
    endloop
  endfacet
  facet normal 0 -0.917739 -0.397184
    outer loop
      vertex 10 -0.116222 -0.0460156
      vertex 0 -0.113103 -0.0532224
      vertex 10 -0.113103 -0.0532224
    endloop
  endfacet
  facet normal 0 -0.891009 -0.453986
    outer loop
      vertex 0 -0.109538 -0.0602192
      vertex 10 -0.113103 -0.0532224
      vertex 0 -0.113103 -0.0532224
    endloop
  endfacet
  facet normal 0 -0.891009 -0.453986
    outer loop
      vertex 10 -0.113103 -0.0532224
      vertex 0 -0.109538 -0.0602192
      vertex 10 -0.109538 -0.0602192
    endloop
  endfacet
  facet normal 0 -0.860763 -0.509006
    outer loop
      vertex 0 -0.105541 -0.0669784
      vertex 10 -0.109538 -0.0602192
      vertex 0 -0.109538 -0.0602192
    endloop
  endfacet
  facet normal 0 -0.860763 -0.509006
    outer loop
      vertex 10 -0.109538 -0.0602192
      vertex 0 -0.105541 -0.0669784
      vertex 10 -0.105541 -0.0669784
    endloop
  endfacet
  facet normal 0 -0.827072 -0.562095
    outer loop
      vertex 0 -0.101127 -0.0734732
      vertex 10 -0.105541 -0.0669784
      vertex 0 -0.105541 -0.0669784
    endloop
  endfacet
  facet normal 0 -0.827072 -0.562095
    outer loop
      vertex 10 -0.105541 -0.0669784
      vertex 0 -0.101127 -0.0734732
      vertex 10 -0.101127 -0.0734732
    endloop
  endfacet
  facet normal 0 -0.790163 -0.612896
    outer loop
      vertex 0 -0.0963142 -0.079678
      vertex 10 -0.101127 -0.0734732
      vertex 0 -0.101127 -0.0734732
    endloop
  endfacet
  facet normal 0 -0.790163 -0.612896
    outer loop
      vertex 10 -0.101127 -0.0734732
      vertex 0 -0.0963142 -0.079678
      vertex 10 -0.0963142 -0.079678
    endloop
  endfacet
  facet normal 0 -0.75011 -0.661313
    outer loop
      vertex 0 -0.0911211 -0.0855684
      vertex 10 -0.0963142 -0.079678
      vertex 0 -0.0963142 -0.079678
    endloop
  endfacet
  facet normal 0 -0.75011 -0.661313
    outer loop
      vertex 10 -0.0963142 -0.079678
      vertex 0 -0.0911211 -0.0855684
      vertex 10 -0.0911211 -0.0855684
    endloop
  endfacet
  facet normal 0 -0.707107 -0.707107
    outer loop
      vertex 0 -0.0855684 -0.0911211
      vertex 10 -0.0911211 -0.0855684
      vertex 0 -0.0911211 -0.0855684
    endloop
  endfacet
  facet normal 0 -0.707107 -0.707107
    outer loop
      vertex 10 -0.0911211 -0.0855684
      vertex 0 -0.0855684 -0.0911211
      vertex 10 -0.0855684 -0.0911211
    endloop
  endfacet
  facet normal 0 -0.661313 -0.75011
    outer loop
      vertex 0 -0.0855684 -0.0911211
      vertex 10 -0.079678 -0.0963142
      vertex 10 -0.0855684 -0.0911211
    endloop
  endfacet
  facet normal -0 -0.661313 -0.75011
    outer loop
      vertex 10 -0.079678 -0.0963142
      vertex 0 -0.0855684 -0.0911211
      vertex 0 -0.079678 -0.0963142
    endloop
  endfacet
  facet normal 0 -0.612896 -0.790163
    outer loop
      vertex 0 -0.079678 -0.0963142
      vertex 10 -0.0734732 -0.101127
      vertex 10 -0.079678 -0.0963142
    endloop
  endfacet
  facet normal -0 -0.612896 -0.790163
    outer loop
      vertex 10 -0.0734732 -0.101127
      vertex 0 -0.079678 -0.0963142
      vertex 0 -0.0734732 -0.101127
    endloop
  endfacet
  facet normal 0 -0.562095 -0.827072
    outer loop
      vertex 0 -0.0734732 -0.101127
      vertex 10 -0.0669784 -0.105541
      vertex 10 -0.0734732 -0.101127
    endloop
  endfacet
  facet normal -0 -0.562095 -0.827072
    outer loop
      vertex 10 -0.0669784 -0.105541
      vertex 0 -0.0734732 -0.101127
      vertex 0 -0.0669784 -0.105541
    endloop
  endfacet
  facet normal 0 -0.509006 -0.860763
    outer loop
      vertex 0 -0.0669784 -0.105541
      vertex 10 -0.0602192 -0.109538
      vertex 10 -0.0669784 -0.105541
    endloop
  endfacet
  facet normal -0 -0.509006 -0.860763
    outer loop
      vertex 10 -0.0602192 -0.109538
      vertex 0 -0.0669784 -0.105541
      vertex 0 -0.0602192 -0.109538
    endloop
  endfacet
  facet normal 0 -0.453986 -0.891009
    outer loop
      vertex 0 -0.0602192 -0.109538
      vertex 10 -0.0532224 -0.113103
      vertex 10 -0.0602192 -0.109538
    endloop
  endfacet
  facet normal -0 -0.453986 -0.891009
    outer loop
      vertex 10 -0.0532224 -0.113103
      vertex 0 -0.0602192 -0.109538
      vertex 0 -0.0532224 -0.113103
    endloop
  endfacet
  facet normal 0 -0.397184 -0.917739
    outer loop
      vertex 0 -0.0532224 -0.113103
      vertex 10 -0.0460156 -0.116222
      vertex 10 -0.0532224 -0.113103
    endloop
  endfacet
  facet normal -0 -0.397184 -0.917739
    outer loop
      vertex 10 -0.0460156 -0.116222
      vertex 0 -0.0532224 -0.113103
      vertex 0 -0.0460156 -0.116222
    endloop
  endfacet
  facet normal 0 -0.338735 -0.940882
    outer loop
      vertex 0 -0.0460156 -0.116222
      vertex 10 -0.0386271 -0.118882
      vertex 10 -0.0460156 -0.116222
    endloop
  endfacet
  facet normal -0 -0.338735 -0.940882
    outer loop
      vertex 10 -0.0386271 -0.118882
      vertex 0 -0.0460156 -0.116222
      vertex 0 -0.0386271 -0.118882
    endloop
  endfacet
  facet normal 0 -0.279011 -0.960288
    outer loop
      vertex 0 -0.0386271 -0.118882
      vertex 10 -0.0310862 -0.121073
      vertex 10 -0.0386271 -0.118882
    endloop
  endfacet
  facet normal -0 -0.279011 -0.960288
    outer loop
      vertex 10 -0.0310862 -0.121073
      vertex 0 -0.0386271 -0.118882
      vertex 0 -0.0310862 -0.121073
    endloop
  endfacet
  facet normal 0 -0.218144 -0.975917
    outer loop
      vertex 0 -0.0310862 -0.121073
      vertex 10 -0.0234227 -0.122786
      vertex 10 -0.0310862 -0.121073
    endloop
  endfacet
  facet normal -0 -0.218144 -0.975917
    outer loop
      vertex 10 -0.0234227 -0.122786
      vertex 0 -0.0310862 -0.121073
      vertex 0 -0.0234227 -0.122786
    endloop
  endfacet
  facet normal 0 -0.156381 -0.987697
    outer loop
      vertex 0 -0.0234227 -0.122786
      vertex 10 -0.0156667 -0.124014
      vertex 10 -0.0234227 -0.122786
    endloop
  endfacet
  facet normal -0 -0.156381 -0.987697
    outer loop
      vertex 10 -0.0156667 -0.124014
      vertex 0 -0.0234227 -0.122786
      vertex 0 -0.0156667 -0.124014
    endloop
  endfacet
  facet normal 0 -0.0941074 -0.995562
    outer loop
      vertex 0 -0.0156667 -0.124014
      vertex 10 -0.00784882 -0.124753
      vertex 10 -0.0156667 -0.124014
    endloop
  endfacet
  facet normal -0 -0.0941074 -0.995562
    outer loop
      vertex 10 -0.00784882 -0.124753
      vertex 0 -0.0156667 -0.124014
      vertex 0 -0.00784882 -0.124753
    endloop
  endfacet
  facet normal 0 -0.0314541 -0.999505
    outer loop
      vertex 0 -0.00784882 -0.124753
      vertex 10 0 -0.125
      vertex 10 -0.00784882 -0.124753
    endloop
  endfacet
  facet normal -0 -0.0314541 -0.999505
    outer loop
      vertex 10 0 -0.125
      vertex 0 -0.00784882 -0.124753
      vertex 0 0 -0.125
    endloop
  endfacet
  facet normal -1 0 0
    outer loop
      vertex 0 0.124753 -0.00784882
      vertex 0 0.124753 0.00784882
      vertex 0 0.125 0
    endloop
  endfacet
  facet normal -1 0 0
    outer loop
      vertex 0 0.124014 -0.0156667
      vertex 0 0.124753 0.00784882
      vertex 0 0.124753 -0.00784882
    endloop
  endfacet
  facet normal -1 0 0
    outer loop
      vertex 0 0.124014 -0.0156667
      vertex 0 0.124014 0.0156667
      vertex 0 0.124753 0.00784882
    endloop
  endfacet
  facet normal -1 0 0
    outer loop
      vertex 0 0.122786 -0.0234227
      vertex 0 0.124014 0.0156667
      vertex 0 0.124014 -0.0156667
    endloop
  endfacet
  facet normal -1 0 0
    outer loop
      vertex 0 0.122786 -0.0234227
      vertex 0 0.122786 0.0234227
      vertex 0 0.124014 0.0156667
    endloop
  endfacet
  facet normal -1 0 0
    outer loop
      vertex 0 0.121073 -0.0310862
      vertex 0 0.122786 0.0234227
      vertex 0 0.122786 -0.0234227
    endloop
  endfacet
  facet normal -1 0 0
    outer loop
      vertex 0 0.121073 -0.0310862
      vertex 0 0.121073 0.0310862
      vertex 0 0.122786 0.0234227
    endloop
  endfacet
  facet normal -1 0 0
    outer loop
      vertex 0 0.118882 -0.0386271
      vertex 0 0.121073 0.0310862
      vertex 0 0.121073 -0.0310862
    endloop
  endfacet
  facet normal -1 0 0
    outer loop
      vertex 0 0.118882 -0.0386271
      vertex 0 0.118882 0.0386271
      vertex 0 0.121073 0.0310862
    endloop
  endfacet
  facet normal -1 0 0
    outer loop
      vertex 0 0.116222 -0.0460156
      vertex 0 0.118882 0.0386271
      vertex 0 0.118882 -0.0386271
    endloop
  endfacet
  facet normal -1 0 0
    outer loop
      vertex 0 0.116222 -0.0460156
      vertex 0 0.116222 0.0460156
      vertex 0 0.118882 0.0386271
    endloop
  endfacet
  facet normal -1 0 0
    outer loop
      vertex 0 0.113103 -0.0532224
      vertex 0 0.116222 0.0460156
      vertex 0 0.116222 -0.0460156
    endloop
  endfacet
  facet normal -1 0 0
    outer loop
      vertex 0 0.113103 -0.0532224
      vertex 0 0.113103 0.0532224
      vertex 0 0.116222 0.0460156
    endloop
  endfacet
  facet normal -1 0 0
    outer loop
      vertex 0 0.109538 -0.0602192
      vertex 0 0.113103 0.0532224
      vertex 0 0.113103 -0.0532224
    endloop
  endfacet
  facet normal -1 0 0
    outer loop
      vertex 0 0.109538 -0.0602192
      vertex 0 0.109538 0.0602192
      vertex 0 0.113103 0.0532224
    endloop
  endfacet
  facet normal -1 0 0
    outer loop
      vertex 0 0.105541 -0.0669784
      vertex 0 0.109538 0.0602192
      vertex 0 0.109538 -0.0602192
    endloop
  endfacet
  facet normal -1 0 0
    outer loop
      vertex 0 0.105541 -0.0669784
      vertex 0 0.105541 0.0669784
      vertex 0 0.109538 0.0602192
    endloop
  endfacet
  facet normal -1 0 0
    outer loop
      vertex 0 0.101127 -0.0734732
      vertex 0 0.105541 0.0669784
      vertex 0 0.105541 -0.0669784
    endloop
  endfacet
  facet normal -1 0 0
    outer loop
      vertex 0 0.101127 -0.0734732
      vertex 0 0.101127 0.0734732
      vertex 0 0.105541 0.0669784
    endloop
  endfacet
  facet normal -1 0 0
    outer loop
      vertex 0 0.0963142 -0.079678
      vertex 0 0.101127 0.0734732
      vertex 0 0.101127 -0.0734732
    endloop
  endfacet
  facet normal -1 0 0
    outer loop
      vertex 0 0.0963142 -0.079678
      vertex 0 0.0963142 0.079678
      vertex 0 0.101127 0.0734732
    endloop
  endfacet
  facet normal -1 0 0
    outer loop
      vertex 0 0.0911211 -0.0855684
      vertex 0 0.0963142 0.079678
      vertex 0 0.0963142 -0.079678
    endloop
  endfacet
  facet normal -1 0 0
    outer loop
      vertex 0 0.0911211 -0.0855684
      vertex 0 0.0911211 0.0855684
      vertex 0 0.0963142 0.079678
    endloop
  endfacet
  facet normal -1 0 0
    outer loop
      vertex 0 0.0855684 -0.0911211
      vertex 0 0.0911211 0.0855684
      vertex 0 0.0911211 -0.0855684
    endloop
  endfacet
  facet normal -1 0 0
    outer loop
      vertex 0 0.0855684 -0.0911211
      vertex 0 0.0855684 0.0911211
      vertex 0 0.0911211 0.0855684
    endloop
  endfacet
  facet normal -1 0 0
    outer loop
      vertex 0 0.079678 -0.0963142
      vertex 0 0.0855684 0.0911211
      vertex 0 0.0855684 -0.0911211
    endloop
  endfacet
  facet normal -1 0 0
    outer loop
      vertex 0 0.079678 -0.0963142
      vertex 0 0.079678 0.0963142
      vertex 0 0.0855684 0.0911211
    endloop
  endfacet
  facet normal -1 0 0
    outer loop
      vertex 0 0.0734732 -0.101127
      vertex 0 0.079678 0.0963142
      vertex 0 0.079678 -0.0963142
    endloop
  endfacet
  facet normal -1 0 0
    outer loop
      vertex 0 0.0734732 -0.101127
      vertex 0 0.0734732 0.101127
      vertex 0 0.079678 0.0963142
    endloop
  endfacet
  facet normal -1 0 0
    outer loop
      vertex 0 0.0669784 -0.105541
      vertex 0 0.0734732 0.101127
      vertex 0 0.0734732 -0.101127
    endloop
  endfacet
  facet normal -1 0 0
    outer loop
      vertex 0 0.0669784 -0.105541
      vertex 0 0.0669784 0.105541
      vertex 0 0.0734732 0.101127
    endloop
  endfacet
  facet normal -1 0 0
    outer loop
      vertex 0 0.0602192 -0.109538
      vertex 0 0.0669784 0.105541
      vertex 0 0.0669784 -0.105541
    endloop
  endfacet
  facet normal -1 0 0
    outer loop
      vertex 0 0.0602192 -0.109538
      vertex 0 0.0602192 0.109538
      vertex 0 0.0669784 0.105541
    endloop
  endfacet
  facet normal -1 0 0
    outer loop
      vertex 0 0.0532224 -0.113103
      vertex 0 0.0602192 0.109538
      vertex 0 0.0602192 -0.109538
    endloop
  endfacet
  facet normal -1 0 0
    outer loop
      vertex 0 0.0532224 -0.113103
      vertex 0 0.0532224 0.113103
      vertex 0 0.0602192 0.109538
    endloop
  endfacet
  facet normal -1 0 0
    outer loop
      vertex 0 0.0460156 -0.116222
      vertex 0 0.0532224 0.113103
      vertex 0 0.0532224 -0.113103
    endloop
  endfacet
  facet normal -1 0 0
    outer loop
      vertex 0 0.0460156 -0.116222
      vertex 0 0.0460156 0.116222
      vertex 0 0.0532224 0.113103
    endloop
  endfacet
  facet normal -1 0 0
    outer loop
      vertex 0 0.0386271 -0.118882
      vertex 0 0.0460156 0.116222
      vertex 0 0.0460156 -0.116222
    endloop
  endfacet
  facet normal -1 0 0
    outer loop
      vertex 0 0.0386271 -0.118882
      vertex 0 0.0386271 0.118882
      vertex 0 0.0460156 0.116222
    endloop
  endfacet
  facet normal -1 0 0
    outer loop
      vertex 0 0.0310862 -0.121073
      vertex 0 0.0386271 0.118882
      vertex 0 0.0386271 -0.118882
    endloop
  endfacet
  facet normal -1 0 0
    outer loop
      vertex 0 0.0310862 -0.121073
      vertex 0 0.0310862 0.121073
      vertex 0 0.0386271 0.118882
    endloop
  endfacet
  facet normal -1 0 0
    outer loop
      vertex 0 0.0234227 -0.122786
      vertex 0 0.0310862 0.121073
      vertex 0 0.0310862 -0.121073
    endloop
  endfacet
  facet normal -1 0 0
    outer loop
      vertex 0 0.0234227 -0.122786
      vertex 0 0.0234227 0.122786
      vertex 0 0.0310862 0.121073
    endloop
  endfacet
  facet normal -1 0 0
    outer loop
      vertex 0 0.0156667 -0.124014
      vertex 0 0.0234227 0.122786
      vertex 0 0.0234227 -0.122786
    endloop
  endfacet
  facet normal -1 0 0
    outer loop
      vertex 0 0.0156667 -0.124014
      vertex 0 0.0156667 0.124014
      vertex 0 0.0234227 0.122786
    endloop
  endfacet
  facet normal -1 0 0
    outer loop
      vertex 0 0.00784882 -0.124753
      vertex 0 0.0156667 0.124014
      vertex 0 0.0156667 -0.124014
    endloop
  endfacet
  facet normal -1 0 0
    outer loop
      vertex 0 0.00784882 -0.124753
      vertex 0 0.00784882 0.124753
      vertex 0 0.0156667 0.124014
    endloop
  endfacet
  facet normal -1 0 0
    outer loop
      vertex 0 0 -0.125
      vertex 0 0.00784882 0.124753
      vertex 0 0.00784882 -0.124753
    endloop
  endfacet
  facet normal -1 0 0
    outer loop
      vertex 0 0 -0.125
      vertex 0 0 0.125
      vertex 0 0.00784882 0.124753
    endloop
  endfacet
  facet normal -1 0 0
    outer loop
      vertex 0 -0.00784882 -0.124753
      vertex 0 0 0.125
      vertex 0 0 -0.125
    endloop
  endfacet
  facet normal -1 0 0
    outer loop
      vertex 0 -0.00784882 -0.124753
      vertex 0 -0.00784882 0.124753
      vertex 0 0 0.125
    endloop
  endfacet
  facet normal -1 0 0
    outer loop
      vertex 0 -0.0156667 -0.124014
      vertex 0 -0.00784882 0.124753
      vertex 0 -0.00784882 -0.124753
    endloop
  endfacet
  facet normal -1 0 0
    outer loop
      vertex 0 -0.0156667 -0.124014
      vertex 0 -0.0156667 0.124014
      vertex 0 -0.00784882 0.124753
    endloop
  endfacet
  facet normal -1 0 0
    outer loop
      vertex 0 -0.0234227 -0.122786
      vertex 0 -0.0156667 0.124014
      vertex 0 -0.0156667 -0.124014
    endloop
  endfacet
  facet normal -1 0 0
    outer loop
      vertex 0 -0.0234227 -0.122786
      vertex 0 -0.0234227 0.122786
      vertex 0 -0.0156667 0.124014
    endloop
  endfacet
  facet normal -1 0 0
    outer loop
      vertex 0 -0.0310862 -0.121073
      vertex 0 -0.0234227 0.122786
      vertex 0 -0.0234227 -0.122786
    endloop
  endfacet
  facet normal -1 0 0
    outer loop
      vertex 0 -0.0310862 -0.121073
      vertex 0 -0.0310862 0.121073
      vertex 0 -0.0234227 0.122786
    endloop
  endfacet
  facet normal -1 0 0
    outer loop
      vertex 0 -0.0386271 -0.118882
      vertex 0 -0.0310862 0.121073
      vertex 0 -0.0310862 -0.121073
    endloop
  endfacet
  facet normal -1 0 0
    outer loop
      vertex 0 -0.0386271 -0.118882
      vertex 0 -0.0386271 0.118882
      vertex 0 -0.0310862 0.121073
    endloop
  endfacet
  facet normal -1 0 0
    outer loop
      vertex 0 -0.0460156 -0.116222
      vertex 0 -0.0386271 0.118882
      vertex 0 -0.0386271 -0.118882
    endloop
  endfacet
  facet normal -1 0 0
    outer loop
      vertex 0 -0.0460156 -0.116222
      vertex 0 -0.0460156 0.116222
      vertex 0 -0.0386271 0.118882
    endloop
  endfacet
  facet normal -1 0 0
    outer loop
      vertex 0 -0.0532224 -0.113103
      vertex 0 -0.0460156 0.116222
      vertex 0 -0.0460156 -0.116222
    endloop
  endfacet
  facet normal -1 0 0
    outer loop
      vertex 0 -0.0532224 -0.113103
      vertex 0 -0.0532224 0.113103
      vertex 0 -0.0460156 0.116222
    endloop
  endfacet
  facet normal -1 0 0
    outer loop
      vertex 0 -0.0602192 -0.109538
      vertex 0 -0.0532224 0.113103
      vertex 0 -0.0532224 -0.113103
    endloop
  endfacet
  facet normal -1 0 0
    outer loop
      vertex 0 -0.0602192 -0.109538
      vertex 0 -0.0602192 0.109538
      vertex 0 -0.0532224 0.113103
    endloop
  endfacet
  facet normal -1 0 0
    outer loop
      vertex 0 -0.0669784 -0.105541
      vertex 0 -0.0602192 0.109538
      vertex 0 -0.0602192 -0.109538
    endloop
  endfacet
  facet normal -1 0 0
    outer loop
      vertex 0 -0.0669784 -0.105541
      vertex 0 -0.0669784 0.105541
      vertex 0 -0.0602192 0.109538
    endloop
  endfacet
  facet normal -1 0 0
    outer loop
      vertex 0 -0.0734732 -0.101127
      vertex 0 -0.0669784 0.105541
      vertex 0 -0.0669784 -0.105541
    endloop
  endfacet
  facet normal -1 0 0
    outer loop
      vertex 0 -0.0734732 -0.101127
      vertex 0 -0.0734732 0.101127
      vertex 0 -0.0669784 0.105541
    endloop
  endfacet
  facet normal -1 0 0
    outer loop
      vertex 0 -0.079678 -0.0963142
      vertex 0 -0.0734732 0.101127
      vertex 0 -0.0734732 -0.101127
    endloop
  endfacet
  facet normal -1 0 0
    outer loop
      vertex 0 -0.079678 -0.0963142
      vertex 0 -0.079678 0.0963142
      vertex 0 -0.0734732 0.101127
    endloop
  endfacet
  facet normal -1 0 0
    outer loop
      vertex 0 -0.0855684 -0.0911211
      vertex 0 -0.079678 0.0963142
      vertex 0 -0.079678 -0.0963142
    endloop
  endfacet
  facet normal -1 0 0
    outer loop
      vertex 0 -0.0855684 -0.0911211
      vertex 0 -0.0855684 0.0911211
      vertex 0 -0.079678 0.0963142
    endloop
  endfacet
  facet normal -1 0 0
    outer loop
      vertex 0 -0.0911211 -0.0855684
      vertex 0 -0.0855684 0.0911211
      vertex 0 -0.0855684 -0.0911211
    endloop
  endfacet
  facet normal -1 0 0
    outer loop
      vertex 0 -0.0911211 -0.0855684
      vertex 0 -0.0911211 0.0855684
      vertex 0 -0.0855684 0.0911211
    endloop
  endfacet
  facet normal -1 0 0
    outer loop
      vertex 0 -0.0963142 -0.079678
      vertex 0 -0.0911211 0.0855684
      vertex 0 -0.0911211 -0.0855684
    endloop
  endfacet
  facet normal -1 0 0
    outer loop
      vertex 0 -0.0963142 -0.079678
      vertex 0 -0.0963142 0.079678
      vertex 0 -0.0911211 0.0855684
    endloop
  endfacet
  facet normal -1 0 0
    outer loop
      vertex 0 -0.101127 -0.0734732
      vertex 0 -0.0963142 0.079678
      vertex 0 -0.0963142 -0.079678
    endloop
  endfacet
  facet normal -1 0 0
    outer loop
      vertex 0 -0.101127 -0.0734732
      vertex 0 -0.101127 0.0734732
      vertex 0 -0.0963142 0.079678
    endloop
  endfacet
  facet normal -1 0 0
    outer loop
      vertex 0 -0.105541 -0.0669784
      vertex 0 -0.101127 0.0734732
      vertex 0 -0.101127 -0.0734732
    endloop
  endfacet
  facet normal -1 0 0
    outer loop
      vertex 0 -0.105541 -0.0669784
      vertex 0 -0.105541 0.0669784
      vertex 0 -0.101127 0.0734732
    endloop
  endfacet
  facet normal -1 0 0
    outer loop
      vertex 0 -0.109538 -0.0602192
      vertex 0 -0.105541 0.0669784
      vertex 0 -0.105541 -0.0669784
    endloop
  endfacet
  facet normal -1 0 0
    outer loop
      vertex 0 -0.109538 -0.0602192
      vertex 0 -0.109538 0.0602192
      vertex 0 -0.105541 0.0669784
    endloop
  endfacet
  facet normal -1 0 0
    outer loop
      vertex 0 -0.113103 -0.0532224
      vertex 0 -0.109538 0.0602192
      vertex 0 -0.109538 -0.0602192
    endloop
  endfacet
  facet normal -1 0 0
    outer loop
      vertex 0 -0.113103 -0.0532224
      vertex 0 -0.113103 0.0532224
      vertex 0 -0.109538 0.0602192
    endloop
  endfacet
  facet normal -1 0 0
    outer loop
      vertex 0 -0.116222 -0.0460156
      vertex 0 -0.113103 0.0532224
      vertex 0 -0.113103 -0.0532224
    endloop
  endfacet
  facet normal -1 0 0
    outer loop
      vertex 0 -0.116222 -0.0460156
      vertex 0 -0.116222 0.0460156
      vertex 0 -0.113103 0.0532224
    endloop
  endfacet
  facet normal -1 0 0
    outer loop
      vertex 0 -0.118882 -0.0386271
      vertex 0 -0.116222 0.0460156
      vertex 0 -0.116222 -0.0460156
    endloop
  endfacet
  facet normal -1 0 0
    outer loop
      vertex 0 -0.118882 -0.0386271
      vertex 0 -0.118882 0.0386271
      vertex 0 -0.116222 0.0460156
    endloop
  endfacet
  facet normal -1 0 0
    outer loop
      vertex 0 -0.121073 -0.0310862
      vertex 0 -0.118882 0.0386271
      vertex 0 -0.118882 -0.0386271
    endloop
  endfacet
  facet normal -1 0 0
    outer loop
      vertex 0 -0.121073 -0.0310862
      vertex 0 -0.121073 0.0310862
      vertex 0 -0.118882 0.0386271
    endloop
  endfacet
  facet normal -1 0 0
    outer loop
      vertex 0 -0.122786 -0.0234227
      vertex 0 -0.121073 0.0310862
      vertex 0 -0.121073 -0.0310862
    endloop
  endfacet
  facet normal -1 0 0
    outer loop
      vertex 0 -0.122786 -0.0234227
      vertex 0 -0.122786 0.0234227
      vertex 0 -0.121073 0.0310862
    endloop
  endfacet
  facet normal -1 0 0
    outer loop
      vertex 0 -0.124014 -0.0156667
      vertex 0 -0.122786 0.0234227
      vertex 0 -0.122786 -0.0234227
    endloop
  endfacet
  facet normal -1 0 0
    outer loop
      vertex 0 -0.124014 -0.0156667
      vertex 0 -0.124014 0.0156667
      vertex 0 -0.122786 0.0234227
    endloop
  endfacet
  facet normal -1 0 0
    outer loop
      vertex 0 -0.124753 -0.00784882
      vertex 0 -0.124014 0.0156667
      vertex 0 -0.124014 -0.0156667
    endloop
  endfacet
  facet normal -1 0 0
    outer loop
      vertex 0 -0.124753 -0.00784882
      vertex 0 -0.124753 0.00784882
      vertex 0 -0.124014 0.0156667
    endloop
  endfacet
  facet normal -1 0 -0
    outer loop
      vertex 0 -0.124753 0.00784882
      vertex 0 -0.124753 -0.00784882
      vertex 0 -0.125 0
    endloop
  endfacet
  facet normal 1 0 0
    outer loop
      vertex 10 0.124753 0.00784882
      vertex 10 0.124753 -0.00784882
      vertex 10 0.125 0
    endloop
  endfacet
  facet normal 1 0 0
    outer loop
      vertex 10 0.124014 0.0156667
      vertex 10 0.124753 -0.00784882
      vertex 10 0.124753 0.00784882
    endloop
  endfacet
  facet normal 1 0 0
    outer loop
      vertex 10 0.124014 0.0156667
      vertex 10 0.124014 -0.0156667
      vertex 10 0.124753 -0.00784882
    endloop
  endfacet
  facet normal 1 0 0
    outer loop
      vertex 10 0.122786 0.0234227
      vertex 10 0.124014 -0.0156667
      vertex 10 0.124014 0.0156667
    endloop
  endfacet
  facet normal 1 0 0
    outer loop
      vertex 10 0.122786 0.0234227
      vertex 10 0.122786 -0.0234227
      vertex 10 0.124014 -0.0156667
    endloop
  endfacet
  facet normal 1 0 0
    outer loop
      vertex 10 0.121073 0.0310862
      vertex 10 0.122786 -0.0234227
      vertex 10 0.122786 0.0234227
    endloop
  endfacet
  facet normal 1 0 0
    outer loop
      vertex 10 0.121073 0.0310862
      vertex 10 0.121073 -0.0310862
      vertex 10 0.122786 -0.0234227
    endloop
  endfacet
  facet normal 1 0 0
    outer loop
      vertex 10 0.118882 0.0386271
      vertex 10 0.121073 -0.0310862
      vertex 10 0.121073 0.0310862
    endloop
  endfacet
  facet normal 1 0 0
    outer loop
      vertex 10 0.118882 0.0386271
      vertex 10 0.118882 -0.0386271
      vertex 10 0.121073 -0.0310862
    endloop
  endfacet
  facet normal 1 0 0
    outer loop
      vertex 10 0.116222 0.0460156
      vertex 10 0.118882 -0.0386271
      vertex 10 0.118882 0.0386271
    endloop
  endfacet
  facet normal 1 0 0
    outer loop
      vertex 10 0.116222 0.0460156
      vertex 10 0.116222 -0.0460156
      vertex 10 0.118882 -0.0386271
    endloop
  endfacet
  facet normal 1 0 0
    outer loop
      vertex 10 0.113103 0.0532224
      vertex 10 0.116222 -0.0460156
      vertex 10 0.116222 0.0460156
    endloop
  endfacet
  facet normal 1 0 0
    outer loop
      vertex 10 0.113103 0.0532224
      vertex 10 0.113103 -0.0532224
      vertex 10 0.116222 -0.0460156
    endloop
  endfacet
  facet normal 1 0 0
    outer loop
      vertex 10 0.109538 0.0602192
      vertex 10 0.113103 -0.0532224
      vertex 10 0.113103 0.0532224
    endloop
  endfacet
  facet normal 1 0 0
    outer loop
      vertex 10 0.109538 0.0602192
      vertex 10 0.109538 -0.0602192
      vertex 10 0.113103 -0.0532224
    endloop
  endfacet
  facet normal 1 0 0
    outer loop
      vertex 10 0.105541 0.0669784
      vertex 10 0.109538 -0.0602192
      vertex 10 0.109538 0.0602192
    endloop
  endfacet
  facet normal 1 0 0
    outer loop
      vertex 10 0.105541 0.0669784
      vertex 10 0.105541 -0.0669784
      vertex 10 0.109538 -0.0602192
    endloop
  endfacet
  facet normal 1 0 0
    outer loop
      vertex 10 0.101127 0.0734732
      vertex 10 0.105541 -0.0669784
      vertex 10 0.105541 0.0669784
    endloop
  endfacet
  facet normal 1 0 0
    outer loop
      vertex 10 0.101127 0.0734732
      vertex 10 0.101127 -0.0734732
      vertex 10 0.105541 -0.0669784
    endloop
  endfacet
  facet normal 1 0 0
    outer loop
      vertex 10 0.0963142 0.079678
      vertex 10 0.101127 -0.0734732
      vertex 10 0.101127 0.0734732
    endloop
  endfacet
  facet normal 1 0 0
    outer loop
      vertex 10 0.0963142 0.079678
      vertex 10 0.0963142 -0.079678
      vertex 10 0.101127 -0.0734732
    endloop
  endfacet
  facet normal 1 0 0
    outer loop
      vertex 10 0.0911211 0.0855684
      vertex 10 0.0963142 -0.079678
      vertex 10 0.0963142 0.079678
    endloop
  endfacet
  facet normal 1 0 0
    outer loop
      vertex 10 0.0911211 0.0855684
      vertex 10 0.0911211 -0.0855684
      vertex 10 0.0963142 -0.079678
    endloop
  endfacet
  facet normal 1 0 0
    outer loop
      vertex 10 0.0855684 0.0911211
      vertex 10 0.0911211 -0.0855684
      vertex 10 0.0911211 0.0855684
    endloop
  endfacet
  facet normal 1 0 0
    outer loop
      vertex 10 0.0855684 0.0911211
      vertex 10 0.0855684 -0.0911211
      vertex 10 0.0911211 -0.0855684
    endloop
  endfacet
  facet normal 1 0 0
    outer loop
      vertex 10 0.079678 0.0963142
      vertex 10 0.0855684 -0.0911211
      vertex 10 0.0855684 0.0911211
    endloop
  endfacet
  facet normal 1 0 0
    outer loop
      vertex 10 0.079678 0.0963142
      vertex 10 0.079678 -0.0963142
      vertex 10 0.0855684 -0.0911211
    endloop
  endfacet
  facet normal 1 0 0
    outer loop
      vertex 10 0.0734732 0.101127
      vertex 10 0.079678 -0.0963142
      vertex 10 0.079678 0.0963142
    endloop
  endfacet
  facet normal 1 0 0
    outer loop
      vertex 10 0.0734732 0.101127
      vertex 10 0.0734732 -0.101127
      vertex 10 0.079678 -0.0963142
    endloop
  endfacet
  facet normal 1 0 0
    outer loop
      vertex 10 0.0669784 0.105541
      vertex 10 0.0734732 -0.101127
      vertex 10 0.0734732 0.101127
    endloop
  endfacet
  facet normal 1 0 0
    outer loop
      vertex 10 0.0669784 0.105541
      vertex 10 0.0669784 -0.105541
      vertex 10 0.0734732 -0.101127
    endloop
  endfacet
  facet normal 1 0 0
    outer loop
      vertex 10 0.0602192 0.109538
      vertex 10 0.0669784 -0.105541
      vertex 10 0.0669784 0.105541
    endloop
  endfacet
  facet normal 1 0 0
    outer loop
      vertex 10 0.0602192 0.109538
      vertex 10 0.0602192 -0.109538
      vertex 10 0.0669784 -0.105541
    endloop
  endfacet
  facet normal 1 0 0
    outer loop
      vertex 10 0.0532224 0.113103
      vertex 10 0.0602192 -0.109538
      vertex 10 0.0602192 0.109538
    endloop
  endfacet
  facet normal 1 0 0
    outer loop
      vertex 10 0.0532224 0.113103
      vertex 10 0.0532224 -0.113103
      vertex 10 0.0602192 -0.109538
    endloop
  endfacet
  facet normal 1 0 0
    outer loop
      vertex 10 0.0460156 0.116222
      vertex 10 0.0532224 -0.113103
      vertex 10 0.0532224 0.113103
    endloop
  endfacet
  facet normal 1 0 0
    outer loop
      vertex 10 0.0460156 0.116222
      vertex 10 0.0460156 -0.116222
      vertex 10 0.0532224 -0.113103
    endloop
  endfacet
  facet normal 1 0 0
    outer loop
      vertex 10 0.0386271 0.118882
      vertex 10 0.0460156 -0.116222
      vertex 10 0.0460156 0.116222
    endloop
  endfacet
  facet normal 1 0 0
    outer loop
      vertex 10 0.0386271 0.118882
      vertex 10 0.0386271 -0.118882
      vertex 10 0.0460156 -0.116222
    endloop
  endfacet
  facet normal 1 0 0
    outer loop
      vertex 10 0.0310862 0.121073
      vertex 10 0.0386271 -0.118882
      vertex 10 0.0386271 0.118882
    endloop
  endfacet
  facet normal 1 0 0
    outer loop
      vertex 10 0.0310862 0.121073
      vertex 10 0.0310862 -0.121073
      vertex 10 0.0386271 -0.118882
    endloop
  endfacet
  facet normal 1 0 0
    outer loop
      vertex 10 0.0234227 0.122786
      vertex 10 0.0310862 -0.121073
      vertex 10 0.0310862 0.121073
    endloop
  endfacet
  facet normal 1 0 0
    outer loop
      vertex 10 0.0234227 0.122786
      vertex 10 0.0234227 -0.122786
      vertex 10 0.0310862 -0.121073
    endloop
  endfacet
  facet normal 1 0 0
    outer loop
      vertex 10 0.0156667 0.124014
      vertex 10 0.0234227 -0.122786
      vertex 10 0.0234227 0.122786
    endloop
  endfacet
  facet normal 1 0 0
    outer loop
      vertex 10 0.0156667 0.124014
      vertex 10 0.0156667 -0.124014
      vertex 10 0.0234227 -0.122786
    endloop
  endfacet
  facet normal 1 0 0
    outer loop
      vertex 10 0.00784882 0.124753
      vertex 10 0.0156667 -0.124014
      vertex 10 0.0156667 0.124014
    endloop
  endfacet
  facet normal 1 0 0
    outer loop
      vertex 10 0.00784882 0.124753
      vertex 10 0.00784882 -0.124753
      vertex 10 0.0156667 -0.124014
    endloop
  endfacet
  facet normal 1 0 0
    outer loop
      vertex 10 0 0.125
      vertex 10 0.00784882 -0.124753
      vertex 10 0.00784882 0.124753
    endloop
  endfacet
  facet normal 1 0 0
    outer loop
      vertex 10 0 0.125
      vertex 10 0 -0.125
      vertex 10 0.00784882 -0.124753
    endloop
  endfacet
  facet normal 1 -0 0
    outer loop
      vertex 10 -0.00784882 0.124753
      vertex 10 0 -0.125
      vertex 10 0 0.125
    endloop
  endfacet
  facet normal 1 0 0
    outer loop
      vertex 10 -0.00784882 0.124753
      vertex 10 -0.00784882 -0.124753
      vertex 10 0 -0.125
    endloop
  endfacet
  facet normal 1 -0 0
    outer loop
      vertex 10 -0.0156667 0.124014
      vertex 10 -0.00784882 -0.124753
      vertex 10 -0.00784882 0.124753
    endloop
  endfacet
  facet normal 1 0 0
    outer loop
      vertex 10 -0.0156667 0.124014
      vertex 10 -0.0156667 -0.124014
      vertex 10 -0.00784882 -0.124753
    endloop
  endfacet
  facet normal 1 -0 0
    outer loop
      vertex 10 -0.0234227 0.122786
      vertex 10 -0.0156667 -0.124014
      vertex 10 -0.0156667 0.124014
    endloop
  endfacet
  facet normal 1 0 0
    outer loop
      vertex 10 -0.0234227 0.122786
      vertex 10 -0.0234227 -0.122786
      vertex 10 -0.0156667 -0.124014
    endloop
  endfacet
  facet normal 1 -0 0
    outer loop
      vertex 10 -0.0310862 0.121073
      vertex 10 -0.0234227 -0.122786
      vertex 10 -0.0234227 0.122786
    endloop
  endfacet
  facet normal 1 0 0
    outer loop
      vertex 10 -0.0310862 0.121073
      vertex 10 -0.0310862 -0.121073
      vertex 10 -0.0234227 -0.122786
    endloop
  endfacet
  facet normal 1 -0 0
    outer loop
      vertex 10 -0.0386271 0.118882
      vertex 10 -0.0310862 -0.121073
      vertex 10 -0.0310862 0.121073
    endloop
  endfacet
  facet normal 1 0 0
    outer loop
      vertex 10 -0.0386271 0.118882
      vertex 10 -0.0386271 -0.118882
      vertex 10 -0.0310862 -0.121073
    endloop
  endfacet
  facet normal 1 -0 0
    outer loop
      vertex 10 -0.0460156 0.116222
      vertex 10 -0.0386271 -0.118882
      vertex 10 -0.0386271 0.118882
    endloop
  endfacet
  facet normal 1 0 0
    outer loop
      vertex 10 -0.0460156 0.116222
      vertex 10 -0.0460156 -0.116222
      vertex 10 -0.0386271 -0.118882
    endloop
  endfacet
  facet normal 1 -0 0
    outer loop
      vertex 10 -0.0532224 0.113103
      vertex 10 -0.0460156 -0.116222
      vertex 10 -0.0460156 0.116222
    endloop
  endfacet
  facet normal 1 0 0
    outer loop
      vertex 10 -0.0532224 0.113103
      vertex 10 -0.0532224 -0.113103
      vertex 10 -0.0460156 -0.116222
    endloop
  endfacet
  facet normal 1 -0 0
    outer loop
      vertex 10 -0.0602192 0.109538
      vertex 10 -0.0532224 -0.113103
      vertex 10 -0.0532224 0.113103
    endloop
  endfacet
  facet normal 1 0 0
    outer loop
      vertex 10 -0.0602192 0.109538
      vertex 10 -0.0602192 -0.109538
      vertex 10 -0.0532224 -0.113103
    endloop
  endfacet
  facet normal 1 -0 0
    outer loop
      vertex 10 -0.0669784 0.105541
      vertex 10 -0.0602192 -0.109538
      vertex 10 -0.0602192 0.109538
    endloop
  endfacet
  facet normal 1 0 0
    outer loop
      vertex 10 -0.0669784 0.105541
      vertex 10 -0.0669784 -0.105541
      vertex 10 -0.0602192 -0.109538
    endloop
  endfacet
  facet normal 1 -0 0
    outer loop
      vertex 10 -0.0734732 0.101127
      vertex 10 -0.0669784 -0.105541
      vertex 10 -0.0669784 0.105541
    endloop
  endfacet
  facet normal 1 0 0
    outer loop
      vertex 10 -0.0734732 0.101127
      vertex 10 -0.0734732 -0.101127
      vertex 10 -0.0669784 -0.105541
    endloop
  endfacet
  facet normal 1 -0 0
    outer loop
      vertex 10 -0.079678 0.0963142
      vertex 10 -0.0734732 -0.101127
      vertex 10 -0.0734732 0.101127
    endloop
  endfacet
  facet normal 1 0 0
    outer loop
      vertex 10 -0.079678 0.0963142
      vertex 10 -0.079678 -0.0963142
      vertex 10 -0.0734732 -0.101127
    endloop
  endfacet
  facet normal 1 -0 0
    outer loop
      vertex 10 -0.0855684 0.0911211
      vertex 10 -0.079678 -0.0963142
      vertex 10 -0.079678 0.0963142
    endloop
  endfacet
  facet normal 1 0 0
    outer loop
      vertex 10 -0.0855684 0.0911211
      vertex 10 -0.0855684 -0.0911211
      vertex 10 -0.079678 -0.0963142
    endloop
  endfacet
  facet normal 1 -0 0
    outer loop
      vertex 10 -0.0911211 0.0855684
      vertex 10 -0.0855684 -0.0911211
      vertex 10 -0.0855684 0.0911211
    endloop
  endfacet
  facet normal 1 0 0
    outer loop
      vertex 10 -0.0911211 0.0855684
      vertex 10 -0.0911211 -0.0855684
      vertex 10 -0.0855684 -0.0911211
    endloop
  endfacet
  facet normal 1 -0 0
    outer loop
      vertex 10 -0.0963142 0.079678
      vertex 10 -0.0911211 -0.0855684
      vertex 10 -0.0911211 0.0855684
    endloop
  endfacet
  facet normal 1 0 0
    outer loop
      vertex 10 -0.0963142 0.079678
      vertex 10 -0.0963142 -0.079678
      vertex 10 -0.0911211 -0.0855684
    endloop
  endfacet
  facet normal 1 -0 0
    outer loop
      vertex 10 -0.101127 0.0734732
      vertex 10 -0.0963142 -0.079678
      vertex 10 -0.0963142 0.079678
    endloop
  endfacet
  facet normal 1 0 0
    outer loop
      vertex 10 -0.101127 0.0734732
      vertex 10 -0.101127 -0.0734732
      vertex 10 -0.0963142 -0.079678
    endloop
  endfacet
  facet normal 1 -0 0
    outer loop
      vertex 10 -0.105541 0.0669784
      vertex 10 -0.101127 -0.0734732
      vertex 10 -0.101127 0.0734732
    endloop
  endfacet
  facet normal 1 0 0
    outer loop
      vertex 10 -0.105541 0.0669784
      vertex 10 -0.105541 -0.0669784
      vertex 10 -0.101127 -0.0734732
    endloop
  endfacet
  facet normal 1 -0 0
    outer loop
      vertex 10 -0.109538 0.0602192
      vertex 10 -0.105541 -0.0669784
      vertex 10 -0.105541 0.0669784
    endloop
  endfacet
  facet normal 1 0 0
    outer loop
      vertex 10 -0.109538 0.0602192
      vertex 10 -0.109538 -0.0602192
      vertex 10 -0.105541 -0.0669784
    endloop
  endfacet
  facet normal 1 -0 0
    outer loop
      vertex 10 -0.113103 0.0532224
      vertex 10 -0.109538 -0.0602192
      vertex 10 -0.109538 0.0602192
    endloop
  endfacet
  facet normal 1 0 0
    outer loop
      vertex 10 -0.113103 0.0532224
      vertex 10 -0.113103 -0.0532224
      vertex 10 -0.109538 -0.0602192
    endloop
  endfacet
  facet normal 1 -0 0
    outer loop
      vertex 10 -0.116222 0.0460156
      vertex 10 -0.113103 -0.0532224
      vertex 10 -0.113103 0.0532224
    endloop
  endfacet
  facet normal 1 0 0
    outer loop
      vertex 10 -0.116222 0.0460156
      vertex 10 -0.116222 -0.0460156
      vertex 10 -0.113103 -0.0532224
    endloop
  endfacet
  facet normal 1 -0 0
    outer loop
      vertex 10 -0.118882 0.0386271
      vertex 10 -0.116222 -0.0460156
      vertex 10 -0.116222 0.0460156
    endloop
  endfacet
  facet normal 1 0 0
    outer loop
      vertex 10 -0.118882 0.0386271
      vertex 10 -0.118882 -0.0386271
      vertex 10 -0.116222 -0.0460156
    endloop
  endfacet
  facet normal 1 -0 0
    outer loop
      vertex 10 -0.121073 0.0310862
      vertex 10 -0.118882 -0.0386271
      vertex 10 -0.118882 0.0386271
    endloop
  endfacet
  facet normal 1 0 0
    outer loop
      vertex 10 -0.121073 0.0310862
      vertex 10 -0.121073 -0.0310862
      vertex 10 -0.118882 -0.0386271
    endloop
  endfacet
  facet normal 1 -0 0
    outer loop
      vertex 10 -0.122786 0.0234227
      vertex 10 -0.121073 -0.0310862
      vertex 10 -0.121073 0.0310862
    endloop
  endfacet
  facet normal 1 0 0
    outer loop
      vertex 10 -0.122786 0.0234227
      vertex 10 -0.122786 -0.0234227
      vertex 10 -0.121073 -0.0310862
    endloop
  endfacet
  facet normal 1 -0 0
    outer loop
      vertex 10 -0.124014 0.0156667
      vertex 10 -0.122786 -0.0234227
      vertex 10 -0.122786 0.0234227
    endloop
  endfacet
  facet normal 1 0 0
    outer loop
      vertex 10 -0.124014 0.0156667
      vertex 10 -0.124014 -0.0156667
      vertex 10 -0.122786 -0.0234227
    endloop
  endfacet
  facet normal 1 -0 0
    outer loop
      vertex 10 -0.124753 0.00784882
      vertex 10 -0.124014 -0.0156667
      vertex 10 -0.124014 0.0156667
    endloop
  endfacet
  facet normal 1 0 0
    outer loop
      vertex 10 -0.124753 0.00784882
      vertex 10 -0.124753 -0.00784882
      vertex 10 -0.124014 -0.0156667
    endloop
  endfacet
  facet normal 1 0 -0
    outer loop
      vertex 10 -0.124753 -0.00784882
      vertex 10 -0.124753 0.00784882
      vertex 10 -0.125 0
    endloop
  endfacet
endsolid OpenSCAD_Model
