solid OpenSCAD_Model
  facet normal -0.0789203 -0.0203403 0.996673
    outer loop
      vertex 0 -1.47 0.03
      vertex 0.25 -2.44 0.03
      vertex 0 0 0.06
    endloop
  endfacet
  facet normal -0.0415994 -0.0288885 0.998717
    outer loop
      vertex 0.25 -2.44 0.03
      vertex 0.5 -2.8 0.03
      vertex 0.25 -0.02 0.1
    endloop
  endfacet
  facet normal -0.0299706 -0.0325767 0.99902
    outer loop
      vertex 0.5 -2.8 0.03
      vertex 0.75 -3.03 0.03
      vertex 0.5 -0.04 0.12
    endloop
  endfacet
  facet normal -0.0289577 -0.040219 0.998771
    outer loop
      vertex 0.75 -3.03 0.03
      vertex 1 -3.21 0.03
      vertex 0.75 -0.05 0.15
    endloop
  endfacet
  facet normal -0.0213075 -0.0443905 0.998787
    outer loop
      vertex 1 -3.21 0.03
      vertex 1.25 -3.33 0.03
      vertex 1 -0.06 0.17
    endloop
  endfacet
  facet normal -0.0157328 -0.0491651 0.998667
    outer loop
      vertex 1.25 -3.33 0.03
      vertex 1.5 -3.41 0.03
      vertex 1.25 -0.08 0.19
    endloop
  endfacet
  facet normal -0.0107944 -0.0539721 0.998484
    outer loop
      vertex 1.5 -3.41 0.03
      vertex 1.75 -3.46 0.03
      vertex 1.5 -0.08 0.21
    endloop
  endfacet
  facet normal -0.00225161 -0.0562903 0.998412
    outer loop
      vertex 1.75 -3.46 0.03
      vertex 2 -3.47 0.03
      vertex 1.75 -0.09 0.22
    endloop
  endfacet
  facet normal 0 -0.0592429 0.998244
    outer loop
      vertex 2 -3.47 0.03
      vertex 2.25 -3.47 0.03
      vertex 2 -0.1 0.23
    endloop
  endfacet
  facet normal 0 -0.0592429 0.998244
    outer loop
      vertex 2.25 -3.47 0.03
      vertex 2.5 -3.47 0.03
      vertex 2.25 -0.1 0.23
    endloop
  endfacet
  facet normal 0 -0.0621939 0.998064
    outer loop
      vertex 2.5 -3.47 0.03
      vertex 2.75 -3.47 0.03
      vertex 2.5 -0.1 0.24
    endloop
  endfacet
  facet normal 0 -0.0592429 0.998244
    outer loop
      vertex 2.75 -3.47 0.03
      vertex 3 -3.47 0.03
      vertex 2.75 -0.1 0.23
    endloop
  endfacet
  facet normal 0 -0.0592429 0.998244
    outer loop
      vertex 3 -3.47 0.03
      vertex 3.25 -3.47 0.03
      vertex 3 -0.1 0.23
    endloop
  endfacet
  facet normal 0 -0.0561244 0.998424
    outer loop
      vertex 3.25 -3.47 0.03
      vertex 3.5 -3.47 0.03
      vertex 3.25 -0.09 0.22
    endloop
  endfacet
  facet normal 0 -0.0530227 0.998593
    outer loop
      vertex 3.5 -3.47 0.03
      vertex 3.75 -3.47 0.03
      vertex 3.5 -0.08 0.21
    endloop
  endfacet
  facet normal 0 -0.0471452 0.998888
    outer loop
      vertex 3.75 -3.47 0.03
      vertex 4 -3.47 0.03
      vertex 3.75 -0.08 0.19
    endloop
  endfacet
  facet normal 0 -0.0410212 0.999158
    outer loop
      vertex 4 -3.47 0.03
      vertex 4.25 -3.47 0.03
      vertex 4 -0.06 0.17
    endloop
  endfacet
  facet normal 0 -0.0350661 0.999385
    outer loop
      vertex 4.25 -3.47 0.03
      vertex 4.5 -3.47 0.03
      vertex 4.25 -0.05 0.15
    endloop
  endfacet
  facet normal 0 -0.02623 0.999656
    outer loop
      vertex 4.5 -3.47 0.03
      vertex 4.75 -3.47 0.03
      vertex 4.5 -0.04 0.12
    endloop
  endfacet
  facet normal 0 -0.0202857 0.999794
    outer loop
      vertex 4.75 -3.47 0.03
      vertex 5 -3.47 0.03
      vertex 4.75 -0.02 0.1
    endloop
  endfacet
  facet normal -0.160152 -0.0285403 0.98668
    outer loop
      vertex 0.25 -2.44 0.03
      vertex 0.25 -0.02 0.1
      vertex 0 0 0.06
    endloop
  endfacet
  facet normal -0.0822848 -0.0324809 0.996079
    outer loop
      vertex 0.5 -2.8 0.03
      vertex 0.5 -0.04 0.12
      vertex 0.25 -0.02 0.1
    endloop
  endfacet
  facet normal -0.120625 -0.0399421 0.991894
    outer loop
      vertex 0.75 -3.03 0.03
      vertex 0.75 -0.05 0.15
      vertex 0.5 -0.04 0.12
    endloop
  endfacet
  facet normal -0.0814258 -0.0442532 0.995696
    outer loop
      vertex 1 -3.21 0.03
      vertex 1 -0.06 0.17
      vertex 0.75 -0.05 0.15
    endloop
  endfacet
  facet normal -0.0835438 -0.0489993 0.995299
    outer loop
      vertex 1.25 -3.33 0.03
      vertex 1.25 -0.08 0.19
      vertex 1 -0.06 0.17
    endloop
  endfacet
  facet normal -0.0796297 -0.0538039 0.995371
    outer loop
      vertex 1.5 -3.41 0.03
      vertex 1.5 -0.08 0.21
      vertex 1.25 -0.08 0.19
    endloop
  endfacet
  facet normal -0.0421507 -0.0562404 0.997527
    outer loop
      vertex 1.75 -3.46 0.03
      vertex 1.75 -0.09 0.22
      vertex 1.5 -0.08 0.21
    endloop
  endfacet
  facet normal -0.0422617 -0.05919 0.997352
    outer loop
      vertex 2 -3.47 0.03
      vertex 2 -0.1 0.23
      vertex 1.75 -0.09 0.22
    endloop
  endfacet
  facet normal 0 -0.0592429 0.998244
    outer loop
      vertex 2.25 -3.47 0.03
      vertex 2.25 -0.1 0.23
      vertex 2 -0.1 0.23
    endloop
  endfacet
  facet normal -0.0398908 -0.0621444 0.99727
    outer loop
      vertex 2.5 -3.47 0.03
      vertex 2.5 -0.1 0.24
      vertex 2.25 -0.1 0.23
    endloop
  endfacet
  facet normal 0.039898 -0.0591958 0.997449
    outer loop
      vertex 2.75 -3.47 0.03
      vertex 2.75 -0.1 0.23
      vertex 2.5 -0.1 0.24
    endloop
  endfacet
  facet normal 0 -0.0592429 0.998244
    outer loop
      vertex 3 -3.47 0.03
      vertex 3 -0.1 0.23
      vertex 2.75 -0.1 0.23
    endloop
  endfacet
  facet normal 0.0421445 -0.0560745 0.997537
    outer loop
      vertex 3.25 -3.47 0.03
      vertex 3.25 -0.09 0.22
      vertex 3 -0.1 0.23
    endloop
  endfacet
  facet normal 0.0420275 -0.0529758 0.997711
    outer loop
      vertex 3.5 -3.47 0.03
      vertex 3.5 -0.08 0.21
      vertex 3.25 -0.09 0.22
    endloop
  endfacet
  facet normal 0.0796571 -0.0469953 0.995714
    outer loop
      vertex 3.75 -3.47 0.03
      vertex 3.75 -0.08 0.19
      vertex 3.5 -0.08 0.21
    endloop
  endfacet
  facet normal 0.0829277 -0.0408799 0.995717
    outer loop
      vertex 4 -3.47 0.03
      vertex 4 -0.06 0.17
      vertex 3.75 -0.08 0.19
    endloop
  endfacet
  facet normal 0.0810856 -0.0349507 0.996094
    outer loop
      vertex 4.25 -3.47 0.03
      vertex 4.25 -0.05 0.15
      vertex 4 -0.06 0.17
    endloop
  endfacet
  facet normal 0.120132 -0.0260401 0.992416
    outer loop
      vertex 4.5 -3.47 0.03
      vertex 4.5 -0.04 0.12
      vertex 4.25 -0.05 0.15
    endloop
  endfacet
  facet normal 0.081336 -0.0202185 0.996482
    outer loop
      vertex 4.75 -3.47 0.03
      vertex 4.75 -0.02 0.1
      vertex 4.5 -0.04 0.12
    endloop
  endfacet
  facet normal 0.158651 -0.00853572 0.987298
    outer loop
      vertex 5 -3.47 0.03
      vertex 5 0 0.06
      vertex 4.75 -0.02 0.1
    endloop
  endfacet
  facet normal 0.0789203 0.0203403 -0.996673
    outer loop
      vertex 0 0 0.059
      vertex 0.25 -2.44 0.029
      vertex 0 -1.47 0.029
    endloop
  endfacet
  facet normal 0.0415994 0.0288885 -0.998717
    outer loop
      vertex 0.25 -0.02 0.099
      vertex 0.5 -2.8 0.029
      vertex 0.25 -2.44 0.029
    endloop
  endfacet
  facet normal 0.0299706 0.0325767 -0.99902
    outer loop
      vertex 0.5 -0.04 0.119
      vertex 0.75 -3.03 0.029
      vertex 0.5 -2.8 0.029
    endloop
  endfacet
  facet normal 0.0289577 0.040219 -0.998771
    outer loop
      vertex 0.75 -0.05 0.149
      vertex 1 -3.21 0.029
      vertex 0.75 -3.03 0.029
    endloop
  endfacet
  facet normal 0.0213075 0.0443905 -0.998787
    outer loop
      vertex 1 -0.06 0.169
      vertex 1.25 -3.33 0.029
      vertex 1 -3.21 0.029
    endloop
  endfacet
  facet normal 0.0157328 0.0491651 -0.998667
    outer loop
      vertex 1.25 -0.08 0.189
      vertex 1.5 -3.41 0.029
      vertex 1.25 -3.33 0.029
    endloop
  endfacet
  facet normal 0.0107944 0.0539721 -0.998484
    outer loop
      vertex 1.5 -0.08 0.209
      vertex 1.75 -3.46 0.029
      vertex 1.5 -3.41 0.029
    endloop
  endfacet
  facet normal 0.00225161 0.0562903 -0.998412
    outer loop
      vertex 1.75 -0.09 0.219
      vertex 2 -3.47 0.029
      vertex 1.75 -3.46 0.029
    endloop
  endfacet
  facet normal 0 0.0592429 -0.998244
    outer loop
      vertex 2 -0.1 0.229
      vertex 2.25 -3.47 0.029
      vertex 2 -3.47 0.029
    endloop
  endfacet
  facet normal 0 0.0592429 -0.998244
    outer loop
      vertex 2.25 -0.1 0.229
      vertex 2.5 -3.47 0.029
      vertex 2.25 -3.47 0.029
    endloop
  endfacet
  facet normal 0 0.0621939 -0.998064
    outer loop
      vertex 2.5 -0.1 0.239
      vertex 2.75 -3.47 0.029
      vertex 2.5 -3.47 0.029
    endloop
  endfacet
  facet normal 0 0.0592429 -0.998244
    outer loop
      vertex 2.75 -0.1 0.229
      vertex 3 -3.47 0.029
      vertex 2.75 -3.47 0.029
    endloop
  endfacet
  facet normal 0 0.0592429 -0.998244
    outer loop
      vertex 3 -0.1 0.229
      vertex 3.25 -3.47 0.029
      vertex 3 -3.47 0.029
    endloop
  endfacet
  facet normal 0 0.0561244 -0.998424
    outer loop
      vertex 3.25 -0.09 0.219
      vertex 3.5 -3.47 0.029
      vertex 3.25 -3.47 0.029
    endloop
  endfacet
  facet normal 0 0.0530227 -0.998593
    outer loop
      vertex 3.5 -0.08 0.209
      vertex 3.75 -3.47 0.029
      vertex 3.5 -3.47 0.029
    endloop
  endfacet
  facet normal 0 0.0471452 -0.998888
    outer loop
      vertex 3.75 -0.08 0.189
      vertex 4 -3.47 0.029
      vertex 3.75 -3.47 0.029
    endloop
  endfacet
  facet normal 0 0.0410212 -0.999158
    outer loop
      vertex 4 -0.06 0.169
      vertex 4.25 -3.47 0.029
      vertex 4 -3.47 0.029
    endloop
  endfacet
  facet normal 0 0.0350661 -0.999385
    outer loop
      vertex 4.25 -0.05 0.149
      vertex 4.5 -3.47 0.029
      vertex 4.25 -3.47 0.029
    endloop
  endfacet
  facet normal 0 0.02623 -0.999656
    outer loop
      vertex 4.5 -0.04 0.119
      vertex 4.75 -3.47 0.029
      vertex 4.5 -3.47 0.029
    endloop
  endfacet
  facet normal 0 0.0202857 -0.999794
    outer loop
      vertex 4.75 -0.02 0.099
      vertex 5 -3.47 0.029
      vertex 4.75 -3.47 0.029
    endloop
  endfacet
  facet normal 0.160152 0.0285403 -0.98668
    outer loop
      vertex 0 0 0.059
      vertex 0.25 -0.02 0.099
      vertex 0.25 -2.44 0.029
    endloop
  endfacet
  facet normal 0.0822848 0.0324809 -0.996079
    outer loop
      vertex 0.25 -0.02 0.099
      vertex 0.5 -0.04 0.119
      vertex 0.5 -2.8 0.029
    endloop
  endfacet
  facet normal 0.120625 0.0399421 -0.991894
    outer loop
      vertex 0.5 -0.04 0.119
      vertex 0.75 -0.05 0.149
      vertex 0.75 -3.03 0.029
    endloop
  endfacet
  facet normal 0.0814258 0.0442532 -0.995696
    outer loop
      vertex 0.75 -0.05 0.149
      vertex 1 -0.06 0.169
      vertex 1 -3.21 0.029
    endloop
  endfacet
  facet normal 0.0835438 0.0489993 -0.995299
    outer loop
      vertex 1 -0.06 0.169
      vertex 1.25 -0.08 0.189
      vertex 1.25 -3.33 0.029
    endloop
  endfacet
  facet normal 0.0796297 0.0538039 -0.995371
    outer loop
      vertex 1.25 -0.08 0.189
      vertex 1.5 -0.08 0.209
      vertex 1.5 -3.41 0.029
    endloop
  endfacet
  facet normal 0.0421507 0.0562404 -0.997527
    outer loop
      vertex 1.5 -0.08 0.209
      vertex 1.75 -0.09 0.219
      vertex 1.75 -3.46 0.029
    endloop
  endfacet
  facet normal 0.0422617 0.05919 -0.997352
    outer loop
      vertex 1.75 -0.09 0.219
      vertex 2 -0.1 0.229
      vertex 2 -3.47 0.029
    endloop
  endfacet
  facet normal 0 0.0592429 -0.998244
    outer loop
      vertex 2 -0.1 0.229
      vertex 2.25 -0.1 0.229
      vertex 2.25 -3.47 0.029
    endloop
  endfacet
  facet normal 0.0398908 0.0621444 -0.99727
    outer loop
      vertex 2.25 -0.1 0.229
      vertex 2.5 -0.1 0.239
      vertex 2.5 -3.47 0.029
    endloop
  endfacet
  facet normal -0.039898 0.0591958 -0.997449
    outer loop
      vertex 2.5 -0.1 0.239
      vertex 2.75 -0.1 0.229
      vertex 2.75 -3.47 0.029
    endloop
  endfacet
  facet normal 0 0.0592429 -0.998244
    outer loop
      vertex 2.75 -0.1 0.229
      vertex 3 -0.1 0.229
      vertex 3 -3.47 0.029
    endloop
  endfacet
  facet normal -0.0421445 0.0560745 -0.997537
    outer loop
      vertex 3 -0.1 0.229
      vertex 3.25 -0.09 0.219
      vertex 3.25 -3.47 0.029
    endloop
  endfacet
  facet normal -0.0420275 0.0529758 -0.997711
    outer loop
      vertex 3.25 -0.09 0.219
      vertex 3.5 -0.08 0.209
      vertex 3.5 -3.47 0.029
    endloop
  endfacet
  facet normal -0.0796571 0.0469953 -0.995714
    outer loop
      vertex 3.5 -0.08 0.209
      vertex 3.75 -0.08 0.189
      vertex 3.75 -3.47 0.029
    endloop
  endfacet
  facet normal -0.0829277 0.0408799 -0.995717
    outer loop
      vertex 3.75 -0.08 0.189
      vertex 4 -0.06 0.169
      vertex 4 -3.47 0.029
    endloop
  endfacet
  facet normal -0.0810856 0.0349507 -0.996094
    outer loop
      vertex 4 -0.06 0.169
      vertex 4.25 -0.05 0.149
      vertex 4.25 -3.47 0.029
    endloop
  endfacet
  facet normal -0.120132 0.0260401 -0.992416
    outer loop
      vertex 4.25 -0.05 0.149
      vertex 4.5 -0.04 0.119
      vertex 4.5 -3.47 0.029
    endloop
  endfacet
  facet normal -0.081336 0.0202185 -0.996482
    outer loop
      vertex 4.5 -0.04 0.119
      vertex 4.75 -0.02 0.099
      vertex 4.75 -3.47 0.029
    endloop
  endfacet
  facet normal -0.158651 0.00853572 -0.987298
    outer loop
      vertex 4.75 -0.02 0.099
      vertex 5 0 0.059
      vertex 5 -3.47 0.029
    endloop
  endfacet
  facet normal -1 0 0
    outer loop
      vertex 0 -1.47 0.03
      vertex 0 0 0.059
      vertex 0 -1.47 0.029
    endloop
  endfacet
  facet normal -1 -0 0
    outer loop
      vertex 0 0 0.059
      vertex 0 -1.47 0.03
      vertex 0 0 0.06
    endloop
  endfacet
  facet normal -0.968355 -0.249576 0
    outer loop
      vertex 0.25 -2.44 0.029
      vertex 0 -1.47 0.03
      vertex 0 -1.47 0.029
    endloop
  endfacet
  facet normal -0.968355 -0.249576 0
    outer loop
      vertex 0 -1.47 0.03
      vertex 0.25 -2.44 0.029
      vertex 0.25 -2.44 0.03
    endloop
  endfacet
  facet normal -0.82137 -0.570396 0
    outer loop
      vertex 0.5 -2.8 0.029
      vertex 0.25 -2.44 0.03
      vertex 0.25 -2.44 0.029
    endloop
  endfacet
  facet normal -0.82137 -0.570396 0
    outer loop
      vertex 0.25 -2.44 0.03
      vertex 0.5 -2.8 0.029
      vertex 0.5 -2.8 0.03
    endloop
  endfacet
  facet normal -0.677057 -0.735931 0
    outer loop
      vertex 0.5 -2.8 0.029
      vertex 0.75 -3.03 0.03
      vertex 0.5 -2.8 0.03
    endloop
  endfacet
  facet normal -0.677057 -0.735931 -0
    outer loop
      vertex 0.75 -3.03 0.03
      vertex 0.5 -2.8 0.029
      vertex 0.75 -3.03 0.029
    endloop
  endfacet
  facet normal -0.584305 -0.811534 0
    outer loop
      vertex 0.75 -3.03 0.029
      vertex 1 -3.21 0.03
      vertex 0.75 -3.03 0.03
    endloop
  endfacet
  facet normal -0.584305 -0.811534 -0
    outer loop
      vertex 1 -3.21 0.03
      vertex 0.75 -3.03 0.029
      vertex 1 -3.21 0.029
    endloop
  endfacet
  facet normal -0.432731 -0.901523 0
    outer loop
      vertex 1 -3.21 0.029
      vertex 1.25 -3.33 0.03
      vertex 1 -3.21 0.03
    endloop
  endfacet
  facet normal -0.432731 -0.901523 -0
    outer loop
      vertex 1.25 -3.33 0.03
      vertex 1 -3.21 0.029
      vertex 1.25 -3.33 0.029
    endloop
  endfacet
  facet normal -0.304776 -0.952424 0
    outer loop
      vertex 1.25 -3.33 0.029
      vertex 1.5 -3.41 0.03
      vertex 1.25 -3.33 0.03
    endloop
  endfacet
  facet normal -0.304776 -0.952424 -0
    outer loop
      vertex 1.5 -3.41 0.03
      vertex 1.25 -3.33 0.029
      vertex 1.5 -3.41 0.029
    endloop
  endfacet
  facet normal -0.196116 -0.980581 0
    outer loop
      vertex 1.5 -3.41 0.029
      vertex 1.75 -3.46 0.03
      vertex 1.5 -3.41 0.03
    endloop
  endfacet
  facet normal -0.196116 -0.980581 -0
    outer loop
      vertex 1.75 -3.46 0.03
      vertex 1.5 -3.41 0.029
      vertex 1.75 -3.46 0.029
    endloop
  endfacet
  facet normal -0.039968 -0.999201 0
    outer loop
      vertex 1.75 -3.46 0.029
      vertex 2 -3.47 0.03
      vertex 1.75 -3.46 0.03
    endloop
  endfacet
  facet normal -0.039968 -0.999201 -0
    outer loop
      vertex 2 -3.47 0.03
      vertex 1.75 -3.46 0.029
      vertex 2 -3.47 0.029
    endloop
  endfacet
  facet normal 0 -1 0
    outer loop
      vertex 2 -3.47 0.029
      vertex 2.25 -3.47 0.03
      vertex 2 -3.47 0.03
    endloop
  endfacet
  facet normal 0 -1 -0
    outer loop
      vertex 2.25 -3.47 0.03
      vertex 2 -3.47 0.029
      vertex 2.25 -3.47 0.029
    endloop
  endfacet
  facet normal 0 -1 0
    outer loop
      vertex 2.25 -3.47 0.029
      vertex 2.5 -3.47 0.03
      vertex 2.25 -3.47 0.03
    endloop
  endfacet
  facet normal 0 -1 -0
    outer loop
      vertex 2.5 -3.47 0.03
      vertex 2.25 -3.47 0.029
      vertex 2.5 -3.47 0.029
    endloop
  endfacet
  facet normal 0 -1 0
    outer loop
      vertex 2.5 -3.47 0.029
      vertex 2.75 -3.47 0.03
      vertex 2.5 -3.47 0.03
    endloop
  endfacet
  facet normal 0 -1 -0
    outer loop
      vertex 2.75 -3.47 0.03
      vertex 2.5 -3.47 0.029
      vertex 2.75 -3.47 0.029
    endloop
  endfacet
  facet normal 0 -1 0
    outer loop
      vertex 2.75 -3.47 0.029
      vertex 3 -3.47 0.03
      vertex 2.75 -3.47 0.03
    endloop
  endfacet
  facet normal 0 -1 -0
    outer loop
      vertex 3 -3.47 0.03
      vertex 2.75 -3.47 0.029
      vertex 3 -3.47 0.029
    endloop
  endfacet
  facet normal 0 -1 0
    outer loop
      vertex 3 -3.47 0.029
      vertex 3.25 -3.47 0.03
      vertex 3 -3.47 0.03
    endloop
  endfacet
  facet normal 0 -1 -0
    outer loop
      vertex 3.25 -3.47 0.03
      vertex 3 -3.47 0.029
      vertex 3.25 -3.47 0.029
    endloop
  endfacet
  facet normal 0 -1 0
    outer loop
      vertex 3.25 -3.47 0.029
      vertex 3.5 -3.47 0.03
      vertex 3.25 -3.47 0.03
    endloop
  endfacet
  facet normal 0 -1 -0
    outer loop
      vertex 3.5 -3.47 0.03
      vertex 3.25 -3.47 0.029
      vertex 3.5 -3.47 0.029
    endloop
  endfacet
  facet normal 0 -1 0
    outer loop
      vertex 3.5 -3.47 0.029
      vertex 3.75 -3.47 0.03
      vertex 3.5 -3.47 0.03
    endloop
  endfacet
  facet normal 0 -1 -0
    outer loop
      vertex 3.75 -3.47 0.03
      vertex 3.5 -3.47 0.029
      vertex 3.75 -3.47 0.029
    endloop
  endfacet
  facet normal 0 -1 0
    outer loop
      vertex 3.75 -3.47 0.029
      vertex 4 -3.47 0.03
      vertex 3.75 -3.47 0.03
    endloop
  endfacet
  facet normal 0 -1 -0
    outer loop
      vertex 4 -3.47 0.03
      vertex 3.75 -3.47 0.029
      vertex 4 -3.47 0.029
    endloop
  endfacet
  facet normal 0 -1 0
    outer loop
      vertex 4 -3.47 0.029
      vertex 4.25 -3.47 0.03
      vertex 4 -3.47 0.03
    endloop
  endfacet
  facet normal 0 -1 -0
    outer loop
      vertex 4.25 -3.47 0.03
      vertex 4 -3.47 0.029
      vertex 4.25 -3.47 0.029
    endloop
  endfacet
  facet normal 0 -1 0
    outer loop
      vertex 4.25 -3.47 0.029
      vertex 4.5 -3.47 0.03
      vertex 4.25 -3.47 0.03
    endloop
  endfacet
  facet normal 0 -1 -0
    outer loop
      vertex 4.5 -3.47 0.03
      vertex 4.25 -3.47 0.029
      vertex 4.5 -3.47 0.029
    endloop
  endfacet
  facet normal 0 -1 0
    outer loop
      vertex 4.5 -3.47 0.029
      vertex 4.75 -3.47 0.03
      vertex 4.5 -3.47 0.03
    endloop
  endfacet
  facet normal 0 -1 -0
    outer loop
      vertex 4.75 -3.47 0.03
      vertex 4.5 -3.47 0.029
      vertex 4.75 -3.47 0.029
    endloop
  endfacet
  facet normal 0 -1 0
    outer loop
      vertex 4.75 -3.47 0.029
      vertex 5 -3.47 0.03
      vertex 4.75 -3.47 0.03
    endloop
  endfacet
  facet normal 0 -1 -0
    outer loop
      vertex 5 -3.47 0.03
      vertex 4.75 -3.47 0.029
      vertex 5 -3.47 0.029
    endloop
  endfacet
  facet normal 1 0 0
    outer loop
      vertex 5 -3.47 0.03
      vertex 5 0 0.059
      vertex 5 0 0.06
    endloop
  endfacet
  facet normal 1 0 0
    outer loop
      vertex 5 0 0.059
      vertex 5 -3.47 0.03
      vertex 5 -3.47 0.029
    endloop
  endfacet
  facet normal 0.0797452 0.996815 -0
    outer loop
      vertex 0.25 -0.02 0.099
      vertex 0 0 0.06
      vertex 0.25 -0.02 0.1
    endloop
  endfacet
  facet normal 0.0797452 0.996815 0
    outer loop
      vertex 0 0 0.06
      vertex 0.25 -0.02 0.099
      vertex 0 0 0.059
    endloop
  endfacet
  facet normal 0.0797452 0.996815 -0
    outer loop
      vertex 0.5 -0.04 0.119
      vertex 0.25 -0.02 0.1
      vertex 0.5 -0.04 0.12
    endloop
  endfacet
  facet normal 0.0797452 0.996815 0
    outer loop
      vertex 0.25 -0.02 0.1
      vertex 0.5 -0.04 0.119
      vertex 0.25 -0.02 0.099
    endloop
  endfacet
  facet normal 0.039968 0.999201 -0
    outer loop
      vertex 0.75 -0.05 0.149
      vertex 0.5 -0.04 0.12
      vertex 0.75 -0.05 0.15
    endloop
  endfacet
  facet normal 0.039968 0.999201 0
    outer loop
      vertex 0.5 -0.04 0.12
      vertex 0.75 -0.05 0.149
      vertex 0.5 -0.04 0.119
    endloop
  endfacet
  facet normal 0.039968 0.999201 -0
    outer loop
      vertex 1 -0.06 0.169
      vertex 0.75 -0.05 0.15
      vertex 1 -0.06 0.17
    endloop
  endfacet
  facet normal 0.039968 0.999201 0
    outer loop
      vertex 0.75 -0.05 0.15
      vertex 1 -0.06 0.169
      vertex 0.75 -0.05 0.149
    endloop
  endfacet
  facet normal 0.0797452 0.996815 -0
    outer loop
      vertex 1.25 -0.08 0.189
      vertex 1 -0.06 0.17
      vertex 1.25 -0.08 0.19
    endloop
  endfacet
  facet normal 0.0797452 0.996815 0
    outer loop
      vertex 1 -0.06 0.17
      vertex 1.25 -0.08 0.189
      vertex 1 -0.06 0.169
    endloop
  endfacet
  facet normal 0 1 -0
    outer loop
      vertex 1.5 -0.08 0.209
      vertex 1.25 -0.08 0.19
      vertex 1.5 -0.08 0.21
    endloop
  endfacet
  facet normal -0 1 0
    outer loop
      vertex 1.25 -0.08 0.19
      vertex 1.5 -0.08 0.209
      vertex 1.25 -0.08 0.189
    endloop
  endfacet
  facet normal 0.039968 0.999201 -0
    outer loop
      vertex 1.75 -0.09 0.219
      vertex 1.5 -0.08 0.21
      vertex 1.75 -0.09 0.22
    endloop
  endfacet
  facet normal 0.039968 0.999201 0
    outer loop
      vertex 1.5 -0.08 0.21
      vertex 1.75 -0.09 0.219
      vertex 1.5 -0.08 0.209
    endloop
  endfacet
  facet normal 0.039968 0.999201 -0
    outer loop
      vertex 2 -0.1 0.229
      vertex 1.75 -0.09 0.22
      vertex 2 -0.1 0.23
    endloop
  endfacet
  facet normal 0.039968 0.999201 0
    outer loop
      vertex 1.75 -0.09 0.22
      vertex 2 -0.1 0.229
      vertex 1.75 -0.09 0.219
    endloop
  endfacet
  facet normal 0 1 -0
    outer loop
      vertex 2.25 -0.1 0.229
      vertex 2 -0.1 0.23
      vertex 2.25 -0.1 0.23
    endloop
  endfacet
  facet normal 0 1 0
    outer loop
      vertex 2 -0.1 0.23
      vertex 2.25 -0.1 0.229
      vertex 2 -0.1 0.229
    endloop
  endfacet
  facet normal 0 1 -0
    outer loop
      vertex 2.5 -0.1 0.239
      vertex 2.25 -0.1 0.23
      vertex 2.5 -0.1 0.24
    endloop
  endfacet
  facet normal -0 1 0
    outer loop
      vertex 2.25 -0.1 0.23
      vertex 2.5 -0.1 0.239
      vertex 2.25 -0.1 0.229
    endloop
  endfacet
  facet normal 0 1 0
    outer loop
      vertex 2.75 -0.1 0.23
      vertex 2.5 -0.1 0.239
      vertex 2.5 -0.1 0.24
    endloop
  endfacet
  facet normal 0 1 0
    outer loop
      vertex 2.5 -0.1 0.239
      vertex 2.75 -0.1 0.23
      vertex 2.75 -0.1 0.229
    endloop
  endfacet
  facet normal 0 1 -0
    outer loop
      vertex 3 -0.1 0.229
      vertex 2.75 -0.1 0.23
      vertex 3 -0.1 0.23
    endloop
  endfacet
  facet normal 0 1 0
    outer loop
      vertex 2.75 -0.1 0.23
      vertex 3 -0.1 0.229
      vertex 2.75 -0.1 0.229
    endloop
  endfacet
  facet normal -0.039968 0.999201 0
    outer loop
      vertex 3.25 -0.09 0.22
      vertex 3 -0.1 0.229
      vertex 3 -0.1 0.23
    endloop
  endfacet
  facet normal -0.039968 0.999201 0
    outer loop
      vertex 3 -0.1 0.229
      vertex 3.25 -0.09 0.22
      vertex 3.25 -0.09 0.219
    endloop
  endfacet
  facet normal -0.039968 0.999201 0
    outer loop
      vertex 3.5 -0.08 0.21
      vertex 3.25 -0.09 0.219
      vertex 3.25 -0.09 0.22
    endloop
  endfacet
  facet normal -0.039968 0.999201 0
    outer loop
      vertex 3.25 -0.09 0.219
      vertex 3.5 -0.08 0.21
      vertex 3.5 -0.08 0.209
    endloop
  endfacet
  facet normal 0 1 0
    outer loop
      vertex 3.75 -0.08 0.19
      vertex 3.5 -0.08 0.209
      vertex 3.5 -0.08 0.21
    endloop
  endfacet
  facet normal 0 1 0
    outer loop
      vertex 3.5 -0.08 0.209
      vertex 3.75 -0.08 0.19
      vertex 3.75 -0.08 0.189
    endloop
  endfacet
  facet normal -0.0797452 0.996815 0
    outer loop
      vertex 4 -0.06 0.17
      vertex 3.75 -0.08 0.189
      vertex 3.75 -0.08 0.19
    endloop
  endfacet
  facet normal -0.0797452 0.996815 0
    outer loop
      vertex 3.75 -0.08 0.189
      vertex 4 -0.06 0.17
      vertex 4 -0.06 0.169
    endloop
  endfacet
  facet normal -0.039968 0.999201 0
    outer loop
      vertex 4.25 -0.05 0.15
      vertex 4 -0.06 0.169
      vertex 4 -0.06 0.17
    endloop
  endfacet
  facet normal -0.039968 0.999201 0
    outer loop
      vertex 4 -0.06 0.169
      vertex 4.25 -0.05 0.15
      vertex 4.25 -0.05 0.149
    endloop
  endfacet
  facet normal -0.039968 0.999201 0
    outer loop
      vertex 4.5 -0.04 0.12
      vertex 4.25 -0.05 0.149
      vertex 4.25 -0.05 0.15
    endloop
  endfacet
  facet normal -0.039968 0.999201 0
    outer loop
      vertex 4.25 -0.05 0.149
      vertex 4.5 -0.04 0.12
      vertex 4.5 -0.04 0.119
    endloop
  endfacet
  facet normal -0.0797452 0.996815 0
    outer loop
      vertex 4.75 -0.02 0.1
      vertex 4.5 -0.04 0.119
      vertex 4.5 -0.04 0.12
    endloop
  endfacet
  facet normal -0.0797452 0.996815 0
    outer loop
      vertex 4.5 -0.04 0.119
      vertex 4.75 -0.02 0.1
      vertex 4.75 -0.02 0.099
    endloop
  endfacet
  facet normal -0.0797452 0.996815 0
    outer loop
      vertex 5 0 0.06
      vertex 4.75 -0.02 0.099
      vertex 4.75 -0.02 0.1
    endloop
  endfacet
  facet normal -0.0797452 0.996815 0
    outer loop
      vertex 4.75 -0.02 0.099
      vertex 5 0 0.06
      vertex 5 0 0.059
    endloop
  endfacet
endsolid OpenSCAD_Model
